<?xml version="1.0" encoding="utf-8" standalone="no"?>
<!DOCTYPE svg PUBLIC "-//W3C//DTD SVG 1.1//EN"
  "http://www.w3.org/Graphics/SVG/1.1/DTD/svg11.dtd">
<svg xmlns:xlink="http://www.w3.org/1999/xlink" width="279.2605pt" height="423.99625pt" viewBox="0 0 279.2605 423.99625" xmlns="http://www.w3.org/2000/svg" version="1.1">
 <metadata>
  <rdf:RDF xmlns:dc="http://purl.org/dc/elements/1.1/" xmlns:cc="http://creativecommons.org/ns#" xmlns:rdf="http://www.w3.org/1999/02/22-rdf-syntax-ns#">
   <cc:Work>
    <dc:type rdf:resource="http://purl.org/dc/dcmitype/StillImage"/>
    <dc:date>2026-03-24T17:46:39.121856</dc:date>
    <dc:format>image/svg+xml</dc:format>
    <dc:creator>
     <cc:Agent>
      <dc:title>Matplotlib v3.10.6, https://matplotlib.org/</dc:title>
     </cc:Agent>
    </dc:creator>
   </cc:Work>
  </rdf:RDF>
 </metadata>
 <defs>
  <style type="text/css">*{stroke-linejoin: round; stroke-linecap: butt}</style>
 </defs>
 <g id="figure_1">
  <g id="patch_1">
   <path d="M 0 423.99625 
L 279.2605 423.99625 
L 279.2605 0 
L 0 0 
z
" style="fill: #ffffff"/>
  </g>
  <g id="axes_1">
   <g id="patch_2">
    <path d="M 48.1875 119.465333 
L 272.0605 119.465333 
L 272.0605 7.2 
L 48.1875 7.2 
z
" style="fill: #ffffff"/>
   </g>
   <g id="PathCollection_1">
    <defs>
     <path id="m5dfbbc663b" d="M 0 1.414214 
C 0.375054 1.414214 0.734797 1.265203 1 1 
C 1.265203 0.734797 1.414214 0.375054 1.414214 0 
C 1.414214 -0.375054 1.265203 -0.734797 1 -1 
C 0.734797 -1.265203 0.375054 -1.414214 0 -1.414214 
C -0.375054 -1.414214 -0.734797 -1.265203 -1 -1 
C -1.265203 -0.734797 -1.414214 -0.375054 -1.414214 0 
C -1.414214 0.375054 -1.265203 0.734797 -1 1 
C -0.734797 1.265203 -0.375054 1.414214 0 1.414214 
z
" style="stroke: #000000"/>
    </defs>
    <g clip-path="url(#p6be1e2069f)">
     <use xlink:href="#m5dfbbc663b" x="58.363545" y="12.30297" style="stroke: #000000"/>
     <use xlink:href="#m5dfbbc663b" x="61.755561" y="13.261877" style="stroke: #000000"/>
     <use xlink:href="#m5dfbbc663b" x="65.147576" y="14.211829" style="stroke: #000000"/>
     <use xlink:href="#m5dfbbc663b" x="68.539591" y="15.169949" style="stroke: #000000"/>
     <use xlink:href="#m5dfbbc663b" x="71.931606" y="16.130032" style="stroke: #000000"/>
     <use xlink:href="#m5dfbbc663b" x="75.323621" y="17.152174" style="stroke: #000000"/>
     <use xlink:href="#m5dfbbc663b" x="78.715636" y="18.217716" style="stroke: #000000"/>
     <use xlink:href="#m5dfbbc663b" x="82.107652" y="19.270644" style="stroke: #000000"/>
     <use xlink:href="#m5dfbbc663b" x="85.499667" y="20.364982" style="stroke: #000000"/>
     <use xlink:href="#m5dfbbc663b" x="88.891682" y="21.484684" style="stroke: #000000"/>
     <use xlink:href="#m5dfbbc663b" x="92.283697" y="22.641936" style="stroke: #000000"/>
     <use xlink:href="#m5dfbbc663b" x="95.675712" y="23.831074" style="stroke: #000000"/>
     <use xlink:href="#m5dfbbc663b" x="99.067727" y="25.070725" style="stroke: #000000"/>
     <use xlink:href="#m5dfbbc663b" x="102.459742" y="26.334867" style="stroke: #000000"/>
     <use xlink:href="#m5dfbbc663b" x="105.851758" y="27.657015" style="stroke: #000000"/>
     <use xlink:href="#m5dfbbc663b" x="109.243773" y="29.01636" style="stroke: #000000"/>
     <use xlink:href="#m5dfbbc663b" x="112.635788" y="30.441787" style="stroke: #000000"/>
     <use xlink:href="#m5dfbbc663b" x="116.027803" y="31.913206" style="stroke: #000000"/>
     <use xlink:href="#m5dfbbc663b" x="119.419818" y="33.442826" style="stroke: #000000"/>
     <use xlink:href="#m5dfbbc663b" x="122.811833" y="34.995099" style="stroke: #000000"/>
     <use xlink:href="#m5dfbbc663b" x="126.203848" y="36.594002" style="stroke: #000000"/>
     <use xlink:href="#m5dfbbc663b" x="129.595864" y="38.177555" style="stroke: #000000"/>
     <use xlink:href="#m5dfbbc663b" x="132.987879" y="39.840773" style="stroke: #000000"/>
     <use xlink:href="#m5dfbbc663b" x="136.379894" y="41.579261" style="stroke: #000000"/>
     <use xlink:href="#m5dfbbc663b" x="139.771909" y="43.377043" style="stroke: #000000"/>
     <use xlink:href="#m5dfbbc663b" x="143.163924" y="45.167851" style="stroke: #000000"/>
     <use xlink:href="#m5dfbbc663b" x="146.555939" y="47.009905" style="stroke: #000000"/>
     <use xlink:href="#m5dfbbc663b" x="149.947955" y="48.903781" style="stroke: #000000"/>
     <use xlink:href="#m5dfbbc663b" x="153.33997" y="50.798719" style="stroke: #000000"/>
     <use xlink:href="#m5dfbbc663b" x="156.731985" y="52.719591" style="stroke: #000000"/>
     <use xlink:href="#m5dfbbc663b" x="160.124" y="54.649469" style="stroke: #000000"/>
     <use xlink:href="#m5dfbbc663b" x="163.516015" y="56.629953" style="stroke: #000000"/>
     <use xlink:href="#m5dfbbc663b" x="166.90803" y="58.595904" style="stroke: #000000"/>
     <use xlink:href="#m5dfbbc663b" x="170.300045" y="60.566903" style="stroke: #000000"/>
     <use xlink:href="#m5dfbbc663b" x="173.692061" y="62.505905" style="stroke: #000000"/>
     <use xlink:href="#m5dfbbc663b" x="177.084076" y="64.458954" style="stroke: #000000"/>
     <use xlink:href="#m5dfbbc663b" x="180.476091" y="66.396481" style="stroke: #000000"/>
     <use xlink:href="#m5dfbbc663b" x="183.868106" y="68.303056" style="stroke: #000000"/>
     <use xlink:href="#m5dfbbc663b" x="187.260121" y="70.200499" style="stroke: #000000"/>
     <use xlink:href="#m5dfbbc663b" x="190.652136" y="72.088907" style="stroke: #000000"/>
     <use xlink:href="#m5dfbbc663b" x="194.044152" y="73.928697" style="stroke: #000000"/>
     <use xlink:href="#m5dfbbc663b" x="197.436167" y="75.738077" style="stroke: #000000"/>
     <use xlink:href="#m5dfbbc663b" x="200.828182" y="77.507743" style="stroke: #000000"/>
     <use xlink:href="#m5dfbbc663b" x="204.220197" y="79.229728" style="stroke: #000000"/>
     <use xlink:href="#m5dfbbc663b" x="207.612212" y="80.903319" style="stroke: #000000"/>
     <use xlink:href="#m5dfbbc663b" x="211.004227" y="82.533085" style="stroke: #000000"/>
     <use xlink:href="#m5dfbbc663b" x="214.396242" y="84.1174" style="stroke: #000000"/>
     <use xlink:href="#m5dfbbc663b" x="217.788258" y="85.63223" style="stroke: #000000"/>
     <use xlink:href="#m5dfbbc663b" x="221.180273" y="87.095008" style="stroke: #000000"/>
     <use xlink:href="#m5dfbbc663b" x="224.572288" y="88.53887" style="stroke: #000000"/>
     <use xlink:href="#m5dfbbc663b" x="227.964303" y="89.912838" style="stroke: #000000"/>
     <use xlink:href="#m5dfbbc663b" x="231.356318" y="91.222407" style="stroke: #000000"/>
     <use xlink:href="#m5dfbbc663b" x="234.748333" y="92.482902" style="stroke: #000000"/>
     <use xlink:href="#m5dfbbc663b" x="238.140348" y="93.685996" style="stroke: #000000"/>
     <use xlink:href="#m5dfbbc663b" x="241.532364" y="94.835594" style="stroke: #000000"/>
     <use xlink:href="#m5dfbbc663b" x="244.924379" y="95.946163" style="stroke: #000000"/>
     <use xlink:href="#m5dfbbc663b" x="248.316394" y="96.9903" style="stroke: #000000"/>
     <use xlink:href="#m5dfbbc663b" x="251.708409" y="97.995527" style="stroke: #000000"/>
     <use xlink:href="#m5dfbbc663b" x="255.100424" y="98.94675" style="stroke: #000000"/>
     <use xlink:href="#m5dfbbc663b" x="258.492439" y="99.858124" style="stroke: #000000"/>
     <use xlink:href="#m5dfbbc663b" x="261.884455" y="100.718454" style="stroke: #000000"/>
    </g>
   </g>
   <g id="matplotlib.axis_1">
    <g id="xtick_1">
     <g id="line2d_1">
      <defs>
       <path id="mf57c11e0bd" d="M 0 0 
L 0 3.5 
" style="stroke: #000000; stroke-width: 0.8"/>
      </defs>
      <g>
       <use xlink:href="#mf57c11e0bd" x="58.363545" y="119.465333" style="stroke: #000000; stroke-width: 0.8"/>
      </g>
     </g>
    </g>
    <g id="xtick_2">
     <g id="line2d_2">
      <g>
       <use xlink:href="#mf57c11e0bd" x="114.897131" y="119.465333" style="stroke: #000000; stroke-width: 0.8"/>
      </g>
     </g>
    </g>
    <g id="xtick_3">
     <g id="line2d_3">
      <g>
       <use xlink:href="#mf57c11e0bd" x="171.430717" y="119.465333" style="stroke: #000000; stroke-width: 0.8"/>
      </g>
     </g>
    </g>
    <g id="xtick_4">
     <g id="line2d_4">
      <g>
       <use xlink:href="#mf57c11e0bd" x="227.964303" y="119.465333" style="stroke: #000000; stroke-width: 0.8"/>
      </g>
     </g>
    </g>
   </g>
   <g id="matplotlib.axis_2">
    <g id="ytick_1">
     <g id="line2d_5">
      <defs>
       <path id="m3e56149726" d="M 0 0 
L -3.5 0 
" style="stroke: #000000; stroke-width: 0.8"/>
      </defs>
      <g>
       <use xlink:href="#m3e56149726" x="48.1875" y="114.362364" style="stroke: #000000; stroke-width: 0.8"/>
      </g>
     </g>
     <g id="text_1">
      <!-- 0 -->
      <g transform="translate(34.825 118.161582) scale(0.1 -0.1)">
       <defs>
        <path id="DejaVuSans-30" d="M 2034 4250 
Q 1547 4250 1301 3770 
Q 1056 3291 1056 2328 
Q 1056 1369 1301 889 
Q 1547 409 2034 409 
Q 2525 409 2770 889 
Q 3016 1369 3016 2328 
Q 3016 3291 2770 3770 
Q 2525 4250 2034 4250 
z
M 2034 4750 
Q 2819 4750 3233 4129 
Q 3647 3509 3647 2328 
Q 3647 1150 3233 529 
Q 2819 -91 2034 -91 
Q 1250 -91 836 529 
Q 422 1150 422 2328 
Q 422 3509 836 4129 
Q 1250 4750 2034 4750 
z
" transform="scale(0.015625)"/>
       </defs>
       <use xlink:href="#DejaVuSans-30"/>
      </g>
     </g>
    </g>
    <g id="ytick_2">
     <g id="line2d_6">
      <g>
       <use xlink:href="#m3e56149726" x="48.1875" y="88.84954" style="stroke: #000000; stroke-width: 0.8"/>
      </g>
     </g>
     <g id="text_2">
      <!-- 25 -->
      <g transform="translate(28.4625 92.648759) scale(0.1 -0.1)">
       <defs>
        <path id="DejaVuSans-32" d="M 1228 531 
L 3431 531 
L 3431 0 
L 469 0 
L 469 531 
Q 828 903 1448 1529 
Q 2069 2156 2228 2338 
Q 2531 2678 2651 2914 
Q 2772 3150 2772 3378 
Q 2772 3750 2511 3984 
Q 2250 4219 1831 4219 
Q 1534 4219 1204 4116 
Q 875 4013 500 3803 
L 500 4441 
Q 881 4594 1212 4672 
Q 1544 4750 1819 4750 
Q 2544 4750 2975 4387 
Q 3406 4025 3406 3419 
Q 3406 3131 3298 2873 
Q 3191 2616 2906 2266 
Q 2828 2175 2409 1742 
Q 1991 1309 1228 531 
z
" transform="scale(0.015625)"/>
        <path id="DejaVuSans-35" d="M 691 4666 
L 3169 4666 
L 3169 4134 
L 1269 4134 
L 1269 2991 
Q 1406 3038 1543 3061 
Q 1681 3084 1819 3084 
Q 2600 3084 3056 2656 
Q 3513 2228 3513 1497 
Q 3513 744 3044 326 
Q 2575 -91 1722 -91 
Q 1428 -91 1123 -41 
Q 819 9 494 109 
L 494 744 
Q 775 591 1075 516 
Q 1375 441 1709 441 
Q 2250 441 2565 725 
Q 2881 1009 2881 1497 
Q 2881 1984 2565 2268 
Q 2250 2553 1709 2553 
Q 1456 2553 1204 2497 
Q 953 2441 691 2322 
L 691 4666 
z
" transform="scale(0.015625)"/>
       </defs>
       <use xlink:href="#DejaVuSans-32"/>
       <use xlink:href="#DejaVuSans-35" transform="translate(63.623047 0)"/>
      </g>
     </g>
    </g>
    <g id="ytick_3">
     <g id="line2d_7">
      <g>
       <use xlink:href="#m3e56149726" x="48.1875" y="63.336716" style="stroke: #000000; stroke-width: 0.8"/>
      </g>
     </g>
     <g id="text_3">
      <!-- 50 -->
      <g transform="translate(28.4625 67.135935) scale(0.1 -0.1)">
       <use xlink:href="#DejaVuSans-35"/>
       <use xlink:href="#DejaVuSans-30" transform="translate(63.623047 0)"/>
      </g>
     </g>
    </g>
    <g id="ytick_4">
     <g id="line2d_8">
      <g>
       <use xlink:href="#m3e56149726" x="48.1875" y="37.823892" style="stroke: #000000; stroke-width: 0.8"/>
      </g>
     </g>
     <g id="text_4">
      <!-- 75 -->
      <g transform="translate(28.4625 41.623111) scale(0.1 -0.1)">
       <defs>
        <path id="DejaVuSans-37" d="M 525 4666 
L 3525 4666 
L 3525 4397 
L 1831 0 
L 1172 0 
L 2766 4134 
L 525 4134 
L 525 4666 
z
" transform="scale(0.015625)"/>
       </defs>
       <use xlink:href="#DejaVuSans-37"/>
       <use xlink:href="#DejaVuSans-35" transform="translate(63.623047 0)"/>
      </g>
     </g>
    </g>
    <g id="ytick_5">
     <g id="line2d_9">
      <g>
       <use xlink:href="#m3e56149726" x="48.1875" y="12.311068" style="stroke: #000000; stroke-width: 0.8"/>
      </g>
     </g>
     <g id="text_5">
      <!-- 100 -->
      <g transform="translate(22.1 16.110287) scale(0.1 -0.1)">
       <defs>
        <path id="DejaVuSans-31" d="M 794 531 
L 1825 531 
L 1825 4091 
L 703 3866 
L 703 4441 
L 1819 4666 
L 2450 4666 
L 2450 531 
L 3481 531 
L 3481 0 
L 794 0 
L 794 531 
z
" transform="scale(0.015625)"/>
       </defs>
       <use xlink:href="#DejaVuSans-31"/>
       <use xlink:href="#DejaVuSans-30" transform="translate(63.623047 0)"/>
       <use xlink:href="#DejaVuSans-30" transform="translate(127.246094 0)"/>
      </g>
     </g>
    </g>
    <g id="text_6">
     <!-- $M_0$ (# cm$^{-3}$) -->
     <g transform="translate(16.020313 94.282667) rotate(-90) scale(0.1 -0.1)">
      <defs>
       <path id="DejaVuSans-Oblique-4d" d="M 1081 4666 
L 2028 4666 
L 2572 1522 
L 4378 4666 
L 5350 4666 
L 4441 0 
L 3828 0 
L 4622 4091 
L 2791 897 
L 2175 897 
L 1581 4103 
L 788 0 
L 172 0 
L 1081 4666 
z
" transform="scale(0.015625)"/>
       <path id="DejaVuSans-20" transform="scale(0.015625)"/>
       <path id="DejaVuSans-28" d="M 1984 4856 
Q 1566 4138 1362 3434 
Q 1159 2731 1159 2009 
Q 1159 1288 1364 580 
Q 1569 -128 1984 -844 
L 1484 -844 
Q 1016 -109 783 600 
Q 550 1309 550 2009 
Q 550 2706 781 3412 
Q 1013 4119 1484 4856 
L 1984 4856 
z
" transform="scale(0.015625)"/>
       <path id="DejaVuSans-23" d="M 3272 2816 
L 2363 2816 
L 2100 1772 
L 3016 1772 
L 3272 2816 
z
M 2803 4594 
L 2478 3297 
L 3391 3297 
L 3719 4594 
L 4219 4594 
L 3897 3297 
L 4872 3297 
L 4872 2816 
L 3775 2816 
L 3519 1772 
L 4513 1772 
L 4513 1294 
L 3397 1294 
L 3072 0 
L 2572 0 
L 2894 1294 
L 1978 1294 
L 1656 0 
L 1153 0 
L 1478 1294 
L 494 1294 
L 494 1772 
L 1594 1772 
L 1856 2816 
L 850 2816 
L 850 3297 
L 1978 3297 
L 2297 4594 
L 2803 4594 
z
" transform="scale(0.015625)"/>
       <path id="DejaVuSans-63" d="M 3122 3366 
L 3122 2828 
Q 2878 2963 2633 3030 
Q 2388 3097 2138 3097 
Q 1578 3097 1268 2742 
Q 959 2388 959 1747 
Q 959 1106 1268 751 
Q 1578 397 2138 397 
Q 2388 397 2633 464 
Q 2878 531 3122 666 
L 3122 134 
Q 2881 22 2623 -34 
Q 2366 -91 2075 -91 
Q 1284 -91 818 406 
Q 353 903 353 1747 
Q 353 2603 823 3093 
Q 1294 3584 2113 3584 
Q 2378 3584 2631 3529 
Q 2884 3475 3122 3366 
z
" transform="scale(0.015625)"/>
       <path id="DejaVuSans-6d" d="M 3328 2828 
Q 3544 3216 3844 3400 
Q 4144 3584 4550 3584 
Q 5097 3584 5394 3201 
Q 5691 2819 5691 2113 
L 5691 0 
L 5113 0 
L 5113 2094 
Q 5113 2597 4934 2840 
Q 4756 3084 4391 3084 
Q 3944 3084 3684 2787 
Q 3425 2491 3425 1978 
L 3425 0 
L 2847 0 
L 2847 2094 
Q 2847 2600 2669 2842 
Q 2491 3084 2119 3084 
Q 1678 3084 1418 2786 
Q 1159 2488 1159 1978 
L 1159 0 
L 581 0 
L 581 3500 
L 1159 3500 
L 1159 2956 
Q 1356 3278 1631 3431 
Q 1906 3584 2284 3584 
Q 2666 3584 2933 3390 
Q 3200 3197 3328 2828 
z
" transform="scale(0.015625)"/>
       <path id="DejaVuSans-2212" d="M 678 2272 
L 4684 2272 
L 4684 1741 
L 678 1741 
L 678 2272 
z
" transform="scale(0.015625)"/>
       <path id="DejaVuSans-33" d="M 2597 2516 
Q 3050 2419 3304 2112 
Q 3559 1806 3559 1356 
Q 3559 666 3084 287 
Q 2609 -91 1734 -91 
Q 1441 -91 1130 -33 
Q 819 25 488 141 
L 488 750 
Q 750 597 1062 519 
Q 1375 441 1716 441 
Q 2309 441 2620 675 
Q 2931 909 2931 1356 
Q 2931 1769 2642 2001 
Q 2353 2234 1838 2234 
L 1294 2234 
L 1294 2753 
L 1863 2753 
Q 2328 2753 2575 2939 
Q 2822 3125 2822 3475 
Q 2822 3834 2567 4026 
Q 2313 4219 1838 4219 
Q 1578 4219 1281 4162 
Q 984 4106 628 3988 
L 628 4550 
Q 988 4650 1302 4700 
Q 1616 4750 1894 4750 
Q 2613 4750 3031 4423 
Q 3450 4097 3450 3541 
Q 3450 3153 3228 2886 
Q 3006 2619 2597 2516 
z
" transform="scale(0.015625)"/>
       <path id="DejaVuSans-29" d="M 513 4856 
L 1013 4856 
Q 1481 4119 1714 3412 
Q 1947 2706 1947 2009 
Q 1947 1309 1714 600 
Q 1481 -109 1013 -844 
L 513 -844 
Q 928 -128 1133 580 
Q 1338 1288 1338 2009 
Q 1338 2731 1133 3434 
Q 928 4138 513 4856 
z
" transform="scale(0.015625)"/>
      </defs>
      <use xlink:href="#DejaVuSans-Oblique-4d" transform="translate(0 0.765625)"/>
      <use xlink:href="#DejaVuSans-30" transform="translate(86.279297 -15.640625) scale(0.7)"/>
      <use xlink:href="#DejaVuSans-20" transform="translate(133.549805 0.765625)"/>
      <use xlink:href="#DejaVuSans-28" transform="translate(165.336914 0.765625)"/>
      <use xlink:href="#DejaVuSans-23" transform="translate(204.350586 0.765625)"/>
      <use xlink:href="#DejaVuSans-20" transform="translate(288.139648 0.765625)"/>
      <use xlink:href="#DejaVuSans-63" transform="translate(319.926758 0.765625)"/>
      <use xlink:href="#DejaVuSans-6d" transform="translate(374.907227 0.765625)"/>
      <use xlink:href="#DejaVuSans-2212" transform="translate(473.276367 39.046875) scale(0.7)"/>
      <use xlink:href="#DejaVuSans-33" transform="translate(531.928711 39.046875) scale(0.7)"/>
      <use xlink:href="#DejaVuSans-29" transform="translate(579.199219 0.765625)"/>
     </g>
    </g>
   </g>
   <g id="line2d_10">
    <path d="M 58.363545 12.311068 
L 61.755561 19.149453 
L 65.147576 25.529603 
L 68.539591 31.482223 
L 71.931606 37.035963 
L 75.323621 42.21755 
L 78.715636 47.051923 
L 82.107652 51.562348 
L 85.499667 55.770532 
L 88.891682 59.696729 
L 92.283697 63.359835 
L 96.806384 67.865021 
L 101.329071 71.972252 
L 105.851758 75.716681 
L 110.374444 79.130354 
L 114.897131 82.242489 
L 119.419818 85.079721 
L 123.942505 87.666333 
L 128.465192 90.024463 
L 132.987879 92.174293 
L 138.641237 94.596533 
L 144.294596 96.754341 
L 149.947955 98.676583 
L 155.601313 100.388977 
L 162.385343 102.198927 
L 169.169374 103.774437 
L 177.084076 105.356514 
L 184.998778 106.702193 
L 194.044152 107.995709 
L 203.089525 109.070799 
L 213.265571 110.064862 
L 224.572288 110.951949 
L 238.140348 111.778221 
L 252.839081 112.449056 
L 261.884455 112.772142 
L 261.884455 112.772142 
" clip-path="url(#p6be1e2069f)" style="fill: none; stroke: #ff0000; stroke-opacity: 0.8; stroke-linecap: square"/>
   </g>
   <g id="line2d_11">
    <path d="M 58.363545 12.311068 
L 71.931606 15.389542 
L 84.368995 18.433277 
L 95.675712 21.436718 
L 105.851758 24.374709 
L 114.897131 27.203386 
L 123.942505 30.260351 
L 132.987879 33.563761 
L 142.033253 37.12448 
L 151.078626 40.943494 
L 160.124 45.009639 
L 170.300045 49.847896 
L 181.606763 55.483238 
L 199.69751 64.7959 
L 215.526914 72.865936 
L 225.70296 77.830159 
L 234.748333 82.011295 
L 242.663035 85.451353 
L 250.577737 88.662783 
L 258.492439 91.630474 
L 261.884455 92.825667 
L 261.884455 92.825667 
" clip-path="url(#p6be1e2069f)" style="fill: none; stroke-dasharray: 9.6,2.4,1.5,2.4; stroke-dashoffset: 0; stroke: #800080; stroke-opacity: 0.8; stroke-width: 1.5"/>
   </g>
   <g id="line2d_12">
    <path d="M 58.363545 12.311068 
L 71.931606 15.434755 
L 84.368995 18.535576 
L 94.54504 21.285115 
L 104.721086 24.263474 
L 113.76646 27.130435 
L 122.811833 30.225949 
L 131.857207 33.566105 
L 140.902581 37.159793 
L 149.947955 41.006351 
L 158.993328 45.093465 
L 169.169374 49.946804 
L 180.476091 55.588614 
L 200.828182 66.058518 
L 215.526914 73.506128 
L 225.70296 78.429435 
L 234.748333 82.567379 
L 242.663035 85.966297 
L 250.577737 89.134996 
L 258.492439 92.059655 
L 261.884455 93.23659 
L 261.884455 93.23659 
" clip-path="url(#p6be1e2069f)" style="fill: none; stroke-dasharray: 3.7,1.6; stroke-dashoffset: 0; stroke: #800080"/>
   </g>
   <g id="line2d_13">
    <path d="M 58.363545 114.362364 
L 106.982429 114.119051 
L 183.868106 113.679131 
L 222.310944 113.748393 
L 261.884455 113.951441 
L 261.884455 113.951441 
" clip-path="url(#p6be1e2069f)" style="fill: none; stroke-dasharray: 3.7,1.6; stroke-dashoffset: 0; stroke: #800080"/>
   </g>
   <g id="line2d_14">
    <path d="M 58.363545 12.311068 
L 71.931606 15.389542 
L 84.368995 18.433277 
L 95.675712 21.436718 
L 105.851758 24.374709 
L 114.897131 27.203386 
L 123.942505 30.260351 
L 132.987879 33.563761 
L 142.033253 37.12448 
L 151.078626 40.943494 
L 160.124 45.009639 
L 170.300045 49.847896 
L 181.606763 55.483238 
L 199.69751 64.7959 
L 215.526914 72.865936 
L 225.70296 77.830159 
L 234.748333 82.011295 
L 242.663035 85.451353 
L 250.577737 88.662783 
L 258.492439 91.630474 
L 261.884455 92.825667 
L 261.884455 92.825667 
" clip-path="url(#p6be1e2069f)" style="fill: none; stroke-dasharray: 7.4,3.2; stroke-dashoffset: 0; stroke: #0000ff; stroke-opacity: 0.8; stroke-width: 2"/>
   </g>
   <g id="line2d_15">
    <path d="M 58.363545 12.311068 
L 71.931606 15.389542 
L 84.368995 18.433277 
L 95.675712 21.436718 
L 105.851758 24.374709 
L 114.897131 27.203386 
L 123.942505 30.260351 
L 132.987879 33.563761 
L 142.033253 37.12448 
L 151.078626 40.943494 
L 160.124 45.009639 
L 170.300045 49.847896 
L 181.606763 55.483238 
L 199.69751 64.7959 
L 215.526914 72.865936 
L 225.70296 77.830159 
L 234.748333 82.011295 
L 242.663035 85.451353 
L 250.577737 88.662783 
L 258.492439 91.630474 
L 261.884455 92.825667 
L 261.884455 92.825667 
" clip-path="url(#p6be1e2069f)" style="fill: none; stroke-dasharray: 2.5,4.125; stroke-dashoffset: 0; stroke: #008000; stroke-opacity: 0.8; stroke-width: 2.5"/>
   </g>
   <g id="patch_3">
    <path d="M 48.1875 119.465333 
L 48.1875 7.2 
" style="fill: none; stroke: #000000; stroke-width: 0.8; stroke-linejoin: miter; stroke-linecap: square"/>
   </g>
   <g id="patch_4">
    <path d="M 272.0605 119.465333 
L 272.0605 7.2 
" style="fill: none; stroke: #000000; stroke-width: 0.8; stroke-linejoin: miter; stroke-linecap: square"/>
   </g>
   <g id="patch_5">
    <path d="M 48.1875 119.465333 
L 272.0605 119.465333 
" style="fill: none; stroke: #000000; stroke-width: 0.8; stroke-linejoin: miter; stroke-linecap: square"/>
   </g>
   <g id="patch_6">
    <path d="M 48.1875 7.2 
L 272.0605 7.2 
" style="fill: none; stroke: #000000; stroke-width: 0.8; stroke-linejoin: miter; stroke-linecap: square"/>
   </g>
  </g>
  <g id="axes_2">
   <g id="patch_7">
    <path d="M 48.1875 252.952667 
L 272.0605 252.952667 
L 272.0605 140.687333 
L 48.1875 140.687333 
z
" style="fill: #ffffff"/>
   </g>
   <g id="PathCollection_2">
    <g clip-path="url(#pcc903c2df9)">
     <use xlink:href="#m5dfbbc663b" x="58.363545" y="163.142736" style="stroke: #000000"/>
     <use xlink:href="#m5dfbbc663b" x="61.755561" y="163.142736" style="stroke: #000000"/>
     <use xlink:href="#m5dfbbc663b" x="65.147576" y="163.142736" style="stroke: #000000"/>
     <use xlink:href="#m5dfbbc663b" x="68.539591" y="163.142736" style="stroke: #000000"/>
     <use xlink:href="#m5dfbbc663b" x="71.931606" y="163.142736" style="stroke: #000000"/>
     <use xlink:href="#m5dfbbc663b" x="75.323621" y="163.142736" style="stroke: #000000"/>
     <use xlink:href="#m5dfbbc663b" x="78.715636" y="163.142736" style="stroke: #000000"/>
     <use xlink:href="#m5dfbbc663b" x="82.107652" y="163.142736" style="stroke: #000000"/>
     <use xlink:href="#m5dfbbc663b" x="85.499667" y="163.142736" style="stroke: #000000"/>
     <use xlink:href="#m5dfbbc663b" x="88.891682" y="163.142736" style="stroke: #000000"/>
     <use xlink:href="#m5dfbbc663b" x="92.283697" y="163.142736" style="stroke: #000000"/>
     <use xlink:href="#m5dfbbc663b" x="95.675712" y="163.142736" style="stroke: #000000"/>
     <use xlink:href="#m5dfbbc663b" x="99.067727" y="163.142736" style="stroke: #000000"/>
     <use xlink:href="#m5dfbbc663b" x="102.459742" y="163.142736" style="stroke: #000000"/>
     <use xlink:href="#m5dfbbc663b" x="105.851758" y="163.142736" style="stroke: #000000"/>
     <use xlink:href="#m5dfbbc663b" x="109.243773" y="163.142736" style="stroke: #000000"/>
     <use xlink:href="#m5dfbbc663b" x="112.635788" y="163.142736" style="stroke: #000000"/>
     <use xlink:href="#m5dfbbc663b" x="116.027803" y="163.142736" style="stroke: #000000"/>
     <use xlink:href="#m5dfbbc663b" x="119.419818" y="163.142736" style="stroke: #000000"/>
     <use xlink:href="#m5dfbbc663b" x="122.811833" y="163.142736" style="stroke: #000000"/>
     <use xlink:href="#m5dfbbc663b" x="126.203848" y="163.142736" style="stroke: #000000"/>
     <use xlink:href="#m5dfbbc663b" x="129.595864" y="163.142736" style="stroke: #000000"/>
     <use xlink:href="#m5dfbbc663b" x="132.987879" y="163.142736" style="stroke: #000000"/>
     <use xlink:href="#m5dfbbc663b" x="136.379894" y="163.142736" style="stroke: #000000"/>
     <use xlink:href="#m5dfbbc663b" x="139.771909" y="163.142736" style="stroke: #000000"/>
     <use xlink:href="#m5dfbbc663b" x="143.163924" y="163.142736" style="stroke: #000000"/>
     <use xlink:href="#m5dfbbc663b" x="146.555939" y="163.142736" style="stroke: #000000"/>
     <use xlink:href="#m5dfbbc663b" x="149.947955" y="163.142736" style="stroke: #000000"/>
     <use xlink:href="#m5dfbbc663b" x="153.33997" y="163.142736" style="stroke: #000000"/>
     <use xlink:href="#m5dfbbc663b" x="156.731985" y="163.142736" style="stroke: #000000"/>
     <use xlink:href="#m5dfbbc663b" x="160.124" y="163.142736" style="stroke: #000000"/>
     <use xlink:href="#m5dfbbc663b" x="163.516015" y="163.142736" style="stroke: #000000"/>
     <use xlink:href="#m5dfbbc663b" x="166.90803" y="163.142736" style="stroke: #000000"/>
     <use xlink:href="#m5dfbbc663b" x="170.300045" y="163.142736" style="stroke: #000000"/>
     <use xlink:href="#m5dfbbc663b" x="173.692061" y="163.142736" style="stroke: #000000"/>
     <use xlink:href="#m5dfbbc663b" x="177.084076" y="163.142736" style="stroke: #000000"/>
     <use xlink:href="#m5dfbbc663b" x="180.476091" y="163.142736" style="stroke: #000000"/>
     <use xlink:href="#m5dfbbc663b" x="183.868106" y="163.142736" style="stroke: #000000"/>
     <use xlink:href="#m5dfbbc663b" x="187.260121" y="163.142736" style="stroke: #000000"/>
     <use xlink:href="#m5dfbbc663b" x="190.652136" y="163.142736" style="stroke: #000000"/>
     <use xlink:href="#m5dfbbc663b" x="194.044152" y="163.142736" style="stroke: #000000"/>
     <use xlink:href="#m5dfbbc663b" x="197.436167" y="163.142736" style="stroke: #000000"/>
     <use xlink:href="#m5dfbbc663b" x="200.828182" y="163.142736" style="stroke: #000000"/>
     <use xlink:href="#m5dfbbc663b" x="204.220197" y="163.142736" style="stroke: #000000"/>
     <use xlink:href="#m5dfbbc663b" x="207.612212" y="163.142736" style="stroke: #000000"/>
     <use xlink:href="#m5dfbbc663b" x="211.004227" y="163.142736" style="stroke: #000000"/>
     <use xlink:href="#m5dfbbc663b" x="214.396242" y="163.142736" style="stroke: #000000"/>
     <use xlink:href="#m5dfbbc663b" x="217.788258" y="163.142736" style="stroke: #000000"/>
     <use xlink:href="#m5dfbbc663b" x="221.180273" y="163.142736" style="stroke: #000000"/>
     <use xlink:href="#m5dfbbc663b" x="224.572288" y="163.142736" style="stroke: #000000"/>
     <use xlink:href="#m5dfbbc663b" x="227.964303" y="163.142736" style="stroke: #000000"/>
     <use xlink:href="#m5dfbbc663b" x="231.356318" y="163.142736" style="stroke: #000000"/>
     <use xlink:href="#m5dfbbc663b" x="234.748333" y="163.142736" style="stroke: #000000"/>
     <use xlink:href="#m5dfbbc663b" x="238.140348" y="163.142736" style="stroke: #000000"/>
     <use xlink:href="#m5dfbbc663b" x="241.532364" y="163.142736" style="stroke: #000000"/>
     <use xlink:href="#m5dfbbc663b" x="244.924379" y="163.142736" style="stroke: #000000"/>
     <use xlink:href="#m5dfbbc663b" x="248.316394" y="163.142736" style="stroke: #000000"/>
     <use xlink:href="#m5dfbbc663b" x="251.708409" y="163.142736" style="stroke: #000000"/>
     <use xlink:href="#m5dfbbc663b" x="255.100424" y="163.142736" style="stroke: #000000"/>
     <use xlink:href="#m5dfbbc663b" x="258.492439" y="163.142736" style="stroke: #000000"/>
     <use xlink:href="#m5dfbbc663b" x="261.884455" y="163.142736" style="stroke: #000000"/>
    </g>
   </g>
   <g id="matplotlib.axis_3">
    <g id="xtick_5">
     <g id="line2d_16">
      <g>
       <use xlink:href="#mf57c11e0bd" x="58.363545" y="252.952667" style="stroke: #000000; stroke-width: 0.8"/>
      </g>
     </g>
    </g>
    <g id="xtick_6">
     <g id="line2d_17">
      <g>
       <use xlink:href="#mf57c11e0bd" x="114.897131" y="252.952667" style="stroke: #000000; stroke-width: 0.8"/>
      </g>
     </g>
    </g>
    <g id="xtick_7">
     <g id="line2d_18">
      <g>
       <use xlink:href="#mf57c11e0bd" x="171.430717" y="252.952667" style="stroke: #000000; stroke-width: 0.8"/>
      </g>
     </g>
    </g>
    <g id="xtick_8">
     <g id="line2d_19">
      <g>
       <use xlink:href="#mf57c11e0bd" x="227.964303" y="252.952667" style="stroke: #000000; stroke-width: 0.8"/>
      </g>
     </g>
    </g>
   </g>
   <g id="matplotlib.axis_4">
    <g id="ytick_6">
     <g id="line2d_20">
      <g>
       <use xlink:href="#m3e56149726" x="48.1875" y="252.952667" style="stroke: #000000; stroke-width: 0.8"/>
      </g>
     </g>
     <g id="text_7">
      <!-- 0 -->
      <g transform="translate(34.825 256.751885) scale(0.1 -0.1)">
       <use xlink:href="#DejaVuSans-30"/>
      </g>
     </g>
    </g>
    <g id="ytick_7">
     <g id="line2d_21">
      <g>
       <use xlink:href="#m3e56149726" x="48.1875" y="230.4996" style="stroke: #000000; stroke-width: 0.8"/>
      </g>
     </g>
     <g id="text_8">
      <!-- 1 -->
      <g transform="translate(34.825 234.298819) scale(0.1 -0.1)">
       <use xlink:href="#DejaVuSans-31"/>
      </g>
     </g>
    </g>
    <g id="ytick_8">
     <g id="line2d_22">
      <g>
       <use xlink:href="#m3e56149726" x="48.1875" y="208.046533" style="stroke: #000000; stroke-width: 0.8"/>
      </g>
     </g>
     <g id="text_9">
      <!-- 2 -->
      <g transform="translate(34.825 211.845752) scale(0.1 -0.1)">
       <use xlink:href="#DejaVuSans-32"/>
      </g>
     </g>
    </g>
    <g id="ytick_9">
     <g id="line2d_23">
      <g>
       <use xlink:href="#m3e56149726" x="48.1875" y="185.593467" style="stroke: #000000; stroke-width: 0.8"/>
      </g>
     </g>
     <g id="text_10">
      <!-- 3 -->
      <g transform="translate(34.825 189.392685) scale(0.1 -0.1)">
       <use xlink:href="#DejaVuSans-33"/>
      </g>
     </g>
    </g>
    <g id="ytick_10">
     <g id="line2d_24">
      <g>
       <use xlink:href="#m3e56149726" x="48.1875" y="163.1404" style="stroke: #000000; stroke-width: 0.8"/>
      </g>
     </g>
     <g id="text_11">
      <!-- 4 -->
      <g transform="translate(34.825 166.939619) scale(0.1 -0.1)">
       <defs>
        <path id="DejaVuSans-34" d="M 2419 4116 
L 825 1625 
L 2419 1625 
L 2419 4116 
z
M 2253 4666 
L 3047 4666 
L 3047 1625 
L 3713 1625 
L 3713 1100 
L 3047 1100 
L 3047 0 
L 2419 0 
L 2419 1100 
L 313 1100 
L 313 1709 
L 2253 4666 
z
" transform="scale(0.015625)"/>
       </defs>
       <use xlink:href="#DejaVuSans-34"/>
      </g>
     </g>
    </g>
    <g id="ytick_11">
     <g id="line2d_25">
      <g>
       <use xlink:href="#m3e56149726" x="48.1875" y="140.687333" style="stroke: #000000; stroke-width: 0.8"/>
      </g>
     </g>
     <g id="text_12">
      <!-- 5 -->
      <g transform="translate(34.825 144.486552) scale(0.1 -0.1)">
       <use xlink:href="#DejaVuSans-35"/>
      </g>
     </g>
    </g>
    <g id="text_13">
     <!-- $M_1$ (# µg cm$^{-3}$) -->
     <g transform="translate(28.725 235.72) rotate(-90) scale(0.1 -0.1)">
      <defs>
       <path id="DejaVuSans-b5" d="M 544 -1331 
L 544 3500 
L 1119 3500 
L 1119 1325 
Q 1119 872 1334 640 
Q 1550 409 1972 409 
Q 2434 409 2667 671 
Q 2900 934 2900 1459 
L 2900 3500 
L 3475 3500 
L 3475 806 
Q 3475 619 3529 530 
Q 3584 441 3700 441 
Q 3728 441 3778 458 
Q 3828 475 3916 513 
L 3916 50 
Q 3788 -22 3673 -56 
Q 3559 -91 3450 -91 
Q 3234 -91 3106 31 
Q 2978 153 2931 403 
Q 2775 156 2548 32 
Q 2322 -91 2016 -91 
Q 1697 -91 1473 31 
Q 1250 153 1119 397 
L 1119 -1331 
L 544 -1331 
z
" transform="scale(0.015625)"/>
       <path id="DejaVuSans-67" d="M 2906 1791 
Q 2906 2416 2648 2759 
Q 2391 3103 1925 3103 
Q 1463 3103 1205 2759 
Q 947 2416 947 1791 
Q 947 1169 1205 825 
Q 1463 481 1925 481 
Q 2391 481 2648 825 
Q 2906 1169 2906 1791 
z
M 3481 434 
Q 3481 -459 3084 -895 
Q 2688 -1331 1869 -1331 
Q 1566 -1331 1297 -1286 
Q 1028 -1241 775 -1147 
L 775 -588 
Q 1028 -725 1275 -790 
Q 1522 -856 1778 -856 
Q 2344 -856 2625 -561 
Q 2906 -266 2906 331 
L 2906 616 
Q 2728 306 2450 153 
Q 2172 0 1784 0 
Q 1141 0 747 490 
Q 353 981 353 1791 
Q 353 2603 747 3093 
Q 1141 3584 1784 3584 
Q 2172 3584 2450 3431 
Q 2728 3278 2906 2969 
L 2906 3500 
L 3481 3500 
L 3481 434 
z
" transform="scale(0.015625)"/>
      </defs>
      <use xlink:href="#DejaVuSans-Oblique-4d" transform="translate(0 0.765625)"/>
      <use xlink:href="#DejaVuSans-31" transform="translate(86.279297 -15.640625) scale(0.7)"/>
      <use xlink:href="#DejaVuSans-20" transform="translate(133.549805 0.765625)"/>
      <use xlink:href="#DejaVuSans-28" transform="translate(165.336914 0.765625)"/>
      <use xlink:href="#DejaVuSans-23" transform="translate(204.350586 0.765625)"/>
      <use xlink:href="#DejaVuSans-20" transform="translate(288.139648 0.765625)"/>
      <use xlink:href="#DejaVuSans-b5" transform="translate(319.926758 0.765625)"/>
      <use xlink:href="#DejaVuSans-67" transform="translate(383.549805 0.765625)"/>
      <use xlink:href="#DejaVuSans-20" transform="translate(447.026367 0.765625)"/>
      <use xlink:href="#DejaVuSans-63" transform="translate(478.813477 0.765625)"/>
      <use xlink:href="#DejaVuSans-6d" transform="translate(533.793945 0.765625)"/>
      <use xlink:href="#DejaVuSans-2212" transform="translate(632.163086 39.046875) scale(0.7)"/>
      <use xlink:href="#DejaVuSans-33" transform="translate(690.81543 39.046875) scale(0.7)"/>
      <use xlink:href="#DejaVuSans-29" transform="translate(738.085938 0.765625)"/>
     </g>
    </g>
   </g>
   <g id="line2d_26">
    <path d="M 58.363545 163.1404 
L 261.884455 163.1404 
L 261.884455 163.1404 
" clip-path="url(#pcc903c2df9)" style="fill: none; stroke: #ff0000; stroke-opacity: 0.8; stroke-linecap: square"/>
   </g>
   <g id="line2d_27">
    <path d="M 58.363545 163.1404 
L 261.884455 163.1404 
L 261.884455 163.1404 
" clip-path="url(#pcc903c2df9)" style="fill: none; stroke-dasharray: 9.6,2.4,1.5,2.4; stroke-dashoffset: 0; stroke: #800080; stroke-opacity: 0.8; stroke-width: 1.5"/>
   </g>
   <g id="line2d_28">
    <path d="M 58.363545 163.1404 
L 69.670263 163.55422 
L 79.846308 164.154236 
L 88.891682 164.919624 
L 96.806384 165.803769 
L 104.721086 166.916678 
L 112.635788 168.282955 
L 119.419818 169.671662 
L 126.203848 171.272361 
L 132.987879 173.092459 
L 139.771909 175.13585 
L 146.555939 177.402421 
L 153.33997 179.887579 
L 161.254672 183.05028 
L 169.169374 186.473515 
L 178.214747 190.661514 
L 188.390793 195.647052 
L 203.089525 203.142408 
L 222.310944 212.915081 
L 232.48699 217.834188 
L 241.532364 221.958101 
L 249.447066 225.334866 
L 257.361768 228.472307 
L 261.884455 230.152458 
L 261.884455 230.152458 
" clip-path="url(#pcc903c2df9)" style="fill: none; stroke-dasharray: 3.7,1.6; stroke-dashoffset: 0; stroke: #800080"/>
   </g>
   <g id="line2d_29">
    <path d="M 58.363545 252.952667 
L 69.670263 252.538846 
L 79.846308 251.938831 
L 88.891682 251.173443 
L 96.806384 250.289298 
L 104.721086 249.176389 
L 112.635788 247.810111 
L 119.419818 246.421405 
L 126.203848 244.820705 
L 132.987879 243.000608 
L 139.771909 240.957217 
L 146.555939 238.690646 
L 153.33997 236.205488 
L 161.254672 233.042787 
L 169.169374 229.619551 
L 178.214747 225.431553 
L 188.390793 220.446015 
L 203.089525 212.950659 
L 222.310944 203.177985 
L 232.48699 198.258879 
L 241.532364 194.134966 
L 249.447066 190.758201 
L 257.361768 187.62076 
L 261.884455 185.940609 
L 261.884455 185.940609 
" clip-path="url(#pcc903c2df9)" style="fill: none; stroke-dasharray: 3.7,1.6; stroke-dashoffset: 0; stroke: #800080"/>
   </g>
   <g id="line2d_30">
    <path d="M 58.363545 163.1404 
L 261.884455 163.1404 
L 261.884455 163.1404 
" clip-path="url(#pcc903c2df9)" style="fill: none; stroke-dasharray: 7.4,3.2; stroke-dashoffset: 0; stroke: #0000ff; stroke-opacity: 0.8; stroke-width: 2"/>
   </g>
   <g id="line2d_31">
    <path d="M 58.363545 163.1404 
L 261.884455 163.1404 
L 261.884455 163.1404 
" clip-path="url(#pcc903c2df9)" style="fill: none; stroke-dasharray: 2.5,4.125; stroke-dashoffset: 0; stroke: #008000; stroke-opacity: 0.8; stroke-width: 2.5"/>
   </g>
   <g id="patch_8">
    <path d="M 48.1875 252.952667 
L 48.1875 140.687333 
" style="fill: none; stroke: #000000; stroke-width: 0.8; stroke-linejoin: miter; stroke-linecap: square"/>
   </g>
   <g id="patch_9">
    <path d="M 272.0605 252.952667 
L 272.0605 140.687333 
" style="fill: none; stroke: #000000; stroke-width: 0.8; stroke-linejoin: miter; stroke-linecap: square"/>
   </g>
   <g id="patch_10">
    <path d="M 48.1875 252.952667 
L 272.0605 252.952667 
" style="fill: none; stroke: #000000; stroke-width: 0.8; stroke-linejoin: miter; stroke-linecap: square"/>
   </g>
   <g id="patch_11">
    <path d="M 48.1875 140.687333 
L 272.0605 140.687333 
" style="fill: none; stroke: #000000; stroke-width: 0.8; stroke-linejoin: miter; stroke-linecap: square"/>
   </g>
   <g id="legend_1">
    <g id="patch_12">
     <path d="M 55.1875 220.337187 
L 221.409375 220.337187 
Q 223.409375 220.337187 223.409375 218.337187 
L 223.409375 175.302812 
Q 223.409375 173.302812 221.409375 173.302812 
L 55.1875 173.302812 
Q 53.1875 173.302812 53.1875 175.302812 
L 53.1875 218.337187 
Q 53.1875 220.337187 55.1875 220.337187 
z
" style="fill: #ffffff; opacity: 0.8; stroke: #cccccc; stroke-linejoin: miter"/>
    </g>
    <g id="line2d_32">
     <path d="M 57.1875 181.40125 
L 67.1875 181.40125 
L 77.1875 181.40125 
" style="fill: none; stroke: #ff0000; stroke-opacity: 0.8; stroke-linecap: square"/>
    </g>
    <g id="text_14">
     <!-- 1 modes -->
     <g transform="translate(85.1875 184.90125) scale(0.1 -0.1)">
      <defs>
       <path id="DejaVuSans-6f" d="M 1959 3097 
Q 1497 3097 1228 2736 
Q 959 2375 959 1747 
Q 959 1119 1226 758 
Q 1494 397 1959 397 
Q 2419 397 2687 759 
Q 2956 1122 2956 1747 
Q 2956 2369 2687 2733 
Q 2419 3097 1959 3097 
z
M 1959 3584 
Q 2709 3584 3137 3096 
Q 3566 2609 3566 1747 
Q 3566 888 3137 398 
Q 2709 -91 1959 -91 
Q 1206 -91 779 398 
Q 353 888 353 1747 
Q 353 2609 779 3096 
Q 1206 3584 1959 3584 
z
" transform="scale(0.015625)"/>
       <path id="DejaVuSans-64" d="M 2906 2969 
L 2906 4863 
L 3481 4863 
L 3481 0 
L 2906 0 
L 2906 525 
Q 2725 213 2448 61 
Q 2172 -91 1784 -91 
Q 1150 -91 751 415 
Q 353 922 353 1747 
Q 353 2572 751 3078 
Q 1150 3584 1784 3584 
Q 2172 3584 2448 3432 
Q 2725 3281 2906 2969 
z
M 947 1747 
Q 947 1113 1208 752 
Q 1469 391 1925 391 
Q 2381 391 2643 752 
Q 2906 1113 2906 1747 
Q 2906 2381 2643 2742 
Q 2381 3103 1925 3103 
Q 1469 3103 1208 2742 
Q 947 2381 947 1747 
z
" transform="scale(0.015625)"/>
       <path id="DejaVuSans-65" d="M 3597 1894 
L 3597 1613 
L 953 1613 
Q 991 1019 1311 708 
Q 1631 397 2203 397 
Q 2534 397 2845 478 
Q 3156 559 3463 722 
L 3463 178 
Q 3153 47 2828 -22 
Q 2503 -91 2169 -91 
Q 1331 -91 842 396 
Q 353 884 353 1716 
Q 353 2575 817 3079 
Q 1281 3584 2069 3584 
Q 2775 3584 3186 3129 
Q 3597 2675 3597 1894 
z
M 3022 2063 
Q 3016 2534 2758 2815 
Q 2500 3097 2075 3097 
Q 1594 3097 1305 2825 
Q 1016 2553 972 2059 
L 3022 2063 
z
" transform="scale(0.015625)"/>
       <path id="DejaVuSans-73" d="M 2834 3397 
L 2834 2853 
Q 2591 2978 2328 3040 
Q 2066 3103 1784 3103 
Q 1356 3103 1142 2972 
Q 928 2841 928 2578 
Q 928 2378 1081 2264 
Q 1234 2150 1697 2047 
L 1894 2003 
Q 2506 1872 2764 1633 
Q 3022 1394 3022 966 
Q 3022 478 2636 193 
Q 2250 -91 1575 -91 
Q 1294 -91 989 -36 
Q 684 19 347 128 
L 347 722 
Q 666 556 975 473 
Q 1284 391 1588 391 
Q 1994 391 2212 530 
Q 2431 669 2431 922 
Q 2431 1156 2273 1281 
Q 2116 1406 1581 1522 
L 1381 1569 
Q 847 1681 609 1914 
Q 372 2147 372 2553 
Q 372 3047 722 3315 
Q 1072 3584 1716 3584 
Q 2034 3584 2315 3537 
Q 2597 3491 2834 3397 
z
" transform="scale(0.015625)"/>
      </defs>
      <use xlink:href="#DejaVuSans-31"/>
      <use xlink:href="#DejaVuSans-20" transform="translate(63.623047 0)"/>
      <use xlink:href="#DejaVuSans-6d" transform="translate(95.410156 0)"/>
      <use xlink:href="#DejaVuSans-6f" transform="translate(192.822266 0)"/>
      <use xlink:href="#DejaVuSans-64" transform="translate(254.003906 0)"/>
      <use xlink:href="#DejaVuSans-65" transform="translate(317.480469 0)"/>
      <use xlink:href="#DejaVuSans-73" transform="translate(379.003906 0)"/>
     </g>
    </g>
    <g id="line2d_33">
     <path d="M 57.1875 196.079375 
L 67.1875 196.079375 
L 77.1875 196.079375 
" style="fill: none; stroke-dasharray: 9.6,2.4,1.5,2.4; stroke-dashoffset: 0; stroke: #800080; stroke-opacity: 0.8; stroke-width: 1.5"/>
    </g>
    <g id="text_15">
     <!-- 2 modes -->
     <g transform="translate(85.1875 199.579375) scale(0.1 -0.1)">
      <use xlink:href="#DejaVuSans-32"/>
      <use xlink:href="#DejaVuSans-20" transform="translate(63.623047 0)"/>
      <use xlink:href="#DejaVuSans-6d" transform="translate(95.410156 0)"/>
      <use xlink:href="#DejaVuSans-6f" transform="translate(192.822266 0)"/>
      <use xlink:href="#DejaVuSans-64" transform="translate(254.003906 0)"/>
      <use xlink:href="#DejaVuSans-65" transform="translate(317.480469 0)"/>
      <use xlink:href="#DejaVuSans-73" transform="translate(379.003906 0)"/>
     </g>
    </g>
    <g id="line2d_34">
     <path d="M 57.1875 210.7575 
L 67.1875 210.7575 
L 77.1875 210.7575 
" style="fill: none; stroke-dasharray: 3.7,1.6; stroke-dashoffset: 0; stroke: #800080"/>
    </g>
    <g id="text_16">
     <!--   mode i -->
     <g transform="translate(85.1875 214.2575) scale(0.1 -0.1)">
      <defs>
       <path id="DejaVuSans-69" d="M 603 3500 
L 1178 3500 
L 1178 0 
L 603 0 
L 603 3500 
z
M 603 4863 
L 1178 4863 
L 1178 4134 
L 603 4134 
L 603 4863 
z
" transform="scale(0.015625)"/>
      </defs>
      <use xlink:href="#DejaVuSans-20"/>
      <use xlink:href="#DejaVuSans-20" transform="translate(31.787109 0)"/>
      <use xlink:href="#DejaVuSans-6d" transform="translate(63.574219 0)"/>
      <use xlink:href="#DejaVuSans-6f" transform="translate(160.986328 0)"/>
      <use xlink:href="#DejaVuSans-64" transform="translate(222.167969 0)"/>
      <use xlink:href="#DejaVuSans-65" transform="translate(285.644531 0)"/>
      <use xlink:href="#DejaVuSans-20" transform="translate(347.167969 0)"/>
      <use xlink:href="#DejaVuSans-69" transform="translate(378.955078 0)"/>
     </g>
    </g>
    <g id="line2d_35">
     <path d="M 148.298438 181.40125 
L 158.298438 181.40125 
L 168.298438 181.40125 
" style="fill: none; stroke-dasharray: 7.4,3.2; stroke-dashoffset: 0; stroke: #0000ff; stroke-opacity: 0.8; stroke-width: 2"/>
    </g>
    <g id="text_17">
     <!-- 3 modes -->
     <g transform="translate(176.298438 184.90125) scale(0.1 -0.1)">
      <use xlink:href="#DejaVuSans-33"/>
      <use xlink:href="#DejaVuSans-20" transform="translate(63.623047 0)"/>
      <use xlink:href="#DejaVuSans-6d" transform="translate(95.410156 0)"/>
      <use xlink:href="#DejaVuSans-6f" transform="translate(192.822266 0)"/>
      <use xlink:href="#DejaVuSans-64" transform="translate(254.003906 0)"/>
      <use xlink:href="#DejaVuSans-65" transform="translate(317.480469 0)"/>
      <use xlink:href="#DejaVuSans-73" transform="translate(379.003906 0)"/>
     </g>
    </g>
    <g id="line2d_36">
     <path d="M 148.298438 196.079375 
L 158.298438 196.079375 
L 168.298438 196.079375 
" style="fill: none; stroke-dasharray: 2.5,4.125; stroke-dashoffset: 0; stroke: #008000; stroke-opacity: 0.8; stroke-width: 2.5"/>
    </g>
    <g id="text_18">
     <!-- 8 modes -->
     <g transform="translate(176.298438 199.579375) scale(0.1 -0.1)">
      <defs>
       <path id="DejaVuSans-38" d="M 2034 2216 
Q 1584 2216 1326 1975 
Q 1069 1734 1069 1313 
Q 1069 891 1326 650 
Q 1584 409 2034 409 
Q 2484 409 2743 651 
Q 3003 894 3003 1313 
Q 3003 1734 2745 1975 
Q 2488 2216 2034 2216 
z
M 1403 2484 
Q 997 2584 770 2862 
Q 544 3141 544 3541 
Q 544 4100 942 4425 
Q 1341 4750 2034 4750 
Q 2731 4750 3128 4425 
Q 3525 4100 3525 3541 
Q 3525 3141 3298 2862 
Q 3072 2584 2669 2484 
Q 3125 2378 3379 2068 
Q 3634 1759 3634 1313 
Q 3634 634 3220 271 
Q 2806 -91 2034 -91 
Q 1263 -91 848 271 
Q 434 634 434 1313 
Q 434 1759 690 2068 
Q 947 2378 1403 2484 
z
M 1172 3481 
Q 1172 3119 1398 2916 
Q 1625 2713 2034 2713 
Q 2441 2713 2670 2916 
Q 2900 3119 2900 3481 
Q 2900 3844 2670 4047 
Q 2441 4250 2034 4250 
Q 1625 4250 1398 4047 
Q 1172 3844 1172 3481 
z
" transform="scale(0.015625)"/>
      </defs>
      <use xlink:href="#DejaVuSans-38"/>
      <use xlink:href="#DejaVuSans-20" transform="translate(63.623047 0)"/>
      <use xlink:href="#DejaVuSans-6d" transform="translate(95.410156 0)"/>
      <use xlink:href="#DejaVuSans-6f" transform="translate(192.822266 0)"/>
      <use xlink:href="#DejaVuSans-64" transform="translate(254.003906 0)"/>
      <use xlink:href="#DejaVuSans-65" transform="translate(317.480469 0)"/>
      <use xlink:href="#DejaVuSans-73" transform="translate(379.003906 0)"/>
     </g>
    </g>
    <g id="PathCollection_3">
     <g>
      <use xlink:href="#m5dfbbc663b" x="158.298438" y="211.6325" style="stroke: #000000"/>
     </g>
    </g>
    <g id="text_19">
     <!-- PySDM -->
     <g transform="translate(176.298438 214.2575) scale(0.1 -0.1)">
      <defs>
       <path id="DejaVuSans-50" d="M 1259 4147 
L 1259 2394 
L 2053 2394 
Q 2494 2394 2734 2622 
Q 2975 2850 2975 3272 
Q 2975 3691 2734 3919 
Q 2494 4147 2053 4147 
L 1259 4147 
z
M 628 4666 
L 2053 4666 
Q 2838 4666 3239 4311 
Q 3641 3956 3641 3272 
Q 3641 2581 3239 2228 
Q 2838 1875 2053 1875 
L 1259 1875 
L 1259 0 
L 628 0 
L 628 4666 
z
" transform="scale(0.015625)"/>
       <path id="DejaVuSans-79" d="M 2059 -325 
Q 1816 -950 1584 -1140 
Q 1353 -1331 966 -1331 
L 506 -1331 
L 506 -850 
L 844 -850 
Q 1081 -850 1212 -737 
Q 1344 -625 1503 -206 
L 1606 56 
L 191 3500 
L 800 3500 
L 1894 763 
L 2988 3500 
L 3597 3500 
L 2059 -325 
z
" transform="scale(0.015625)"/>
       <path id="DejaVuSans-53" d="M 3425 4513 
L 3425 3897 
Q 3066 4069 2747 4153 
Q 2428 4238 2131 4238 
Q 1616 4238 1336 4038 
Q 1056 3838 1056 3469 
Q 1056 3159 1242 3001 
Q 1428 2844 1947 2747 
L 2328 2669 
Q 3034 2534 3370 2195 
Q 3706 1856 3706 1288 
Q 3706 609 3251 259 
Q 2797 -91 1919 -91 
Q 1588 -91 1214 -16 
Q 841 59 441 206 
L 441 856 
Q 825 641 1194 531 
Q 1563 422 1919 422 
Q 2459 422 2753 634 
Q 3047 847 3047 1241 
Q 3047 1584 2836 1778 
Q 2625 1972 2144 2069 
L 1759 2144 
Q 1053 2284 737 2584 
Q 422 2884 422 3419 
Q 422 4038 858 4394 
Q 1294 4750 2059 4750 
Q 2388 4750 2728 4690 
Q 3069 4631 3425 4513 
z
" transform="scale(0.015625)"/>
       <path id="DejaVuSans-44" d="M 1259 4147 
L 1259 519 
L 2022 519 
Q 2988 519 3436 956 
Q 3884 1394 3884 2338 
Q 3884 3275 3436 3711 
Q 2988 4147 2022 4147 
L 1259 4147 
z
M 628 4666 
L 1925 4666 
Q 3281 4666 3915 4102 
Q 4550 3538 4550 2338 
Q 4550 1131 3912 565 
Q 3275 0 1925 0 
L 628 0 
L 628 4666 
z
" transform="scale(0.015625)"/>
       <path id="DejaVuSans-4d" d="M 628 4666 
L 1569 4666 
L 2759 1491 
L 3956 4666 
L 4897 4666 
L 4897 0 
L 4281 0 
L 4281 4097 
L 3078 897 
L 2444 897 
L 1241 4097 
L 1241 0 
L 628 0 
L 628 4666 
z
" transform="scale(0.015625)"/>
      </defs>
      <use xlink:href="#DejaVuSans-50"/>
      <use xlink:href="#DejaVuSans-79" transform="translate(60.302734 0)"/>
      <use xlink:href="#DejaVuSans-53" transform="translate(119.482422 0)"/>
      <use xlink:href="#DejaVuSans-44" transform="translate(182.958984 0)"/>
      <use xlink:href="#DejaVuSans-4d" transform="translate(259.960938 0)"/>
     </g>
    </g>
   </g>
  </g>
  <g id="axes_3">
   <g id="patch_13">
    <path d="M 48.1875 386.44 
L 272.0605 386.44 
L 272.0605 274.174667 
L 48.1875 274.174667 
z
" style="fill: #ffffff"/>
   </g>
   <g id="PathCollection_4">
    <g clip-path="url(#pb8346fb6fd)">
     <use xlink:href="#m5dfbbc663b" x="58.363545" y="385.556365" style="stroke: #000000"/>
     <use xlink:href="#m5dfbbc663b" x="61.755561" y="385.165668" style="stroke: #000000"/>
     <use xlink:href="#m5dfbbc663b" x="65.147576" y="384.745684" style="stroke: #000000"/>
     <use xlink:href="#m5dfbbc663b" x="68.539591" y="384.335365" style="stroke: #000000"/>
     <use xlink:href="#m5dfbbc663b" x="71.931606" y="383.89645" style="stroke: #000000"/>
     <use xlink:href="#m5dfbbc663b" x="75.323621" y="383.388581" style="stroke: #000000"/>
     <use xlink:href="#m5dfbbc663b" x="78.715636" y="382.85605" style="stroke: #000000"/>
     <use xlink:href="#m5dfbbc663b" x="82.107652" y="382.264886" style="stroke: #000000"/>
     <use xlink:href="#m5dfbbc663b" x="85.499667" y="381.657711" style="stroke: #000000"/>
     <use xlink:href="#m5dfbbc663b" x="88.891682" y="380.948487" style="stroke: #000000"/>
     <use xlink:href="#m5dfbbc663b" x="92.283697" y="380.190011" style="stroke: #000000"/>
     <use xlink:href="#m5dfbbc663b" x="95.675712" y="379.385495" style="stroke: #000000"/>
     <use xlink:href="#m5dfbbc663b" x="99.067727" y="378.495123" style="stroke: #000000"/>
     <use xlink:href="#m5dfbbc663b" x="102.459742" y="377.560741" style="stroke: #000000"/>
     <use xlink:href="#m5dfbbc663b" x="105.851758" y="376.47419" style="stroke: #000000"/>
     <use xlink:href="#m5dfbbc663b" x="109.243773" y="375.402141" style="stroke: #000000"/>
     <use xlink:href="#m5dfbbc663b" x="112.635788" y="374.261747" style="stroke: #000000"/>
     <use xlink:href="#m5dfbbc663b" x="116.027803" y="373.011366" style="stroke: #000000"/>
     <use xlink:href="#m5dfbbc663b" x="119.419818" y="371.69824" style="stroke: #000000"/>
     <use xlink:href="#m5dfbbc663b" x="122.811833" y="370.396484" style="stroke: #000000"/>
     <use xlink:href="#m5dfbbc663b" x="126.203848" y="368.902718" style="stroke: #000000"/>
     <use xlink:href="#m5dfbbc663b" x="129.595864" y="367.431936" style="stroke: #000000"/>
     <use xlink:href="#m5dfbbc663b" x="132.987879" y="365.908076" style="stroke: #000000"/>
     <use xlink:href="#m5dfbbc663b" x="136.379894" y="364.356534" style="stroke: #000000"/>
     <use xlink:href="#m5dfbbc663b" x="139.771909" y="362.758239" style="stroke: #000000"/>
     <use xlink:href="#m5dfbbc663b" x="143.163924" y="361.098235" style="stroke: #000000"/>
     <use xlink:href="#m5dfbbc663b" x="146.555939" y="359.40912" style="stroke: #000000"/>
     <use xlink:href="#m5dfbbc663b" x="149.947955" y="357.704251" style="stroke: #000000"/>
     <use xlink:href="#m5dfbbc663b" x="153.33997" y="355.972066" style="stroke: #000000"/>
     <use xlink:href="#m5dfbbc663b" x="156.731985" y="354.251394" style="stroke: #000000"/>
     <use xlink:href="#m5dfbbc663b" x="160.124" y="352.435641" style="stroke: #000000"/>
     <use xlink:href="#m5dfbbc663b" x="163.516015" y="350.473802" style="stroke: #000000"/>
     <use xlink:href="#m5dfbbc663b" x="166.90803" y="348.576958" style="stroke: #000000"/>
     <use xlink:href="#m5dfbbc663b" x="170.300045" y="346.861474" style="stroke: #000000"/>
     <use xlink:href="#m5dfbbc663b" x="173.692061" y="344.938825" style="stroke: #000000"/>
     <use xlink:href="#m5dfbbc663b" x="177.084076" y="343.028025" style="stroke: #000000"/>
     <use xlink:href="#m5dfbbc663b" x="180.476091" y="341.101885" style="stroke: #000000"/>
     <use xlink:href="#m5dfbbc663b" x="183.868106" y="339.271588" style="stroke: #000000"/>
     <use xlink:href="#m5dfbbc663b" x="187.260121" y="337.36235" style="stroke: #000000"/>
     <use xlink:href="#m5dfbbc663b" x="190.652136" y="335.504614" style="stroke: #000000"/>
     <use xlink:href="#m5dfbbc663b" x="194.044152" y="333.523796" style="stroke: #000000"/>
     <use xlink:href="#m5dfbbc663b" x="197.436167" y="331.546703" style="stroke: #000000"/>
     <use xlink:href="#m5dfbbc663b" x="200.828182" y="329.602744" style="stroke: #000000"/>
     <use xlink:href="#m5dfbbc663b" x="204.220197" y="327.632103" style="stroke: #000000"/>
     <use xlink:href="#m5dfbbc663b" x="207.612212" y="325.887556" style="stroke: #000000"/>
     <use xlink:href="#m5dfbbc663b" x="211.004227" y="323.923691" style="stroke: #000000"/>
     <use xlink:href="#m5dfbbc663b" x="214.396242" y="321.923111" style="stroke: #000000"/>
     <use xlink:href="#m5dfbbc663b" x="217.788258" y="319.895503" style="stroke: #000000"/>
     <use xlink:href="#m5dfbbc663b" x="221.180273" y="317.984518" style="stroke: #000000"/>
     <use xlink:href="#m5dfbbc663b" x="224.572288" y="316.056118" style="stroke: #000000"/>
     <use xlink:href="#m5dfbbc663b" x="227.964303" y="314.239016" style="stroke: #000000"/>
     <use xlink:href="#m5dfbbc663b" x="231.356318" y="312.28606" style="stroke: #000000"/>
     <use xlink:href="#m5dfbbc663b" x="234.748333" y="310.329659" style="stroke: #000000"/>
     <use xlink:href="#m5dfbbc663b" x="238.140348" y="308.261101" style="stroke: #000000"/>
     <use xlink:href="#m5dfbbc663b" x="241.532364" y="306.391579" style="stroke: #000000"/>
     <use xlink:href="#m5dfbbc663b" x="244.924379" y="304.616426" style="stroke: #000000"/>
     <use xlink:href="#m5dfbbc663b" x="248.316394" y="302.704135" style="stroke: #000000"/>
     <use xlink:href="#m5dfbbc663b" x="251.708409" y="300.768161" style="stroke: #000000"/>
     <use xlink:href="#m5dfbbc663b" x="255.100424" y="298.972684" style="stroke: #000000"/>
     <use xlink:href="#m5dfbbc663b" x="258.492439" y="296.953044" style="stroke: #000000"/>
     <use xlink:href="#m5dfbbc663b" x="261.884455" y="294.997853" style="stroke: #000000"/>
    </g>
   </g>
   <g id="matplotlib.axis_5">
    <g id="xtick_9">
     <g id="line2d_37">
      <g>
       <use xlink:href="#mf57c11e0bd" x="58.363545" y="386.44" style="stroke: #000000; stroke-width: 0.8"/>
      </g>
     </g>
     <g id="text_20">
      <!-- 0 -->
      <g transform="translate(55.182295 401.038437) scale(0.1 -0.1)">
       <use xlink:href="#DejaVuSans-30"/>
      </g>
     </g>
    </g>
    <g id="xtick_10">
     <g id="line2d_38">
      <g>
       <use xlink:href="#mf57c11e0bd" x="114.897131" y="386.44" style="stroke: #000000; stroke-width: 0.8"/>
      </g>
     </g>
     <g id="text_21">
      <!-- 50 -->
      <g transform="translate(108.534631 401.038437) scale(0.1 -0.1)">
       <use xlink:href="#DejaVuSans-35"/>
       <use xlink:href="#DejaVuSans-30" transform="translate(63.623047 0)"/>
      </g>
     </g>
    </g>
    <g id="xtick_11">
     <g id="line2d_39">
      <g>
       <use xlink:href="#mf57c11e0bd" x="171.430717" y="386.44" style="stroke: #000000; stroke-width: 0.8"/>
      </g>
     </g>
     <g id="text_22">
      <!-- 100 -->
      <g transform="translate(161.886967 401.038437) scale(0.1 -0.1)">
       <use xlink:href="#DejaVuSans-31"/>
       <use xlink:href="#DejaVuSans-30" transform="translate(63.623047 0)"/>
       <use xlink:href="#DejaVuSans-30" transform="translate(127.246094 0)"/>
      </g>
     </g>
    </g>
    <g id="xtick_12">
     <g id="line2d_40">
      <g>
       <use xlink:href="#mf57c11e0bd" x="227.964303" y="386.44" style="stroke: #000000; stroke-width: 0.8"/>
      </g>
     </g>
     <g id="text_23">
      <!-- 150 -->
      <g transform="translate(218.420553 401.038437) scale(0.1 -0.1)">
       <use xlink:href="#DejaVuSans-31"/>
       <use xlink:href="#DejaVuSans-35" transform="translate(63.623047 0)"/>
       <use xlink:href="#DejaVuSans-30" transform="translate(127.246094 0)"/>
      </g>
     </g>
    </g>
    <g id="text_24">
     <!-- time (s) -->
     <g transform="translate(140.732594 414.716562) scale(0.1 -0.1)">
      <defs>
       <path id="DejaVuSans-74" d="M 1172 4494 
L 1172 3500 
L 2356 3500 
L 2356 3053 
L 1172 3053 
L 1172 1153 
Q 1172 725 1289 603 
Q 1406 481 1766 481 
L 2356 481 
L 2356 0 
L 1766 0 
Q 1100 0 847 248 
Q 594 497 594 1153 
L 594 3053 
L 172 3053 
L 172 3500 
L 594 3500 
L 594 4494 
L 1172 4494 
z
" transform="scale(0.015625)"/>
      </defs>
      <use xlink:href="#DejaVuSans-74"/>
      <use xlink:href="#DejaVuSans-69" transform="translate(39.208984 0)"/>
      <use xlink:href="#DejaVuSans-6d" transform="translate(66.992188 0)"/>
      <use xlink:href="#DejaVuSans-65" transform="translate(164.404297 0)"/>
      <use xlink:href="#DejaVuSans-20" transform="translate(225.927734 0)"/>
      <use xlink:href="#DejaVuSans-28" transform="translate(257.714844 0)"/>
      <use xlink:href="#DejaVuSans-73" transform="translate(296.728516 0)"/>
      <use xlink:href="#DejaVuSans-29" transform="translate(348.828125 0)"/>
     </g>
    </g>
   </g>
   <g id="matplotlib.axis_6">
    <g id="ytick_12">
     <g id="line2d_41">
      <g>
       <use xlink:href="#m3e56149726" x="48.1875" y="369.777162" style="stroke: #000000; stroke-width: 0.8"/>
      </g>
     </g>
     <g id="text_25">
      <!-- $\mathdefault{10^{0}}$ -->
      <g transform="translate(23.5875 373.576381) scale(0.1 -0.1)">
       <use xlink:href="#DejaVuSans-31" transform="translate(0 0.765625)"/>
       <use xlink:href="#DejaVuSans-30" transform="translate(63.623047 0.765625)"/>
       <use xlink:href="#DejaVuSans-30" transform="translate(128.203125 39.046875) scale(0.7)"/>
      </g>
     </g>
    </g>
    <g id="ytick_13">
     <g id="line2d_42">
      <g>
       <use xlink:href="#m3e56149726" x="48.1875" y="337.909664" style="stroke: #000000; stroke-width: 0.8"/>
      </g>
     </g>
     <g id="text_26">
      <!-- $\mathdefault{10^{1}}$ -->
      <g transform="translate(23.5875 341.708883) scale(0.1 -0.1)">
       <use xlink:href="#DejaVuSans-31" transform="translate(0 0.684375)"/>
       <use xlink:href="#DejaVuSans-30" transform="translate(63.623047 0.684375)"/>
       <use xlink:href="#DejaVuSans-31" transform="translate(128.203125 38.965625) scale(0.7)"/>
      </g>
     </g>
    </g>
    <g id="ytick_14">
     <g id="line2d_43">
      <g>
       <use xlink:href="#m3e56149726" x="48.1875" y="306.042165" style="stroke: #000000; stroke-width: 0.8"/>
      </g>
     </g>
     <g id="text_27">
      <!-- $\mathdefault{10^{2}}$ -->
      <g transform="translate(23.5875 309.841384) scale(0.1 -0.1)">
       <use xlink:href="#DejaVuSans-31" transform="translate(0 0.765625)"/>
       <use xlink:href="#DejaVuSans-30" transform="translate(63.623047 0.765625)"/>
       <use xlink:href="#DejaVuSans-32" transform="translate(128.203125 39.046875) scale(0.7)"/>
      </g>
     </g>
    </g>
    <g id="ytick_15">
     <g id="line2d_44">
      <g>
       <use xlink:href="#m3e56149726" x="48.1875" y="274.174667" style="stroke: #000000; stroke-width: 0.8"/>
      </g>
     </g>
     <g id="text_28">
      <!-- $\mathdefault{10^{3}}$ -->
      <g transform="translate(23.5875 277.973885) scale(0.1 -0.1)">
       <use xlink:href="#DejaVuSans-31" transform="translate(0 0.765625)"/>
       <use xlink:href="#DejaVuSans-30" transform="translate(63.623047 0.765625)"/>
       <use xlink:href="#DejaVuSans-33" transform="translate(128.203125 39.046875) scale(0.7)"/>
      </g>
     </g>
    </g>
    <g id="ytick_16">
     <g id="line2d_45">
      <defs>
       <path id="m66f7f7481e" d="M 0 0 
L -2 0 
" style="stroke: #000000; stroke-width: 0.6"/>
      </defs>
      <g>
       <use xlink:href="#m66f7f7481e" x="48.1875" y="386.44" style="stroke: #000000; stroke-width: 0.6"/>
      </g>
     </g>
    </g>
    <g id="ytick_17">
     <g id="line2d_46">
      <g>
       <use xlink:href="#m66f7f7481e" x="48.1875" y="382.458515" style="stroke: #000000; stroke-width: 0.6"/>
      </g>
     </g>
    </g>
    <g id="ytick_18">
     <g id="line2d_47">
      <g>
       <use xlink:href="#m66f7f7481e" x="48.1875" y="379.370235" style="stroke: #000000; stroke-width: 0.6"/>
      </g>
     </g>
    </g>
    <g id="ytick_19">
     <g id="line2d_48">
      <g>
       <use xlink:href="#m66f7f7481e" x="48.1875" y="376.846927" style="stroke: #000000; stroke-width: 0.6"/>
      </g>
     </g>
    </g>
    <g id="ytick_20">
     <g id="line2d_49">
      <g>
       <use xlink:href="#m66f7f7481e" x="48.1875" y="374.7135" style="stroke: #000000; stroke-width: 0.6"/>
      </g>
     </g>
    </g>
    <g id="ytick_21">
     <g id="line2d_50">
      <g>
       <use xlink:href="#m66f7f7481e" x="48.1875" y="372.865442" style="stroke: #000000; stroke-width: 0.6"/>
      </g>
     </g>
    </g>
    <g id="ytick_22">
     <g id="line2d_51">
      <g>
       <use xlink:href="#m66f7f7481e" x="48.1875" y="371.235339" style="stroke: #000000; stroke-width: 0.6"/>
      </g>
     </g>
    </g>
    <g id="ytick_23">
     <g id="line2d_52">
      <g>
       <use xlink:href="#m66f7f7481e" x="48.1875" y="360.184089" style="stroke: #000000; stroke-width: 0.6"/>
      </g>
     </g>
    </g>
    <g id="ytick_24">
     <g id="line2d_53">
      <g>
       <use xlink:href="#m66f7f7481e" x="48.1875" y="354.572501" style="stroke: #000000; stroke-width: 0.6"/>
      </g>
     </g>
    </g>
    <g id="ytick_25">
     <g id="line2d_54">
      <g>
       <use xlink:href="#m66f7f7481e" x="48.1875" y="350.591016" style="stroke: #000000; stroke-width: 0.6"/>
      </g>
     </g>
    </g>
    <g id="ytick_26">
     <g id="line2d_55">
      <g>
       <use xlink:href="#m66f7f7481e" x="48.1875" y="347.502737" style="stroke: #000000; stroke-width: 0.6"/>
      </g>
     </g>
    </g>
    <g id="ytick_27">
     <g id="line2d_56">
      <g>
       <use xlink:href="#m66f7f7481e" x="48.1875" y="344.979428" style="stroke: #000000; stroke-width: 0.6"/>
      </g>
     </g>
    </g>
    <g id="ytick_28">
     <g id="line2d_57">
      <g>
       <use xlink:href="#m66f7f7481e" x="48.1875" y="342.846002" style="stroke: #000000; stroke-width: 0.6"/>
      </g>
     </g>
    </g>
    <g id="ytick_29">
     <g id="line2d_58">
      <g>
       <use xlink:href="#m66f7f7481e" x="48.1875" y="340.997943" style="stroke: #000000; stroke-width: 0.6"/>
      </g>
     </g>
    </g>
    <g id="ytick_30">
     <g id="line2d_59">
      <g>
       <use xlink:href="#m66f7f7481e" x="48.1875" y="339.367841" style="stroke: #000000; stroke-width: 0.6"/>
      </g>
     </g>
    </g>
    <g id="ytick_31">
     <g id="line2d_60">
      <g>
       <use xlink:href="#m66f7f7481e" x="48.1875" y="328.316591" style="stroke: #000000; stroke-width: 0.6"/>
      </g>
     </g>
    </g>
    <g id="ytick_32">
     <g id="line2d_61">
      <g>
       <use xlink:href="#m66f7f7481e" x="48.1875" y="322.705003" style="stroke: #000000; stroke-width: 0.6"/>
      </g>
     </g>
    </g>
    <g id="ytick_33">
     <g id="line2d_62">
      <g>
       <use xlink:href="#m66f7f7481e" x="48.1875" y="318.723518" style="stroke: #000000; stroke-width: 0.6"/>
      </g>
     </g>
    </g>
    <g id="ytick_34">
     <g id="line2d_63">
      <g>
       <use xlink:href="#m66f7f7481e" x="48.1875" y="315.635238" style="stroke: #000000; stroke-width: 0.6"/>
      </g>
     </g>
    </g>
    <g id="ytick_35">
     <g id="line2d_64">
      <g>
       <use xlink:href="#m66f7f7481e" x="48.1875" y="313.11193" style="stroke: #000000; stroke-width: 0.6"/>
      </g>
     </g>
    </g>
    <g id="ytick_36">
     <g id="line2d_65">
      <g>
       <use xlink:href="#m66f7f7481e" x="48.1875" y="310.978503" style="stroke: #000000; stroke-width: 0.6"/>
      </g>
     </g>
    </g>
    <g id="ytick_37">
     <g id="line2d_66">
      <g>
       <use xlink:href="#m66f7f7481e" x="48.1875" y="309.130445" style="stroke: #000000; stroke-width: 0.6"/>
      </g>
     </g>
    </g>
    <g id="ytick_38">
     <g id="line2d_67">
      <g>
       <use xlink:href="#m66f7f7481e" x="48.1875" y="307.500342" style="stroke: #000000; stroke-width: 0.6"/>
      </g>
     </g>
    </g>
    <g id="ytick_39">
     <g id="line2d_68">
      <g>
       <use xlink:href="#m66f7f7481e" x="48.1875" y="296.449092" style="stroke: #000000; stroke-width: 0.6"/>
      </g>
     </g>
    </g>
    <g id="ytick_40">
     <g id="line2d_69">
      <g>
       <use xlink:href="#m66f7f7481e" x="48.1875" y="290.837504" style="stroke: #000000; stroke-width: 0.6"/>
      </g>
     </g>
    </g>
    <g id="ytick_41">
     <g id="line2d_70">
      <g>
       <use xlink:href="#m66f7f7481e" x="48.1875" y="286.856019" style="stroke: #000000; stroke-width: 0.6"/>
      </g>
     </g>
    </g>
    <g id="ytick_42">
     <g id="line2d_71">
      <g>
       <use xlink:href="#m66f7f7481e" x="48.1875" y="283.76774" style="stroke: #000000; stroke-width: 0.6"/>
      </g>
     </g>
    </g>
    <g id="ytick_43">
     <g id="line2d_72">
      <g>
       <use xlink:href="#m66f7f7481e" x="48.1875" y="281.244431" style="stroke: #000000; stroke-width: 0.6"/>
      </g>
     </g>
    </g>
    <g id="ytick_44">
     <g id="line2d_73">
      <g>
       <use xlink:href="#m66f7f7481e" x="48.1875" y="279.111005" style="stroke: #000000; stroke-width: 0.6"/>
      </g>
     </g>
    </g>
    <g id="ytick_45">
     <g id="line2d_74">
      <g>
       <use xlink:href="#m66f7f7481e" x="48.1875" y="277.262946" style="stroke: #000000; stroke-width: 0.6"/>
      </g>
     </g>
    </g>
    <g id="ytick_46">
     <g id="line2d_75">
      <g>
       <use xlink:href="#m66f7f7481e" x="48.1875" y="275.632843" style="stroke: #000000; stroke-width: 0.6"/>
      </g>
     </g>
    </g>
    <g id="text_29">
     <!-- $M_2$ (# µg$^2$ cm$^{-3}$) -->
     <g transform="translate(17.4875 371.607333) rotate(-90) scale(0.1 -0.1)">
      <use xlink:href="#DejaVuSans-Oblique-4d" transform="translate(0 0.765625)"/>
      <use xlink:href="#DejaVuSans-32" transform="translate(86.279297 -15.640625) scale(0.7)"/>
      <use xlink:href="#DejaVuSans-20" transform="translate(133.549805 0.765625)"/>
      <use xlink:href="#DejaVuSans-28" transform="translate(165.336914 0.765625)"/>
      <use xlink:href="#DejaVuSans-23" transform="translate(204.350586 0.765625)"/>
      <use xlink:href="#DejaVuSans-20" transform="translate(288.139648 0.765625)"/>
      <use xlink:href="#DejaVuSans-b5" transform="translate(319.926758 0.765625)"/>
      <use xlink:href="#DejaVuSans-67" transform="translate(383.549805 0.765625)"/>
      <use xlink:href="#DejaVuSans-32" transform="translate(447.983398 39.046875) scale(0.7)"/>
      <use xlink:href="#DejaVuSans-20" transform="translate(495.253906 0.765625)"/>
      <use xlink:href="#DejaVuSans-63" transform="translate(527.041016 0.765625)"/>
      <use xlink:href="#DejaVuSans-6d" transform="translate(582.021484 0.765625)"/>
      <use xlink:href="#DejaVuSans-2212" transform="translate(680.390625 39.046875) scale(0.7)"/>
      <use xlink:href="#DejaVuSans-33" transform="translate(739.042969 39.046875) scale(0.7)"/>
      <use xlink:href="#DejaVuSans-29" transform="translate(786.313477 0.765625)"/>
     </g>
    </g>
   </g>
   <g id="line2d_76">
    <path d="M 58.363545 385.546795 
L 261.884455 270.355173 
L 261.884455 270.355173 
" clip-path="url(#pb8346fb6fd)" style="fill: none; stroke: #ff0000; stroke-opacity: 0.8; stroke-linecap: square"/>
   </g>
   <g id="line2d_77">
    <path d="M 58.363545 385.546795 
L 69.670263 384.677522 
L 78.715636 383.76234 
L 86.630338 382.735041 
L 93.414369 381.634299 
L 100.198399 380.289594 
L 105.851758 378.959176 
L 111.505116 377.424071 
L 117.158475 375.678538 
L 122.811833 373.724557 
L 129.595864 371.118257 
L 136.379894 368.253027 
L 144.294596 364.630353 
L 152.209298 360.764027 
L 162.385343 355.526731 
L 174.822732 348.85335 
L 191.782808 339.484524 
L 222.310944 322.318756 
L 261.884455 299.937291 
L 261.884455 299.937291 
" clip-path="url(#pb8346fb6fd)" style="fill: none; stroke-dasharray: 9.6,2.4,1.5,2.4; stroke-dashoffset: 0; stroke: #800080; stroke-opacity: 0.8; stroke-width: 1.5"/>
   </g>
   <g id="line2d_78">
    <path d="M 58.363545 385.546795 
L 78.715636 384.789051 
L 94.54504 384.416126 
L 109.243773 384.297389 
L 122.811833 384.413706 
L 135.249222 384.7289 
L 147.686611 385.257048 
L 160.124 386.010079 
L 172.561389 386.998822 
L 183.868106 388.109525 
L 195.174823 389.425912 
L 206.48154 390.948108 
L 218.918929 392.855262 
L 231.356318 394.995124 
L 243.793707 397.350928 
L 257.361768 400.142673 
L 261.884455 401.119713 
L 261.884455 401.119713 
" clip-path="url(#pb8346fb6fd)" style="fill: none; stroke-dasharray: 3.7,1.6; stroke-dashoffset: 0; stroke: #800080"/>
   </g>
   <g id="line2d_79">
    <path d="M 75.052331 424.99625 
L 77.584965 421.667364 
L 80.97698 417.618742 
L 84.368995 413.907051 
L 88.891682 409.345786 
L 93.414369 405.12321 
L 99.067727 400.207609 
L 104.721086 395.604409 
L 111.505116 390.399732 
L 118.289146 385.46777 
L 126.203848 379.982085 
L 135.249222 373.985906 
L 145.425268 367.502759 
L 157.862657 359.85289 
L 172.561389 351.078996 
L 191.782808 339.87643 
L 220.049601 323.687599 
L 261.884455 299.946542 
L 261.884455 299.946542 
" clip-path="url(#pb8346fb6fd)" style="fill: none; stroke-dasharray: 3.7,1.6; stroke-dashoffset: 0; stroke: #800080"/>
   </g>
   <g id="line2d_80">
    <path d="M 58.363545 385.546795 
L 69.670263 384.677522 
L 78.715636 383.76234 
L 86.630338 382.735041 
L 93.414369 381.634299 
L 100.198399 380.289594 
L 105.851758 378.959176 
L 111.505116 377.424071 
L 117.158475 375.678538 
L 122.811833 373.724557 
L 129.595864 371.118257 
L 136.379894 368.253027 
L 144.294596 364.630353 
L 152.209298 360.764027 
L 162.385343 355.526731 
L 174.822732 348.85335 
L 191.782808 339.484524 
L 222.310944 322.318756 
L 261.884455 299.937291 
L 261.884455 299.937291 
" clip-path="url(#pb8346fb6fd)" style="fill: none; stroke-dasharray: 7.4,3.2; stroke-dashoffset: 0; stroke: #0000ff; stroke-opacity: 0.8; stroke-width: 2"/>
   </g>
   <g id="line2d_81">
    <path d="M 58.363545 385.546795 
L 69.670263 384.67752 
L 78.715636 383.762276 
L 86.630338 382.734862 
L 93.414369 381.633838 
L 100.198399 380.288396 
L 105.851758 378.956794 
L 111.505116 377.419895 
L 117.158475 375.672139 
L 122.811833 373.716135 
L 129.595864 371.108781 
L 136.379894 368.242767 
L 144.294596 364.619147 
L 152.209298 360.751685 
L 162.385343 355.512614 
L 174.822732 348.838209 
L 191.782808 339.468883 
L 222.310944 322.301944 
L 261.884455 299.919608 
L 261.884455 299.919608 
" clip-path="url(#pb8346fb6fd)" style="fill: none; stroke-dasharray: 2.5,4.125; stroke-dashoffset: 0; stroke: #008000; stroke-opacity: 0.8; stroke-width: 2.5"/>
   </g>
   <g id="patch_14">
    <path d="M 48.1875 386.44 
L 48.1875 274.174667 
" style="fill: none; stroke: #000000; stroke-width: 0.8; stroke-linejoin: miter; stroke-linecap: square"/>
   </g>
   <g id="patch_15">
    <path d="M 272.0605 386.44 
L 272.0605 274.174667 
" style="fill: none; stroke: #000000; stroke-width: 0.8; stroke-linejoin: miter; stroke-linecap: square"/>
   </g>
   <g id="patch_16">
    <path d="M 48.1875 386.44 
L 272.0605 386.44 
" style="fill: none; stroke: #000000; stroke-width: 0.8; stroke-linejoin: miter; stroke-linecap: square"/>
   </g>
   <g id="patch_17">
    <path d="M 48.1875 274.174667 
L 272.0605 274.174667 
" style="fill: none; stroke: #000000; stroke-width: 0.8; stroke-linejoin: miter; stroke-linecap: square"/>
   </g>
  </g>
 </g>
 <defs>
  <clipPath id="p6be1e2069f">
   <rect x="48.1875" y="7.2" width="223.873" height="112.265333"/>
  </clipPath>
  <clipPath id="pcc903c2df9">
   <rect x="48.1875" y="140.687333" width="223.873" height="112.265333"/>
  </clipPath>
  <clipPath id="pb8346fb6fd">
   <rect x="48.1875" y="274.174667" width="223.873" height="112.265333"/>
  </clipPath>
 </defs>
</svg>
