<?xml version="1.0" encoding="utf-8" standalone="no"?>
<!DOCTYPE svg PUBLIC "-//W3C//DTD SVG 1.1//EN"
  "http://www.w3.org/Graphics/SVG/1.1/DTD/svg11.dtd">
<svg xmlns:xlink="http://www.w3.org/1999/xlink" width="280.8pt" height="424.8pt" viewBox="0 0 280.8 424.8" xmlns="http://www.w3.org/2000/svg" version="1.1">
 <metadata>
  <rdf:RDF xmlns:dc="http://purl.org/dc/elements/1.1/" xmlns:cc="http://creativecommons.org/ns#" xmlns:rdf="http://www.w3.org/1999/02/22-rdf-syntax-ns#">
   <cc:Work>
    <dc:type rdf:resource="http://purl.org/dc/dcmitype/StillImage"/>
    <dc:date>2026-03-24T17:10:29.590437</dc:date>
    <dc:format>image/svg+xml</dc:format>
    <dc:creator>
     <cc:Agent>
      <dc:title>Matplotlib v3.10.6, https://matplotlib.org/</dc:title>
     </cc:Agent>
    </dc:creator>
   </cc:Work>
  </rdf:RDF>
 </metadata>
 <defs>
  <style type="text/css">*{stroke-linejoin: round; stroke-linecap: butt}</style>
 </defs>
 <g id="figure_1">
  <g id="patch_1">
   <path d="M 0 424.8 
L 280.8 424.8 
L 280.8 0 
L 0 0 
z
" style="fill: #ffffff"/>
  </g>
  <g id="axes_1">
   <g id="patch_2">
    <path d="M 48.1875 120.229167 
L 273.6 120.229167 
L 273.6 7.2 
L 48.1875 7.2 
z
" style="fill: #ffffff"/>
   </g>
   <g id="PathCollection_1">
    <defs>
     <path id="m99a6bca9dc" d="M 0 1.414214 
C 0.375054 1.414214 0.734797 1.265203 1 1 
C 1.265203 0.734797 1.414214 0.375054 1.414214 0 
C 1.414214 -0.375054 1.265203 -0.734797 1 -1 
C 0.734797 -1.265203 0.375054 -1.414214 0 -1.414214 
C -0.375054 -1.414214 -0.734797 -1.265203 -1 -1 
C -1.265203 -0.734797 -1.414214 -0.375054 -1.414214 0 
C -1.414214 0.375054 -1.265203 0.734797 -1 1 
C -0.734797 1.265203 -0.375054 1.414214 0 1.414214 
z
" style="stroke: #000000"/>
    </defs>
    <g clip-path="url(#pb995e56916)">
     <use xlink:href="#m99a6bca9dc" x="58.433523" y="12.337952" style="stroke: #000000"/>
     <use xlink:href="#m99a6bca9dc" x="75.510227" y="53.529668" style="stroke: #000000"/>
     <use xlink:href="#m99a6bca9dc" x="92.586932" y="78.045223" style="stroke: #000000"/>
     <use xlink:href="#m99a6bca9dc" x="109.663636" y="92.769389" style="stroke: #000000"/>
     <use xlink:href="#m99a6bca9dc" x="126.740341" y="101.61039" style="stroke: #000000"/>
     <use xlink:href="#m99a6bca9dc" x="143.817045" y="106.977718" style="stroke: #000000"/>
     <use xlink:href="#m99a6bca9dc" x="160.89375" y="110.216937" style="stroke: #000000"/>
     <use xlink:href="#m99a6bca9dc" x="177.970455" y="112.123331" style="stroke: #000000"/>
     <use xlink:href="#m99a6bca9dc" x="195.047159" y="113.304392" style="stroke: #000000"/>
     <use xlink:href="#m99a6bca9dc" x="212.123864" y="114.032077" style="stroke: #000000"/>
     <use xlink:href="#m99a6bca9dc" x="229.200568" y="114.4486" style="stroke: #000000"/>
     <use xlink:href="#m99a6bca9dc" x="246.277273" y="114.711022" style="stroke: #000000"/>
     <use xlink:href="#m99a6bca9dc" x="263.353977" y="114.863054" style="stroke: #000000"/>
    </g>
   </g>
   <g id="matplotlib.axis_1">
    <g id="xtick_1">
     <g id="line2d_1">
      <defs>
       <path id="mfca1554d24" d="M 0 0 
L 0 3.5 
" style="stroke: #000000; stroke-width: 0.8"/>
      </defs>
      <g>
       <use xlink:href="#mfca1554d24" x="58.433523" y="120.229167" style="stroke: #000000; stroke-width: 0.8"/>
      </g>
     </g>
    </g>
    <g id="xtick_2">
     <g id="line2d_2">
      <g>
       <use xlink:href="#mfca1554d24" x="92.586932" y="120.229167" style="stroke: #000000; stroke-width: 0.8"/>
      </g>
     </g>
    </g>
    <g id="xtick_3">
     <g id="line2d_3">
      <g>
       <use xlink:href="#mfca1554d24" x="126.740341" y="120.229167" style="stroke: #000000; stroke-width: 0.8"/>
      </g>
     </g>
    </g>
    <g id="xtick_4">
     <g id="line2d_4">
      <g>
       <use xlink:href="#mfca1554d24" x="160.89375" y="120.229167" style="stroke: #000000; stroke-width: 0.8"/>
      </g>
     </g>
    </g>
    <g id="xtick_5">
     <g id="line2d_5">
      <g>
       <use xlink:href="#mfca1554d24" x="195.047159" y="120.229167" style="stroke: #000000; stroke-width: 0.8"/>
      </g>
     </g>
    </g>
    <g id="xtick_6">
     <g id="line2d_6">
      <g>
       <use xlink:href="#mfca1554d24" x="229.200568" y="120.229167" style="stroke: #000000; stroke-width: 0.8"/>
      </g>
     </g>
    </g>
    <g id="xtick_7">
     <g id="line2d_7">
      <g>
       <use xlink:href="#mfca1554d24" x="263.353977" y="120.229167" style="stroke: #000000; stroke-width: 0.8"/>
      </g>
     </g>
    </g>
   </g>
   <g id="matplotlib.axis_2">
    <g id="ytick_1">
     <g id="line2d_8">
      <defs>
       <path id="mf6ea44b872" d="M 0 0 
L -3.5 0 
" style="stroke: #000000; stroke-width: 0.8"/>
      </defs>
      <g>
       <use xlink:href="#mf6ea44b872" x="48.1875" y="115.091477" style="stroke: #000000; stroke-width: 0.8"/>
      </g>
     </g>
     <g id="text_1">
      <!-- 0 -->
      <g transform="translate(34.825 118.890696) scale(0.1 -0.1)">
       <defs>
        <path id="DejaVuSans-30" d="M 2034 4250 
Q 1547 4250 1301 3770 
Q 1056 3291 1056 2328 
Q 1056 1369 1301 889 
Q 1547 409 2034 409 
Q 2525 409 2770 889 
Q 3016 1369 3016 2328 
Q 3016 3291 2770 3770 
Q 2525 4250 2034 4250 
z
M 2034 4750 
Q 2819 4750 3233 4129 
Q 3647 3509 3647 2328 
Q 3647 1150 3233 529 
Q 2819 -91 2034 -91 
Q 1250 -91 836 529 
Q 422 1150 422 2328 
Q 422 3509 836 4129 
Q 1250 4750 2034 4750 
z
" transform="scale(0.015625)"/>
       </defs>
       <use xlink:href="#DejaVuSans-30"/>
      </g>
     </g>
    </g>
    <g id="ytick_2">
     <g id="line2d_9">
      <g>
       <use xlink:href="#mf6ea44b872" x="48.1875" y="89.40303" style="stroke: #000000; stroke-width: 0.8"/>
      </g>
     </g>
     <g id="text_2">
      <!-- 25 -->
      <g transform="translate(28.4625 93.202249) scale(0.1 -0.1)">
       <defs>
        <path id="DejaVuSans-32" d="M 1228 531 
L 3431 531 
L 3431 0 
L 469 0 
L 469 531 
Q 828 903 1448 1529 
Q 2069 2156 2228 2338 
Q 2531 2678 2651 2914 
Q 2772 3150 2772 3378 
Q 2772 3750 2511 3984 
Q 2250 4219 1831 4219 
Q 1534 4219 1204 4116 
Q 875 4013 500 3803 
L 500 4441 
Q 881 4594 1212 4672 
Q 1544 4750 1819 4750 
Q 2544 4750 2975 4387 
Q 3406 4025 3406 3419 
Q 3406 3131 3298 2873 
Q 3191 2616 2906 2266 
Q 2828 2175 2409 1742 
Q 1991 1309 1228 531 
z
" transform="scale(0.015625)"/>
        <path id="DejaVuSans-35" d="M 691 4666 
L 3169 4666 
L 3169 4134 
L 1269 4134 
L 1269 2991 
Q 1406 3038 1543 3061 
Q 1681 3084 1819 3084 
Q 2600 3084 3056 2656 
Q 3513 2228 3513 1497 
Q 3513 744 3044 326 
Q 2575 -91 1722 -91 
Q 1428 -91 1123 -41 
Q 819 9 494 109 
L 494 744 
Q 775 591 1075 516 
Q 1375 441 1709 441 
Q 2250 441 2565 725 
Q 2881 1009 2881 1497 
Q 2881 1984 2565 2268 
Q 2250 2553 1709 2553 
Q 1456 2553 1204 2497 
Q 953 2441 691 2322 
L 691 4666 
z
" transform="scale(0.015625)"/>
       </defs>
       <use xlink:href="#DejaVuSans-32"/>
       <use xlink:href="#DejaVuSans-35" transform="translate(63.623047 0)"/>
      </g>
     </g>
    </g>
    <g id="ytick_3">
     <g id="line2d_10">
      <g>
       <use xlink:href="#mf6ea44b872" x="48.1875" y="63.714583" style="stroke: #000000; stroke-width: 0.8"/>
      </g>
     </g>
     <g id="text_3">
      <!-- 50 -->
      <g transform="translate(28.4625 67.513802) scale(0.1 -0.1)">
       <use xlink:href="#DejaVuSans-35"/>
       <use xlink:href="#DejaVuSans-30" transform="translate(63.623047 0)"/>
      </g>
     </g>
    </g>
    <g id="ytick_4">
     <g id="line2d_11">
      <g>
       <use xlink:href="#mf6ea44b872" x="48.1875" y="38.026136" style="stroke: #000000; stroke-width: 0.8"/>
      </g>
     </g>
     <g id="text_4">
      <!-- 75 -->
      <g transform="translate(28.4625 41.825355) scale(0.1 -0.1)">
       <defs>
        <path id="DejaVuSans-37" d="M 525 4666 
L 3525 4666 
L 3525 4397 
L 1831 0 
L 1172 0 
L 2766 4134 
L 525 4134 
L 525 4666 
z
" transform="scale(0.015625)"/>
       </defs>
       <use xlink:href="#DejaVuSans-37"/>
       <use xlink:href="#DejaVuSans-35" transform="translate(63.623047 0)"/>
      </g>
     </g>
    </g>
    <g id="ytick_5">
     <g id="line2d_12">
      <g>
       <use xlink:href="#mf6ea44b872" x="48.1875" y="12.337689" style="stroke: #000000; stroke-width: 0.8"/>
      </g>
     </g>
     <g id="text_5">
      <!-- 100 -->
      <g transform="translate(22.1 16.136908) scale(0.1 -0.1)">
       <defs>
        <path id="DejaVuSans-31" d="M 794 531 
L 1825 531 
L 1825 4091 
L 703 3866 
L 703 4441 
L 1819 4666 
L 2450 4666 
L 2450 531 
L 3481 531 
L 3481 0 
L 794 0 
L 794 531 
z
" transform="scale(0.015625)"/>
       </defs>
       <use xlink:href="#DejaVuSans-31"/>
       <use xlink:href="#DejaVuSans-30" transform="translate(63.623047 0)"/>
       <use xlink:href="#DejaVuSans-30" transform="translate(127.246094 0)"/>
      </g>
     </g>
    </g>
    <g id="text_6">
     <!-- $M_0$ (# cm$^{-3}$) -->
     <g transform="translate(16.020313 94.664583) rotate(-90) scale(0.1 -0.1)">
      <defs>
       <path id="DejaVuSans-Oblique-4d" d="M 1081 4666 
L 2028 4666 
L 2572 1522 
L 4378 4666 
L 5350 4666 
L 4441 0 
L 3828 0 
L 4622 4091 
L 2791 897 
L 2175 897 
L 1581 4103 
L 788 0 
L 172 0 
L 1081 4666 
z
" transform="scale(0.015625)"/>
       <path id="DejaVuSans-20" transform="scale(0.015625)"/>
       <path id="DejaVuSans-28" d="M 1984 4856 
Q 1566 4138 1362 3434 
Q 1159 2731 1159 2009 
Q 1159 1288 1364 580 
Q 1569 -128 1984 -844 
L 1484 -844 
Q 1016 -109 783 600 
Q 550 1309 550 2009 
Q 550 2706 781 3412 
Q 1013 4119 1484 4856 
L 1984 4856 
z
" transform="scale(0.015625)"/>
       <path id="DejaVuSans-23" d="M 3272 2816 
L 2363 2816 
L 2100 1772 
L 3016 1772 
L 3272 2816 
z
M 2803 4594 
L 2478 3297 
L 3391 3297 
L 3719 4594 
L 4219 4594 
L 3897 3297 
L 4872 3297 
L 4872 2816 
L 3775 2816 
L 3519 1772 
L 4513 1772 
L 4513 1294 
L 3397 1294 
L 3072 0 
L 2572 0 
L 2894 1294 
L 1978 1294 
L 1656 0 
L 1153 0 
L 1478 1294 
L 494 1294 
L 494 1772 
L 1594 1772 
L 1856 2816 
L 850 2816 
L 850 3297 
L 1978 3297 
L 2297 4594 
L 2803 4594 
z
" transform="scale(0.015625)"/>
       <path id="DejaVuSans-63" d="M 3122 3366 
L 3122 2828 
Q 2878 2963 2633 3030 
Q 2388 3097 2138 3097 
Q 1578 3097 1268 2742 
Q 959 2388 959 1747 
Q 959 1106 1268 751 
Q 1578 397 2138 397 
Q 2388 397 2633 464 
Q 2878 531 3122 666 
L 3122 134 
Q 2881 22 2623 -34 
Q 2366 -91 2075 -91 
Q 1284 -91 818 406 
Q 353 903 353 1747 
Q 353 2603 823 3093 
Q 1294 3584 2113 3584 
Q 2378 3584 2631 3529 
Q 2884 3475 3122 3366 
z
" transform="scale(0.015625)"/>
       <path id="DejaVuSans-6d" d="M 3328 2828 
Q 3544 3216 3844 3400 
Q 4144 3584 4550 3584 
Q 5097 3584 5394 3201 
Q 5691 2819 5691 2113 
L 5691 0 
L 5113 0 
L 5113 2094 
Q 5113 2597 4934 2840 
Q 4756 3084 4391 3084 
Q 3944 3084 3684 2787 
Q 3425 2491 3425 1978 
L 3425 0 
L 2847 0 
L 2847 2094 
Q 2847 2600 2669 2842 
Q 2491 3084 2119 3084 
Q 1678 3084 1418 2786 
Q 1159 2488 1159 1978 
L 1159 0 
L 581 0 
L 581 3500 
L 1159 3500 
L 1159 2956 
Q 1356 3278 1631 3431 
Q 1906 3584 2284 3584 
Q 2666 3584 2933 3390 
Q 3200 3197 3328 2828 
z
" transform="scale(0.015625)"/>
       <path id="DejaVuSans-2212" d="M 678 2272 
L 4684 2272 
L 4684 1741 
L 678 1741 
L 678 2272 
z
" transform="scale(0.015625)"/>
       <path id="DejaVuSans-33" d="M 2597 2516 
Q 3050 2419 3304 2112 
Q 3559 1806 3559 1356 
Q 3559 666 3084 287 
Q 2609 -91 1734 -91 
Q 1441 -91 1130 -33 
Q 819 25 488 141 
L 488 750 
Q 750 597 1062 519 
Q 1375 441 1716 441 
Q 2309 441 2620 675 
Q 2931 909 2931 1356 
Q 2931 1769 2642 2001 
Q 2353 2234 1838 2234 
L 1294 2234 
L 1294 2753 
L 1863 2753 
Q 2328 2753 2575 2939 
Q 2822 3125 2822 3475 
Q 2822 3834 2567 4026 
Q 2313 4219 1838 4219 
Q 1578 4219 1281 4162 
Q 984 4106 628 3988 
L 628 4550 
Q 988 4650 1302 4700 
Q 1616 4750 1894 4750 
Q 2613 4750 3031 4423 
Q 3450 4097 3450 3541 
Q 3450 3153 3228 2886 
Q 3006 2619 2597 2516 
z
" transform="scale(0.015625)"/>
       <path id="DejaVuSans-29" d="M 513 4856 
L 1013 4856 
Q 1481 4119 1714 3412 
Q 1947 2706 1947 2009 
Q 1947 1309 1714 600 
Q 1481 -109 1013 -844 
L 513 -844 
Q 928 -128 1133 580 
Q 1338 1288 1338 2009 
Q 1338 2731 1133 3434 
Q 928 4138 513 4856 
z
" transform="scale(0.015625)"/>
      </defs>
      <use xlink:href="#DejaVuSans-Oblique-4d" transform="translate(0 0.765625)"/>
      <use xlink:href="#DejaVuSans-30" transform="translate(86.279297 -15.640625) scale(0.7)"/>
      <use xlink:href="#DejaVuSans-20" transform="translate(133.549805 0.765625)"/>
      <use xlink:href="#DejaVuSans-28" transform="translate(165.336914 0.765625)"/>
      <use xlink:href="#DejaVuSans-23" transform="translate(204.350586 0.765625)"/>
      <use xlink:href="#DejaVuSans-20" transform="translate(288.139648 0.765625)"/>
      <use xlink:href="#DejaVuSans-63" transform="translate(319.926758 0.765625)"/>
      <use xlink:href="#DejaVuSans-6d" transform="translate(374.907227 0.765625)"/>
      <use xlink:href="#DejaVuSans-2212" transform="translate(473.276367 39.046875) scale(0.7)"/>
      <use xlink:href="#DejaVuSans-33" transform="translate(531.928711 39.046875) scale(0.7)"/>
      <use xlink:href="#DejaVuSans-29" transform="translate(579.199219 0.765625)"/>
     </g>
    </g>
   </g>
   <g id="line2d_13">
    <path d="M 58.433523 12.337689 
L 75.510227 53.011064 
L 92.586932 77.584561 
L 109.663636 92.431049 
L 126.740341 101.400802 
L 143.817045 106.820027 
L 160.89375 110.094143 
L 177.970455 112.072254 
L 195.047159 113.267363 
L 212.123864 113.989409 
L 229.200568 114.425644 
L 246.277273 114.689203 
L 263.353977 114.848437 
" clip-path="url(#pb995e56916)" style="fill: none; stroke: #ff0000; stroke-opacity: 0.8; stroke-linecap: square"/>
   </g>
   <g id="line2d_14">
    <path d="M 58.433523 12.337689 
L 75.510227 53.011064 
L 92.586932 77.584561 
L 109.663636 92.431049 
L 126.740341 101.400802 
L 143.817045 106.820027 
L 160.89375 110.094143 
L 177.970455 112.072254 
L 195.047159 113.267363 
L 212.123864 113.989409 
L 229.200568 114.425644 
L 246.277273 114.689203 
L 263.353977 114.848437 
" clip-path="url(#pb995e56916)" style="fill: none; stroke-dasharray: 9.6,2.4,1.5,2.4; stroke-dashoffset: 0; stroke: #800080; stroke-opacity: 0.8; stroke-width: 1.5"/>
   </g>
   <g id="line2d_15">
    <path d="M 58.433523 12.337689 
L 75.510227 53.011064 
L 92.586932 77.584561 
L 109.663636 92.431049 
L 126.740341 101.400802 
L 143.817045 106.820027 
L 160.89375 110.094143 
L 177.970455 112.072254 
L 195.047159 113.267363 
L 212.123864 113.989409 
L 229.200568 114.425644 
L 246.277273 114.689203 
L 263.353977 114.848437 
" clip-path="url(#pb995e56916)" style="fill: none; stroke-dasharray: 7.4,3.2; stroke-dashoffset: 0; stroke: #0000ff; stroke-opacity: 0.8; stroke-width: 2"/>
   </g>
   <g id="line2d_16">
    <path d="M 58.433523 12.337689 
L 75.510227 53.841519 
L 92.586932 79.534547 
L 109.663636 94.499293 
L 126.740341 103.055611 
L 143.817045 107.988089 
L 160.89375 110.865837 
L 177.970455 112.563572 
L 195.047159 113.573575 
L 212.123864 114.17788 
L 229.200568 114.540789 
L 246.277273 114.759238 
L 263.353977 114.890921 
" clip-path="url(#pb995e56916)" style="fill: none; stroke-dasharray: 3.7,1.6; stroke-dashoffset: 0; stroke: #0000ff"/>
   </g>
   <g id="line2d_17">
    <path d="M 58.433523 115.091477 
L 75.510227 114.261022 
L 92.586932 113.141491 
L 109.663636 113.023945 
L 126.740341 113.473524 
L 143.817045 114.001862 
L 160.89375 114.407446 
L 177.970455 114.673715 
L 195.047159 114.838776 
L 212.123864 114.939021 
L 229.200568 114.999523 
L 246.277273 115.035996 
L 263.353977 115.057988 
" clip-path="url(#pb995e56916)" style="fill: none; stroke-dasharray: 3.7,1.6; stroke-dashoffset: 0; stroke: #0000ff"/>
   </g>
   <g id="line2d_18">
    <path d="M 58.433523 115.091477 
L 75.510227 115.091477 
L 92.586932 115.091477 
L 109.663636 115.090765 
L 126.740341 115.054621 
L 143.817045 115.013032 
L 160.89375 115.00383 
L 177.970455 115.019388 
L 195.047159 115.041414 
L 212.123864 115.059504 
L 229.200568 115.071767 
L 246.277273 115.079494 
L 263.353977 115.084228 
" clip-path="url(#pb995e56916)" style="fill: none; stroke-dasharray: 3.7,1.6; stroke-dashoffset: 0; stroke: #0000ff"/>
   </g>
   <g id="line2d_19">
    <path d="M 58.433523 115.091477 
L 75.510227 115.091477 
L 92.586932 115.091477 
L 109.663636 115.091477 
L 126.740341 115.091477 
L 143.817045 115.091477 
L 160.89375 115.091461 
L 177.970455 115.090011 
L 195.047159 115.088031 
L 212.123864 115.087436 
L 229.200568 115.087996 
L 246.277273 115.088907 
L 263.353977 115.089732 
" clip-path="url(#pb995e56916)" style="fill: none; stroke-dasharray: 3.7,1.6; stroke-dashoffset: 0; stroke: #0000ff"/>
   </g>
   <g id="patch_3">
    <path d="M 48.1875 120.229167 
L 48.1875 7.2 
" style="fill: none; stroke: #000000; stroke-width: 0.8; stroke-linejoin: miter; stroke-linecap: square"/>
   </g>
   <g id="patch_4">
    <path d="M 273.6 120.229167 
L 273.6 7.2 
" style="fill: none; stroke: #000000; stroke-width: 0.8; stroke-linejoin: miter; stroke-linecap: square"/>
   </g>
   <g id="patch_5">
    <path d="M 48.1875 120.229167 
L 273.6 120.229167 
" style="fill: none; stroke: #000000; stroke-width: 0.8; stroke-linejoin: miter; stroke-linecap: square"/>
   </g>
   <g id="patch_6">
    <path d="M 48.1875 7.2 
L 273.6 7.2 
" style="fill: none; stroke: #000000; stroke-width: 0.8; stroke-linejoin: miter; stroke-linecap: square"/>
   </g>
   <g id="legend_1">
    <g id="patch_7">
     <path d="M 191.489062 88.590625 
L 266.6 88.590625 
Q 268.6 88.590625 268.6 86.590625 
L 268.6 14.2 
Q 268.6 12.2 266.6 12.2 
L 191.489062 12.2 
Q 189.489062 12.2 189.489062 14.2 
L 189.489062 86.590625 
Q 189.489062 88.590625 191.489062 88.590625 
z
" style="fill: #ffffff; opacity: 0.8; stroke: #cccccc; stroke-linejoin: miter"/>
    </g>
    <g id="line2d_20">
     <path d="M 193.489062 20.298437 
L 203.489062 20.298437 
L 213.489062 20.298437 
" style="fill: none; stroke: #ff0000; stroke-opacity: 0.8; stroke-linecap: square"/>
    </g>
    <g id="text_7">
     <!-- 1 modes -->
     <g transform="translate(221.489062 23.798437) scale(0.1 -0.1)">
      <defs>
       <path id="DejaVuSans-6f" d="M 1959 3097 
Q 1497 3097 1228 2736 
Q 959 2375 959 1747 
Q 959 1119 1226 758 
Q 1494 397 1959 397 
Q 2419 397 2687 759 
Q 2956 1122 2956 1747 
Q 2956 2369 2687 2733 
Q 2419 3097 1959 3097 
z
M 1959 3584 
Q 2709 3584 3137 3096 
Q 3566 2609 3566 1747 
Q 3566 888 3137 398 
Q 2709 -91 1959 -91 
Q 1206 -91 779 398 
Q 353 888 353 1747 
Q 353 2609 779 3096 
Q 1206 3584 1959 3584 
z
" transform="scale(0.015625)"/>
       <path id="DejaVuSans-64" d="M 2906 2969 
L 2906 4863 
L 3481 4863 
L 3481 0 
L 2906 0 
L 2906 525 
Q 2725 213 2448 61 
Q 2172 -91 1784 -91 
Q 1150 -91 751 415 
Q 353 922 353 1747 
Q 353 2572 751 3078 
Q 1150 3584 1784 3584 
Q 2172 3584 2448 3432 
Q 2725 3281 2906 2969 
z
M 947 1747 
Q 947 1113 1208 752 
Q 1469 391 1925 391 
Q 2381 391 2643 752 
Q 2906 1113 2906 1747 
Q 2906 2381 2643 2742 
Q 2381 3103 1925 3103 
Q 1469 3103 1208 2742 
Q 947 2381 947 1747 
z
" transform="scale(0.015625)"/>
       <path id="DejaVuSans-65" d="M 3597 1894 
L 3597 1613 
L 953 1613 
Q 991 1019 1311 708 
Q 1631 397 2203 397 
Q 2534 397 2845 478 
Q 3156 559 3463 722 
L 3463 178 
Q 3153 47 2828 -22 
Q 2503 -91 2169 -91 
Q 1331 -91 842 396 
Q 353 884 353 1716 
Q 353 2575 817 3079 
Q 1281 3584 2069 3584 
Q 2775 3584 3186 3129 
Q 3597 2675 3597 1894 
z
M 3022 2063 
Q 3016 2534 2758 2815 
Q 2500 3097 2075 3097 
Q 1594 3097 1305 2825 
Q 1016 2553 972 2059 
L 3022 2063 
z
" transform="scale(0.015625)"/>
       <path id="DejaVuSans-73" d="M 2834 3397 
L 2834 2853 
Q 2591 2978 2328 3040 
Q 2066 3103 1784 3103 
Q 1356 3103 1142 2972 
Q 928 2841 928 2578 
Q 928 2378 1081 2264 
Q 1234 2150 1697 2047 
L 1894 2003 
Q 2506 1872 2764 1633 
Q 3022 1394 3022 966 
Q 3022 478 2636 193 
Q 2250 -91 1575 -91 
Q 1294 -91 989 -36 
Q 684 19 347 128 
L 347 722 
Q 666 556 975 473 
Q 1284 391 1588 391 
Q 1994 391 2212 530 
Q 2431 669 2431 922 
Q 2431 1156 2273 1281 
Q 2116 1406 1581 1522 
L 1381 1569 
Q 847 1681 609 1914 
Q 372 2147 372 2553 
Q 372 3047 722 3315 
Q 1072 3584 1716 3584 
Q 2034 3584 2315 3537 
Q 2597 3491 2834 3397 
z
" transform="scale(0.015625)"/>
      </defs>
      <use xlink:href="#DejaVuSans-31"/>
      <use xlink:href="#DejaVuSans-20" transform="translate(63.623047 0)"/>
      <use xlink:href="#DejaVuSans-6d" transform="translate(95.410156 0)"/>
      <use xlink:href="#DejaVuSans-6f" transform="translate(192.822266 0)"/>
      <use xlink:href="#DejaVuSans-64" transform="translate(254.003906 0)"/>
      <use xlink:href="#DejaVuSans-65" transform="translate(317.480469 0)"/>
      <use xlink:href="#DejaVuSans-73" transform="translate(379.003906 0)"/>
     </g>
    </g>
    <g id="line2d_21">
     <path d="M 193.489062 34.976562 
L 203.489062 34.976562 
L 213.489062 34.976562 
" style="fill: none; stroke-dasharray: 9.6,2.4,1.5,2.4; stroke-dashoffset: 0; stroke: #800080; stroke-opacity: 0.8; stroke-width: 1.5"/>
    </g>
    <g id="text_8">
     <!-- 2 modes -->
     <g transform="translate(221.489062 38.476562) scale(0.1 -0.1)">
      <use xlink:href="#DejaVuSans-32"/>
      <use xlink:href="#DejaVuSans-20" transform="translate(63.623047 0)"/>
      <use xlink:href="#DejaVuSans-6d" transform="translate(95.410156 0)"/>
      <use xlink:href="#DejaVuSans-6f" transform="translate(192.822266 0)"/>
      <use xlink:href="#DejaVuSans-64" transform="translate(254.003906 0)"/>
      <use xlink:href="#DejaVuSans-65" transform="translate(317.480469 0)"/>
      <use xlink:href="#DejaVuSans-73" transform="translate(379.003906 0)"/>
     </g>
    </g>
    <g id="line2d_22">
     <path d="M 193.489062 49.654687 
L 203.489062 49.654687 
L 213.489062 49.654687 
" style="fill: none; stroke-dasharray: 7.4,3.2; stroke-dashoffset: 0; stroke: #0000ff; stroke-opacity: 0.8; stroke-width: 2"/>
    </g>
    <g id="text_9">
     <!-- 4 modes -->
     <g transform="translate(221.489062 53.154687) scale(0.1 -0.1)">
      <defs>
       <path id="DejaVuSans-34" d="M 2419 4116 
L 825 1625 
L 2419 1625 
L 2419 4116 
z
M 2253 4666 
L 3047 4666 
L 3047 1625 
L 3713 1625 
L 3713 1100 
L 3047 1100 
L 3047 0 
L 2419 0 
L 2419 1100 
L 313 1100 
L 313 1709 
L 2253 4666 
z
" transform="scale(0.015625)"/>
      </defs>
      <use xlink:href="#DejaVuSans-34"/>
      <use xlink:href="#DejaVuSans-20" transform="translate(63.623047 0)"/>
      <use xlink:href="#DejaVuSans-6d" transform="translate(95.410156 0)"/>
      <use xlink:href="#DejaVuSans-6f" transform="translate(192.822266 0)"/>
      <use xlink:href="#DejaVuSans-64" transform="translate(254.003906 0)"/>
      <use xlink:href="#DejaVuSans-65" transform="translate(317.480469 0)"/>
      <use xlink:href="#DejaVuSans-73" transform="translate(379.003906 0)"/>
     </g>
    </g>
    <g id="line2d_23">
     <path d="M 193.489062 64.332812 
L 203.489062 64.332812 
L 213.489062 64.332812 
" style="fill: none; stroke-dasharray: 3.7,1.6; stroke-dashoffset: 0; stroke: #0000ff"/>
    </g>
    <g id="text_10">
     <!--  mode i -->
     <g transform="translate(221.489062 67.832812) scale(0.1 -0.1)">
      <defs>
       <path id="DejaVuSans-69" d="M 603 3500 
L 1178 3500 
L 1178 0 
L 603 0 
L 603 3500 
z
M 603 4863 
L 1178 4863 
L 1178 4134 
L 603 4134 
L 603 4863 
z
" transform="scale(0.015625)"/>
      </defs>
      <use xlink:href="#DejaVuSans-20"/>
      <use xlink:href="#DejaVuSans-6d" transform="translate(31.787109 0)"/>
      <use xlink:href="#DejaVuSans-6f" transform="translate(129.199219 0)"/>
      <use xlink:href="#DejaVuSans-64" transform="translate(190.380859 0)"/>
      <use xlink:href="#DejaVuSans-65" transform="translate(253.857422 0)"/>
      <use xlink:href="#DejaVuSans-20" transform="translate(315.380859 0)"/>
      <use xlink:href="#DejaVuSans-69" transform="translate(347.167969 0)"/>
     </g>
    </g>
    <g id="PathCollection_2">
     <g>
      <use xlink:href="#m99a6bca9dc" x="203.489062" y="79.885938" style="stroke: #000000"/>
     </g>
    </g>
    <g id="text_11">
     <!-- PySDM -->
     <g transform="translate(221.489062 82.510938) scale(0.1 -0.1)">
      <defs>
       <path id="DejaVuSans-50" d="M 1259 4147 
L 1259 2394 
L 2053 2394 
Q 2494 2394 2734 2622 
Q 2975 2850 2975 3272 
Q 2975 3691 2734 3919 
Q 2494 4147 2053 4147 
L 1259 4147 
z
M 628 4666 
L 2053 4666 
Q 2838 4666 3239 4311 
Q 3641 3956 3641 3272 
Q 3641 2581 3239 2228 
Q 2838 1875 2053 1875 
L 1259 1875 
L 1259 0 
L 628 0 
L 628 4666 
z
" transform="scale(0.015625)"/>
       <path id="DejaVuSans-79" d="M 2059 -325 
Q 1816 -950 1584 -1140 
Q 1353 -1331 966 -1331 
L 506 -1331 
L 506 -850 
L 844 -850 
Q 1081 -850 1212 -737 
Q 1344 -625 1503 -206 
L 1606 56 
L 191 3500 
L 800 3500 
L 1894 763 
L 2988 3500 
L 3597 3500 
L 2059 -325 
z
" transform="scale(0.015625)"/>
       <path id="DejaVuSans-53" d="M 3425 4513 
L 3425 3897 
Q 3066 4069 2747 4153 
Q 2428 4238 2131 4238 
Q 1616 4238 1336 4038 
Q 1056 3838 1056 3469 
Q 1056 3159 1242 3001 
Q 1428 2844 1947 2747 
L 2328 2669 
Q 3034 2534 3370 2195 
Q 3706 1856 3706 1288 
Q 3706 609 3251 259 
Q 2797 -91 1919 -91 
Q 1588 -91 1214 -16 
Q 841 59 441 206 
L 441 856 
Q 825 641 1194 531 
Q 1563 422 1919 422 
Q 2459 422 2753 634 
Q 3047 847 3047 1241 
Q 3047 1584 2836 1778 
Q 2625 1972 2144 2069 
L 1759 2144 
Q 1053 2284 737 2584 
Q 422 2884 422 3419 
Q 422 4038 858 4394 
Q 1294 4750 2059 4750 
Q 2388 4750 2728 4690 
Q 3069 4631 3425 4513 
z
" transform="scale(0.015625)"/>
       <path id="DejaVuSans-44" d="M 1259 4147 
L 1259 519 
L 2022 519 
Q 2988 519 3436 956 
Q 3884 1394 3884 2338 
Q 3884 3275 3436 3711 
Q 2988 4147 2022 4147 
L 1259 4147 
z
M 628 4666 
L 1925 4666 
Q 3281 4666 3915 4102 
Q 4550 3538 4550 2338 
Q 4550 1131 3912 565 
Q 3275 0 1925 0 
L 628 0 
L 628 4666 
z
" transform="scale(0.015625)"/>
       <path id="DejaVuSans-4d" d="M 628 4666 
L 1569 4666 
L 2759 1491 
L 3956 4666 
L 4897 4666 
L 4897 0 
L 4281 0 
L 4281 4097 
L 3078 897 
L 2444 897 
L 1241 4097 
L 1241 0 
L 628 0 
L 628 4666 
z
" transform="scale(0.015625)"/>
      </defs>
      <use xlink:href="#DejaVuSans-50"/>
      <use xlink:href="#DejaVuSans-79" transform="translate(60.302734 0)"/>
      <use xlink:href="#DejaVuSans-53" transform="translate(119.482422 0)"/>
      <use xlink:href="#DejaVuSans-44" transform="translate(182.958984 0)"/>
      <use xlink:href="#DejaVuSans-4d" transform="translate(259.960938 0)"/>
     </g>
    </g>
   </g>
  </g>
  <g id="axes_2">
   <g id="patch_8">
    <path d="M 48.1875 253.736458 
L 273.6 253.736458 
L 273.6 140.707292 
L 48.1875 140.707292 
z
" style="fill: #ffffff"/>
   </g>
   <g id="PathCollection_3">
    <g clip-path="url(#p7747e19c50)">
     <use xlink:href="#m99a6bca9dc" x="58.433523" y="178.396417" style="stroke: #000000"/>
     <use xlink:href="#m99a6bca9dc" x="75.510227" y="178.396417" style="stroke: #000000"/>
     <use xlink:href="#m99a6bca9dc" x="92.586932" y="178.396417" style="stroke: #000000"/>
     <use xlink:href="#m99a6bca9dc" x="109.663636" y="178.396417" style="stroke: #000000"/>
     <use xlink:href="#m99a6bca9dc" x="126.740341" y="178.396417" style="stroke: #000000"/>
     <use xlink:href="#m99a6bca9dc" x="143.817045" y="178.396417" style="stroke: #000000"/>
     <use xlink:href="#m99a6bca9dc" x="160.89375" y="178.396417" style="stroke: #000000"/>
     <use xlink:href="#m99a6bca9dc" x="177.970455" y="178.396417" style="stroke: #000000"/>
     <use xlink:href="#m99a6bca9dc" x="195.047159" y="178.396417" style="stroke: #000000"/>
     <use xlink:href="#m99a6bca9dc" x="212.123864" y="178.396417" style="stroke: #000000"/>
     <use xlink:href="#m99a6bca9dc" x="229.200568" y="178.396417" style="stroke: #000000"/>
     <use xlink:href="#m99a6bca9dc" x="246.277273" y="178.396417" style="stroke: #000000"/>
     <use xlink:href="#m99a6bca9dc" x="263.353977" y="178.396417" style="stroke: #000000"/>
    </g>
   </g>
   <g id="matplotlib.axis_3">
    <g id="xtick_8">
     <g id="line2d_24">
      <g>
       <use xlink:href="#mfca1554d24" x="58.433523" y="253.736458" style="stroke: #000000; stroke-width: 0.8"/>
      </g>
     </g>
    </g>
    <g id="xtick_9">
     <g id="line2d_25">
      <g>
       <use xlink:href="#mfca1554d24" x="92.586932" y="253.736458" style="stroke: #000000; stroke-width: 0.8"/>
      </g>
     </g>
    </g>
    <g id="xtick_10">
     <g id="line2d_26">
      <g>
       <use xlink:href="#mfca1554d24" x="126.740341" y="253.736458" style="stroke: #000000; stroke-width: 0.8"/>
      </g>
     </g>
    </g>
    <g id="xtick_11">
     <g id="line2d_27">
      <g>
       <use xlink:href="#mfca1554d24" x="160.89375" y="253.736458" style="stroke: #000000; stroke-width: 0.8"/>
      </g>
     </g>
    </g>
    <g id="xtick_12">
     <g id="line2d_28">
      <g>
       <use xlink:href="#mfca1554d24" x="195.047159" y="253.736458" style="stroke: #000000; stroke-width: 0.8"/>
      </g>
     </g>
    </g>
    <g id="xtick_13">
     <g id="line2d_29">
      <g>
       <use xlink:href="#mfca1554d24" x="229.200568" y="253.736458" style="stroke: #000000; stroke-width: 0.8"/>
      </g>
     </g>
    </g>
    <g id="xtick_14">
     <g id="line2d_30">
      <g>
       <use xlink:href="#mfca1554d24" x="263.353977" y="253.736458" style="stroke: #000000; stroke-width: 0.8"/>
      </g>
     </g>
    </g>
   </g>
   <g id="matplotlib.axis_4">
    <g id="ytick_6">
     <g id="line2d_31">
      <g>
       <use xlink:href="#mf6ea44b872" x="48.1875" y="253.736458" style="stroke: #000000; stroke-width: 0.8"/>
      </g>
     </g>
     <g id="text_12">
      <!-- 0 -->
      <g transform="translate(34.825 257.535677) scale(0.1 -0.1)">
       <use xlink:href="#DejaVuSans-30"/>
      </g>
     </g>
    </g>
    <g id="ytick_7">
     <g id="line2d_32">
      <g>
       <use xlink:href="#mf6ea44b872" x="48.1875" y="216.060069" style="stroke: #000000; stroke-width: 0.8"/>
      </g>
     </g>
     <g id="text_13">
      <!-- 5 -->
      <g transform="translate(34.825 219.859288) scale(0.1 -0.1)">
       <use xlink:href="#DejaVuSans-35"/>
      </g>
     </g>
    </g>
    <g id="ytick_8">
     <g id="line2d_33">
      <g>
       <use xlink:href="#mf6ea44b872" x="48.1875" y="178.383681" style="stroke: #000000; stroke-width: 0.8"/>
      </g>
     </g>
     <g id="text_14">
      <!-- 10 -->
      <g transform="translate(28.4625 182.182899) scale(0.1 -0.1)">
       <use xlink:href="#DejaVuSans-31"/>
       <use xlink:href="#DejaVuSans-30" transform="translate(63.623047 0)"/>
      </g>
     </g>
    </g>
    <g id="ytick_9">
     <g id="line2d_34">
      <g>
       <use xlink:href="#mf6ea44b872" x="48.1875" y="140.707292" style="stroke: #000000; stroke-width: 0.8"/>
      </g>
     </g>
     <g id="text_15">
      <!-- 15 -->
      <g transform="translate(28.4625 144.50651) scale(0.1 -0.1)">
       <use xlink:href="#DejaVuSans-31"/>
       <use xlink:href="#DejaVuSans-35" transform="translate(63.623047 0)"/>
      </g>
     </g>
    </g>
    <g id="text_16">
     <!-- $M_1$ (# µg cm$^{-3}$) -->
     <g transform="translate(22.3625 236.121875) rotate(-90) scale(0.1 -0.1)">
      <defs>
       <path id="DejaVuSans-b5" d="M 544 -1331 
L 544 3500 
L 1119 3500 
L 1119 1325 
Q 1119 872 1334 640 
Q 1550 409 1972 409 
Q 2434 409 2667 671 
Q 2900 934 2900 1459 
L 2900 3500 
L 3475 3500 
L 3475 806 
Q 3475 619 3529 530 
Q 3584 441 3700 441 
Q 3728 441 3778 458 
Q 3828 475 3916 513 
L 3916 50 
Q 3788 -22 3673 -56 
Q 3559 -91 3450 -91 
Q 3234 -91 3106 31 
Q 2978 153 2931 403 
Q 2775 156 2548 32 
Q 2322 -91 2016 -91 
Q 1697 -91 1473 31 
Q 1250 153 1119 397 
L 1119 -1331 
L 544 -1331 
z
" transform="scale(0.015625)"/>
       <path id="DejaVuSans-67" d="M 2906 1791 
Q 2906 2416 2648 2759 
Q 2391 3103 1925 3103 
Q 1463 3103 1205 2759 
Q 947 2416 947 1791 
Q 947 1169 1205 825 
Q 1463 481 1925 481 
Q 2391 481 2648 825 
Q 2906 1169 2906 1791 
z
M 3481 434 
Q 3481 -459 3084 -895 
Q 2688 -1331 1869 -1331 
Q 1566 -1331 1297 -1286 
Q 1028 -1241 775 -1147 
L 775 -588 
Q 1028 -725 1275 -790 
Q 1522 -856 1778 -856 
Q 2344 -856 2625 -561 
Q 2906 -266 2906 331 
L 2906 616 
Q 2728 306 2450 153 
Q 2172 0 1784 0 
Q 1141 0 747 490 
Q 353 981 353 1791 
Q 353 2603 747 3093 
Q 1141 3584 1784 3584 
Q 2172 3584 2450 3431 
Q 2728 3278 2906 2969 
L 2906 3500 
L 3481 3500 
L 3481 434 
z
" transform="scale(0.015625)"/>
      </defs>
      <use xlink:href="#DejaVuSans-Oblique-4d" transform="translate(0 0.765625)"/>
      <use xlink:href="#DejaVuSans-31" transform="translate(86.279297 -15.640625) scale(0.7)"/>
      <use xlink:href="#DejaVuSans-20" transform="translate(133.549805 0.765625)"/>
      <use xlink:href="#DejaVuSans-28" transform="translate(165.336914 0.765625)"/>
      <use xlink:href="#DejaVuSans-23" transform="translate(204.350586 0.765625)"/>
      <use xlink:href="#DejaVuSans-20" transform="translate(288.139648 0.765625)"/>
      <use xlink:href="#DejaVuSans-b5" transform="translate(319.926758 0.765625)"/>
      <use xlink:href="#DejaVuSans-67" transform="translate(383.549805 0.765625)"/>
      <use xlink:href="#DejaVuSans-20" transform="translate(447.026367 0.765625)"/>
      <use xlink:href="#DejaVuSans-63" transform="translate(478.813477 0.765625)"/>
      <use xlink:href="#DejaVuSans-6d" transform="translate(533.793945 0.765625)"/>
      <use xlink:href="#DejaVuSans-2212" transform="translate(632.163086 39.046875) scale(0.7)"/>
      <use xlink:href="#DejaVuSans-33" transform="translate(690.81543 39.046875) scale(0.7)"/>
      <use xlink:href="#DejaVuSans-29" transform="translate(738.085938 0.765625)"/>
     </g>
    </g>
   </g>
   <g id="line2d_35">
    <path d="M 58.433523 178.383681 
L 75.510227 178.383681 
L 92.586932 178.383681 
L 109.663636 178.383681 
L 126.740341 178.383681 
L 143.817045 178.383681 
L 160.89375 178.383681 
L 177.970455 178.383681 
L 195.047159 178.383681 
L 212.123864 178.383681 
L 229.200568 178.383681 
L 246.277273 178.383681 
L 263.353977 178.383681 
" clip-path="url(#p7747e19c50)" style="fill: none; stroke: #ff0000; stroke-opacity: 0.8; stroke-linecap: square"/>
   </g>
   <g id="line2d_36">
    <path d="M 58.433523 178.383681 
L 75.510227 178.383681 
L 92.586932 178.383681 
L 109.663636 178.383681 
L 126.740341 178.383681 
L 143.817045 178.383681 
L 160.89375 178.383681 
L 177.970455 178.383681 
L 195.047159 178.383681 
L 212.123864 178.383681 
L 229.200568 178.383681 
L 246.277273 178.383681 
L 263.353977 178.383681 
" clip-path="url(#p7747e19c50)" style="fill: none; stroke-dasharray: 9.6,2.4,1.5,2.4; stroke-dashoffset: 0; stroke: #800080; stroke-opacity: 0.8; stroke-width: 1.5"/>
   </g>
   <g id="line2d_37">
    <path d="M 58.433523 178.383681 
L 75.510227 178.383681 
L 92.586932 178.383681 
L 109.663636 178.383681 
L 126.740341 178.383681 
L 143.817045 178.383681 
L 160.89375 178.383681 
L 177.970455 178.383681 
L 195.047159 178.383681 
L 212.123864 178.383681 
L 229.200568 178.383681 
L 246.277273 178.383681 
L 263.353977 178.383681 
" clip-path="url(#p7747e19c50)" style="fill: none; stroke-dasharray: 7.4,3.2; stroke-dashoffset: 0; stroke: #0000ff; stroke-opacity: 0.8; stroke-width: 2"/>
   </g>
   <g id="line2d_38">
    <path d="M 58.433523 178.383681 
L 75.510227 188.624208 
L 92.586932 209.809892 
L 109.663636 226.533193 
L 126.740341 237.237587 
L 143.817045 243.805365 
L 160.89375 247.764744 
L 177.970455 250.142303 
L 195.047159 251.570779 
L 212.123864 252.430311 
L 229.200568 252.948199 
L 246.277273 253.260545 
L 263.353977 253.449048 
" clip-path="url(#p7747e19c50)" style="fill: none; stroke-dasharray: 3.7,1.6; stroke-dashoffset: 0; stroke: #0000ff"/>
   </g>
   <g id="line2d_39">
    <path d="M 58.433523 253.736458 
L 75.510227 243.495931 
L 92.586932 222.310247 
L 109.663636 205.715097 
L 126.740341 204.409221 
L 143.817045 216.016608 
L 160.89375 228.658504 
L 177.970455 237.965166 
L 195.047159 244.049109 
L 212.123864 247.843752 
L 229.200568 250.166106 
L 246.277273 251.576679 
L 263.353977 252.430841 
" clip-path="url(#p7747e19c50)" style="fill: none; stroke-dasharray: 3.7,1.6; stroke-dashoffset: 0; stroke: #0000ff"/>
   </g>
   <g id="line2d_40">
    <path d="M 58.433523 253.736458 
L 75.510227 253.736458 
L 92.586932 253.736458 
L 109.663636 253.608307 
L 126.740341 244.20979 
L 143.817045 226.034624 
L 160.89375 209.494167 
L 177.970455 205.603263 
L 195.047159 215.594353 
L 212.123864 227.893545 
L 229.200568 237.327097 
L 246.277273 243.606007 
L 263.353977 247.557421 
" clip-path="url(#p7747e19c50)" style="fill: none; stroke-dasharray: 3.7,1.6; stroke-dashoffset: 0; stroke: #0000ff"/>
   </g>
   <g id="line2d_41">
    <path d="M 58.433523 253.736458 
L 75.510227 253.736458 
L 92.586932 253.736458 
L 109.663636 253.736458 
L 126.740341 253.736458 
L 143.817045 253.736458 
L 160.89375 253.675641 
L 177.970455 245.882324 
L 195.047159 228.378815 
L 212.123864 211.425447 
L 229.200568 199.151654 
L 246.277273 191.149825 
L 263.353977 186.155745 
" clip-path="url(#p7747e19c50)" style="fill: none; stroke-dasharray: 3.7,1.6; stroke-dashoffset: 0; stroke: #0000ff"/>
   </g>
   <g id="patch_9">
    <path d="M 48.1875 253.736458 
L 48.1875 140.707292 
" style="fill: none; stroke: #000000; stroke-width: 0.8; stroke-linejoin: miter; stroke-linecap: square"/>
   </g>
   <g id="patch_10">
    <path d="M 273.6 253.736458 
L 273.6 140.707292 
" style="fill: none; stroke: #000000; stroke-width: 0.8; stroke-linejoin: miter; stroke-linecap: square"/>
   </g>
   <g id="patch_11">
    <path d="M 48.1875 253.736458 
L 273.6 253.736458 
" style="fill: none; stroke: #000000; stroke-width: 0.8; stroke-linejoin: miter; stroke-linecap: square"/>
   </g>
   <g id="patch_12">
    <path d="M 48.1875 140.707292 
L 273.6 140.707292 
" style="fill: none; stroke: #000000; stroke-width: 0.8; stroke-linejoin: miter; stroke-linecap: square"/>
   </g>
  </g>
  <g id="axes_3">
   <g id="patch_13">
    <path d="M 48.1875 387.24375 
L 273.6 387.24375 
L 273.6 274.214583 
L 48.1875 274.214583 
z
" style="fill: #ffffff"/>
   </g>
   <g id="PathCollection_4">
    <g clip-path="url(#p1f1ea4086f)">
     <use xlink:href="#m99a6bca9dc" x="58.433523" y="381.584225" style="stroke: #000000"/>
     <use xlink:href="#m99a6bca9dc" x="75.510227" y="373.842855" style="stroke: #000000"/>
     <use xlink:href="#m99a6bca9dc" x="92.586932" y="366.473528" style="stroke: #000000"/>
     <use xlink:href="#m99a6bca9dc" x="109.663636" y="358.447125" style="stroke: #000000"/>
     <use xlink:href="#m99a6bca9dc" x="126.740341" y="350.424499" style="stroke: #000000"/>
     <use xlink:href="#m99a6bca9dc" x="143.817045" y="341.781209" style="stroke: #000000"/>
     <use xlink:href="#m99a6bca9dc" x="160.89375" y="334.436432" style="stroke: #000000"/>
     <use xlink:href="#m99a6bca9dc" x="177.970455" y="325.803051" style="stroke: #000000"/>
     <use xlink:href="#m99a6bca9dc" x="195.047159" y="316.603644" style="stroke: #000000"/>
     <use xlink:href="#m99a6bca9dc" x="212.123864" y="307.578059" style="stroke: #000000"/>
     <use xlink:href="#m99a6bca9dc" x="229.200568" y="299.206564" style="stroke: #000000"/>
     <use xlink:href="#m99a6bca9dc" x="246.277273" y="291.209214" style="stroke: #000000"/>
     <use xlink:href="#m99a6bca9dc" x="263.353977" y="282.100591" style="stroke: #000000"/>
    </g>
   </g>
   <g id="matplotlib.axis_5">
    <g id="xtick_15">
     <g id="line2d_42">
      <g>
       <use xlink:href="#mfca1554d24" x="58.433523" y="387.24375" style="stroke: #000000; stroke-width: 0.8"/>
      </g>
     </g>
     <g id="text_17">
      <!-- 0 -->
      <g transform="translate(55.252273 401.842188) scale(0.1 -0.1)">
       <use xlink:href="#DejaVuSans-30"/>
      </g>
     </g>
    </g>
    <g id="xtick_16">
     <g id="line2d_43">
      <g>
       <use xlink:href="#mfca1554d24" x="92.586932" y="387.24375" style="stroke: #000000; stroke-width: 0.8"/>
      </g>
     </g>
     <g id="text_18">
      <!-- 20 -->
      <g transform="translate(86.224432 401.842188) scale(0.1 -0.1)">
       <use xlink:href="#DejaVuSans-32"/>
       <use xlink:href="#DejaVuSans-30" transform="translate(63.623047 0)"/>
      </g>
     </g>
    </g>
    <g id="xtick_17">
     <g id="line2d_44">
      <g>
       <use xlink:href="#mfca1554d24" x="126.740341" y="387.24375" style="stroke: #000000; stroke-width: 0.8"/>
      </g>
     </g>
     <g id="text_19">
      <!-- 40 -->
      <g transform="translate(120.377841 401.842188) scale(0.1 -0.1)">
       <use xlink:href="#DejaVuSans-34"/>
       <use xlink:href="#DejaVuSans-30" transform="translate(63.623047 0)"/>
      </g>
     </g>
    </g>
    <g id="xtick_18">
     <g id="line2d_45">
      <g>
       <use xlink:href="#mfca1554d24" x="160.89375" y="387.24375" style="stroke: #000000; stroke-width: 0.8"/>
      </g>
     </g>
     <g id="text_20">
      <!-- 60 -->
      <g transform="translate(154.53125 401.842188) scale(0.1 -0.1)">
       <defs>
        <path id="DejaVuSans-36" d="M 2113 2584 
Q 1688 2584 1439 2293 
Q 1191 2003 1191 1497 
Q 1191 994 1439 701 
Q 1688 409 2113 409 
Q 2538 409 2786 701 
Q 3034 994 3034 1497 
Q 3034 2003 2786 2293 
Q 2538 2584 2113 2584 
z
M 3366 4563 
L 3366 3988 
Q 3128 4100 2886 4159 
Q 2644 4219 2406 4219 
Q 1781 4219 1451 3797 
Q 1122 3375 1075 2522 
Q 1259 2794 1537 2939 
Q 1816 3084 2150 3084 
Q 2853 3084 3261 2657 
Q 3669 2231 3669 1497 
Q 3669 778 3244 343 
Q 2819 -91 2113 -91 
Q 1303 -91 875 529 
Q 447 1150 447 2328 
Q 447 3434 972 4092 
Q 1497 4750 2381 4750 
Q 2619 4750 2861 4703 
Q 3103 4656 3366 4563 
z
" transform="scale(0.015625)"/>
       </defs>
       <use xlink:href="#DejaVuSans-36"/>
       <use xlink:href="#DejaVuSans-30" transform="translate(63.623047 0)"/>
      </g>
     </g>
    </g>
    <g id="xtick_19">
     <g id="line2d_46">
      <g>
       <use xlink:href="#mfca1554d24" x="195.047159" y="387.24375" style="stroke: #000000; stroke-width: 0.8"/>
      </g>
     </g>
     <g id="text_21">
      <!-- 80 -->
      <g transform="translate(188.684659 401.842188) scale(0.1 -0.1)">
       <defs>
        <path id="DejaVuSans-38" d="M 2034 2216 
Q 1584 2216 1326 1975 
Q 1069 1734 1069 1313 
Q 1069 891 1326 650 
Q 1584 409 2034 409 
Q 2484 409 2743 651 
Q 3003 894 3003 1313 
Q 3003 1734 2745 1975 
Q 2488 2216 2034 2216 
z
M 1403 2484 
Q 997 2584 770 2862 
Q 544 3141 544 3541 
Q 544 4100 942 4425 
Q 1341 4750 2034 4750 
Q 2731 4750 3128 4425 
Q 3525 4100 3525 3541 
Q 3525 3141 3298 2862 
Q 3072 2584 2669 2484 
Q 3125 2378 3379 2068 
Q 3634 1759 3634 1313 
Q 3634 634 3220 271 
Q 2806 -91 2034 -91 
Q 1263 -91 848 271 
Q 434 634 434 1313 
Q 434 1759 690 2068 
Q 947 2378 1403 2484 
z
M 1172 3481 
Q 1172 3119 1398 2916 
Q 1625 2713 2034 2713 
Q 2441 2713 2670 2916 
Q 2900 3119 2900 3481 
Q 2900 3844 2670 4047 
Q 2441 4250 2034 4250 
Q 1625 4250 1398 4047 
Q 1172 3844 1172 3481 
z
" transform="scale(0.015625)"/>
       </defs>
       <use xlink:href="#DejaVuSans-38"/>
       <use xlink:href="#DejaVuSans-30" transform="translate(63.623047 0)"/>
      </g>
     </g>
    </g>
    <g id="xtick_20">
     <g id="line2d_47">
      <g>
       <use xlink:href="#mfca1554d24" x="229.200568" y="387.24375" style="stroke: #000000; stroke-width: 0.8"/>
      </g>
     </g>
     <g id="text_22">
      <!-- 100 -->
      <g transform="translate(219.656818 401.842188) scale(0.1 -0.1)">
       <use xlink:href="#DejaVuSans-31"/>
       <use xlink:href="#DejaVuSans-30" transform="translate(63.623047 0)"/>
       <use xlink:href="#DejaVuSans-30" transform="translate(127.246094 0)"/>
      </g>
     </g>
    </g>
    <g id="xtick_21">
     <g id="line2d_48">
      <g>
       <use xlink:href="#mfca1554d24" x="263.353977" y="387.24375" style="stroke: #000000; stroke-width: 0.8"/>
      </g>
     </g>
     <g id="text_23">
      <!-- 120 -->
      <g transform="translate(253.810227 401.842188) scale(0.1 -0.1)">
       <use xlink:href="#DejaVuSans-31"/>
       <use xlink:href="#DejaVuSans-32" transform="translate(63.623047 0)"/>
       <use xlink:href="#DejaVuSans-30" transform="translate(127.246094 0)"/>
      </g>
     </g>
    </g>
    <g id="text_24">
     <!-- time (s) -->
     <g transform="translate(141.502344 415.520312) scale(0.1 -0.1)">
      <defs>
       <path id="DejaVuSans-74" d="M 1172 4494 
L 1172 3500 
L 2356 3500 
L 2356 3053 
L 1172 3053 
L 1172 1153 
Q 1172 725 1289 603 
Q 1406 481 1766 481 
L 2356 481 
L 2356 0 
L 1766 0 
Q 1100 0 847 248 
Q 594 497 594 1153 
L 594 3053 
L 172 3053 
L 172 3500 
L 594 3500 
L 594 4494 
L 1172 4494 
z
" transform="scale(0.015625)"/>
      </defs>
      <use xlink:href="#DejaVuSans-74"/>
      <use xlink:href="#DejaVuSans-69" transform="translate(39.208984 0)"/>
      <use xlink:href="#DejaVuSans-6d" transform="translate(66.992188 0)"/>
      <use xlink:href="#DejaVuSans-65" transform="translate(164.404297 0)"/>
      <use xlink:href="#DejaVuSans-20" transform="translate(225.927734 0)"/>
      <use xlink:href="#DejaVuSans-28" transform="translate(257.714844 0)"/>
      <use xlink:href="#DejaVuSans-73" transform="translate(296.728516 0)"/>
      <use xlink:href="#DejaVuSans-29" transform="translate(348.828125 0)"/>
     </g>
    </g>
   </g>
   <g id="matplotlib.axis_6">
    <g id="ytick_10">
     <g id="line2d_49">
      <g>
       <use xlink:href="#mf6ea44b872" x="48.1875" y="387.24375" style="stroke: #000000; stroke-width: 0.8"/>
      </g>
     </g>
     <g id="text_25">
      <!-- $\mathdefault{10^{0}}$ -->
      <g transform="translate(23.5875 391.042969) scale(0.1 -0.1)">
       <use xlink:href="#DejaVuSans-31" transform="translate(0 0.765625)"/>
       <use xlink:href="#DejaVuSans-30" transform="translate(63.623047 0.765625)"/>
       <use xlink:href="#DejaVuSans-30" transform="translate(128.203125 39.046875) scale(0.7)"/>
      </g>
     </g>
    </g>
    <g id="ytick_11">
     <g id="line2d_50">
      <g>
       <use xlink:href="#mf6ea44b872" x="48.1875" y="349.567361" style="stroke: #000000; stroke-width: 0.8"/>
      </g>
     </g>
     <g id="text_26">
      <!-- $\mathdefault{10^{2}}$ -->
      <g transform="translate(23.5875 353.36658) scale(0.1 -0.1)">
       <use xlink:href="#DejaVuSans-31" transform="translate(0 0.765625)"/>
       <use xlink:href="#DejaVuSans-30" transform="translate(63.623047 0.765625)"/>
       <use xlink:href="#DejaVuSans-32" transform="translate(128.203125 39.046875) scale(0.7)"/>
      </g>
     </g>
    </g>
    <g id="ytick_12">
     <g id="line2d_51">
      <g>
       <use xlink:href="#mf6ea44b872" x="48.1875" y="311.890972" style="stroke: #000000; stroke-width: 0.8"/>
      </g>
     </g>
     <g id="text_27">
      <!-- $\mathdefault{10^{4}}$ -->
      <g transform="translate(23.5875 315.690191) scale(0.1 -0.1)">
       <use xlink:href="#DejaVuSans-31" transform="translate(0 0.684375)"/>
       <use xlink:href="#DejaVuSans-30" transform="translate(63.623047 0.684375)"/>
       <use xlink:href="#DejaVuSans-34" transform="translate(128.203125 38.965625) scale(0.7)"/>
      </g>
     </g>
    </g>
    <g id="ytick_13">
     <g id="line2d_52">
      <g>
       <use xlink:href="#mf6ea44b872" x="48.1875" y="274.214583" style="stroke: #000000; stroke-width: 0.8"/>
      </g>
     </g>
     <g id="text_28">
      <!-- $\mathdefault{10^{6}}$ -->
      <g transform="translate(23.5875 278.013802) scale(0.1 -0.1)">
       <use xlink:href="#DejaVuSans-31" transform="translate(0 0.765625)"/>
       <use xlink:href="#DejaVuSans-30" transform="translate(63.623047 0.765625)"/>
       <use xlink:href="#DejaVuSans-36" transform="translate(128.203125 39.046875) scale(0.7)"/>
      </g>
     </g>
    </g>
    <g id="text_29">
     <!-- $M_2$ (# µg$^2$ cm$^{-3}$) -->
     <g transform="translate(17.4875 372.029167) rotate(-90) scale(0.1 -0.1)">
      <use xlink:href="#DejaVuSans-Oblique-4d" transform="translate(0 0.765625)"/>
      <use xlink:href="#DejaVuSans-32" transform="translate(86.279297 -15.640625) scale(0.7)"/>
      <use xlink:href="#DejaVuSans-20" transform="translate(133.549805 0.765625)"/>
      <use xlink:href="#DejaVuSans-28" transform="translate(165.336914 0.765625)"/>
      <use xlink:href="#DejaVuSans-23" transform="translate(204.350586 0.765625)"/>
      <use xlink:href="#DejaVuSans-20" transform="translate(288.139648 0.765625)"/>
      <use xlink:href="#DejaVuSans-b5" transform="translate(319.926758 0.765625)"/>
      <use xlink:href="#DejaVuSans-67" transform="translate(383.549805 0.765625)"/>
      <use xlink:href="#DejaVuSans-32" transform="translate(447.983398 39.046875) scale(0.7)"/>
      <use xlink:href="#DejaVuSans-20" transform="translate(495.253906 0.765625)"/>
      <use xlink:href="#DejaVuSans-63" transform="translate(527.041016 0.765625)"/>
      <use xlink:href="#DejaVuSans-6d" transform="translate(582.021484 0.765625)"/>
      <use xlink:href="#DejaVuSans-2212" transform="translate(680.390625 39.046875) scale(0.7)"/>
      <use xlink:href="#DejaVuSans-33" transform="translate(739.042969 39.046875) scale(0.7)"/>
      <use xlink:href="#DejaVuSans-29" transform="translate(786.313477 0.765625)"/>
     </g>
    </g>
   </g>
   <g id="line2d_53">
    <path d="M 58.433523 381.572888 
L 75.510227 373.548407 
L 92.586932 365.523925 
L 109.663636 357.499443 
L 126.740341 349.474961 
L 143.817045 341.450479 
L 160.89375 333.425998 
L 177.970455 325.401516 
L 195.047159 317.377034 
L 212.123864 309.352552 
L 229.200568 301.32807 
L 246.277273 293.303589 
L 263.353977 285.279107 
" clip-path="url(#p1f1ea4086f)" style="fill: none; stroke: #ff0000; stroke-opacity: 0.8; stroke-linecap: square"/>
   </g>
   <g id="line2d_54">
    <path d="M 58.433523 381.572888 
L 75.510227 373.473024 
L 92.586932 365.417214 
L 109.663636 357.392733 
L 126.740341 349.368251 
L 143.817045 341.343769 
L 160.89375 333.319287 
L 177.970455 325.294805 
L 195.047159 317.270324 
L 212.123864 309.245842 
L 229.200568 301.22136 
L 246.277273 293.196878 
L 263.353977 285.172396 
" clip-path="url(#p1f1ea4086f)" style="fill: none; stroke-dasharray: 9.6,2.4,1.5,2.4; stroke-dashoffset: 0; stroke: #800080; stroke-opacity: 0.8; stroke-width: 1.5"/>
   </g>
   <g id="line2d_55">
    <path d="M 58.433523 381.572888 
L 75.510227 373.473024 
L 92.586932 365.417214 
L 109.663636 357.392235 
L 126.740341 349.295903 
L 143.817045 341.250039 
L 160.89375 333.225341 
L 177.970455 325.136871 
L 195.047159 317.086526 
L 212.123864 309.062045 
L 229.200568 301.037563 
L 246.277273 293.013081 
L 263.353977 284.988599 
" clip-path="url(#p1f1ea4086f)" style="fill: none; stroke-dasharray: 7.4,3.2; stroke-dashoffset: 0; stroke: #0000ff; stroke-opacity: 0.8; stroke-width: 2"/>
   </g>
   <g id="line2d_56">
    <path d="M 58.433523 381.572888 
L 75.510227 378.388812 
L 92.586932 380.83491 
L 109.663636 384.629149 
L 126.740341 388.63057 
L 143.817045 392.740171 
L 160.89375 396.880114 
L 177.970455 401.022997 
L 195.047159 405.161554 
L 212.123864 409.295174 
L 229.200568 413.424944 
L 246.277273 417.552066 
L 263.353977 421.677471 
" clip-path="url(#p1f1ea4086f)" style="fill: none; stroke-dasharray: 3.7,1.6; stroke-dashoffset: 0; stroke: #0000ff"/>
   </g>
   <g id="line2d_57">
    <path d="M 75.468704 425.8 
L 75.510227 379.975798 
L 92.586932 366.765192 
L 109.663636 357.784698 
L 126.740341 354.519169 
L 143.817045 355.877061 
L 160.89375 359.013338 
L 177.970455 362.735254 
L 195.047159 366.693467 
L 212.123864 370.748437 
L 229.200568 374.842601 
L 246.277273 378.952754 
L 263.353977 383.069607 
" clip-path="url(#p1f1ea4086f)" style="fill: none; stroke-dasharray: 3.7,1.6; stroke-dashoffset: 0; stroke: #0000ff"/>
   </g>
   <g id="line2d_58">
    <path d="M 107.185716 425.8 
L 109.663636 394.277757 
L 126.740341 355.583079 
L 143.817045 342.766252 
L 160.89375 333.635996 
L 177.970455 329.59906 
L 195.047159 330.563358 
L 212.123864 333.513771 
L 229.200568 337.152794 
L 246.277273 341.069953 
L 263.353977 345.103736 
" clip-path="url(#p1f1ea4086f)" style="fill: none; stroke-dasharray: 3.7,1.6; stroke-dashoffset: 0; stroke: #0000ff"/>
   </g>
   <g id="line2d_59">
    <path d="M 158.088849 425.8 
L 160.89375 375.396004 
L 177.970455 332.427188 
L 195.047159 318.860378 
L 212.123864 309.489341 
L 229.200568 301.13819 
L 246.277273 293.036344 
L 263.353977 284.993921 
" clip-path="url(#p1f1ea4086f)" style="fill: none; stroke-dasharray: 3.7,1.6; stroke-dashoffset: 0; stroke: #0000ff"/>
   </g>
   <g id="patch_14">
    <path d="M 48.1875 387.24375 
L 48.1875 274.214583 
" style="fill: none; stroke: #000000; stroke-width: 0.8; stroke-linejoin: miter; stroke-linecap: square"/>
   </g>
   <g id="patch_15">
    <path d="M 273.6 387.24375 
L 273.6 274.214583 
" style="fill: none; stroke: #000000; stroke-width: 0.8; stroke-linejoin: miter; stroke-linecap: square"/>
   </g>
   <g id="patch_16">
    <path d="M 48.1875 387.24375 
L 273.6 387.24375 
" style="fill: none; stroke: #000000; stroke-width: 0.8; stroke-linejoin: miter; stroke-linecap: square"/>
   </g>
   <g id="patch_17">
    <path d="M 48.1875 274.214583 
L 273.6 274.214583 
" style="fill: none; stroke: #000000; stroke-width: 0.8; stroke-linejoin: miter; stroke-linecap: square"/>
   </g>
  </g>
 </g>
 <defs>
  <clipPath id="pb995e56916">
   <rect x="48.1875" y="7.2" width="225.4125" height="113.029167"/>
  </clipPath>
  <clipPath id="p7747e19c50">
   <rect x="48.1875" y="140.707292" width="225.4125" height="113.029167"/>
  </clipPath>
  <clipPath id="p1f1ea4086f">
   <rect x="48.1875" y="274.214583" width="225.4125" height="113.029167"/>
  </clipPath>
 </defs>
</svg>
