<?xml version="1.0" encoding="utf-8" standalone="no"?>
<!DOCTYPE svg PUBLIC "-//W3C//DTD SVG 1.1//EN"
  "http://www.w3.org/Graphics/SVG/1.1/DTD/svg11.dtd">
<svg xmlns:xlink="http://www.w3.org/1999/xlink" width="511.628125pt" height="377.39625pt" viewBox="0 0 511.628125 377.39625" xmlns="http://www.w3.org/2000/svg" version="1.1">
 <metadata>
  <rdf:RDF xmlns:dc="http://purl.org/dc/elements/1.1/" xmlns:cc="http://creativecommons.org/ns#" xmlns:rdf="http://www.w3.org/1999/02/22-rdf-syntax-ns#">
   <cc:Work>
    <dc:type rdf:resource="http://purl.org/dc/dcmitype/StillImage"/>
    <dc:date>2026-03-24T17:10:46.568125</dc:date>
    <dc:format>image/svg+xml</dc:format>
    <dc:creator>
     <cc:Agent>
      <dc:title>Matplotlib v3.10.6, https://matplotlib.org/</dc:title>
     </cc:Agent>
    </dc:creator>
   </cc:Work>
  </rdf:RDF>
 </metadata>
 <defs>
  <style type="text/css">*{stroke-linejoin: round; stroke-linecap: butt}</style>
 </defs>
 <g id="figure_1">
  <g id="patch_1">
   <path d="M 0 377.39625 
L 511.628125 377.39625 
L 511.628125 0 
L 0 0 
z
" style="fill: #ffffff"/>
  </g>
  <g id="axes_1">
   <g id="patch_2">
    <path d="M 58.028125 339.84 
L 504.428125 339.84 
L 504.428125 7.2 
L 58.028125 7.2 
z
" style="fill: #ffffff"/>
   </g>
   <g id="matplotlib.axis_1">
    <g id="xtick_1">
     <g id="line2d_1">
      <defs>
       <path id="m3b440f952b" d="M 0 0 
L 0 3.5 
" style="stroke: #000000; stroke-width: 0.8"/>
      </defs>
      <g>
       <use xlink:href="#m3b440f952b" x="91.929418" y="339.84" style="stroke: #000000; stroke-width: 0.8"/>
      </g>
     </g>
     <g id="text_1">
      <!-- $\mathdefault{10^{1}}$ -->
      <g transform="translate(83.129418 354.438437) scale(0.1 -0.1)">
       <defs>
        <path id="DejaVuSans-31" d="M 794 531 
L 1825 531 
L 1825 4091 
L 703 3866 
L 703 4441 
L 1819 4666 
L 2450 4666 
L 2450 531 
L 3481 531 
L 3481 0 
L 794 0 
L 794 531 
z
" transform="scale(0.015625)"/>
        <path id="DejaVuSans-30" d="M 2034 4250 
Q 1547 4250 1301 3770 
Q 1056 3291 1056 2328 
Q 1056 1369 1301 889 
Q 1547 409 2034 409 
Q 2525 409 2770 889 
Q 3016 1369 3016 2328 
Q 3016 3291 2770 3770 
Q 2525 4250 2034 4250 
z
M 2034 4750 
Q 2819 4750 3233 4129 
Q 3647 3509 3647 2328 
Q 3647 1150 3233 529 
Q 2819 -91 2034 -91 
Q 1250 -91 836 529 
Q 422 1150 422 2328 
Q 422 3509 836 4129 
Q 1250 4750 2034 4750 
z
" transform="scale(0.015625)"/>
       </defs>
       <use xlink:href="#DejaVuSans-31" transform="translate(0 0.684375)"/>
       <use xlink:href="#DejaVuSans-30" transform="translate(63.623047 0.684375)"/>
       <use xlink:href="#DejaVuSans-31" transform="translate(128.203125 38.965625) scale(0.7)"/>
      </g>
     </g>
    </g>
    <g id="xtick_2">
     <g id="line2d_2">
      <g>
       <use xlink:href="#m3b440f952b" x="232.372941" y="339.84" style="stroke: #000000; stroke-width: 0.8"/>
      </g>
     </g>
     <g id="text_2">
      <!-- $\mathdefault{10^{2}}$ -->
      <g transform="translate(223.572941 354.438437) scale(0.1 -0.1)">
       <defs>
        <path id="DejaVuSans-32" d="M 1228 531 
L 3431 531 
L 3431 0 
L 469 0 
L 469 531 
Q 828 903 1448 1529 
Q 2069 2156 2228 2338 
Q 2531 2678 2651 2914 
Q 2772 3150 2772 3378 
Q 2772 3750 2511 3984 
Q 2250 4219 1831 4219 
Q 1534 4219 1204 4116 
Q 875 4013 500 3803 
L 500 4441 
Q 881 4594 1212 4672 
Q 1544 4750 1819 4750 
Q 2544 4750 2975 4387 
Q 3406 4025 3406 3419 
Q 3406 3131 3298 2873 
Q 3191 2616 2906 2266 
Q 2828 2175 2409 1742 
Q 1991 1309 1228 531 
z
" transform="scale(0.015625)"/>
       </defs>
       <use xlink:href="#DejaVuSans-31" transform="translate(0 0.765625)"/>
       <use xlink:href="#DejaVuSans-30" transform="translate(63.623047 0.765625)"/>
       <use xlink:href="#DejaVuSans-32" transform="translate(128.203125 39.046875) scale(0.7)"/>
      </g>
     </g>
    </g>
    <g id="xtick_3">
     <g id="line2d_3">
      <g>
       <use xlink:href="#m3b440f952b" x="372.816465" y="339.84" style="stroke: #000000; stroke-width: 0.8"/>
      </g>
     </g>
     <g id="text_3">
      <!-- $\mathdefault{10^{3}}$ -->
      <g transform="translate(364.016465 354.438437) scale(0.1 -0.1)">
       <defs>
        <path id="DejaVuSans-33" d="M 2597 2516 
Q 3050 2419 3304 2112 
Q 3559 1806 3559 1356 
Q 3559 666 3084 287 
Q 2609 -91 1734 -91 
Q 1441 -91 1130 -33 
Q 819 25 488 141 
L 488 750 
Q 750 597 1062 519 
Q 1375 441 1716 441 
Q 2309 441 2620 675 
Q 2931 909 2931 1356 
Q 2931 1769 2642 2001 
Q 2353 2234 1838 2234 
L 1294 2234 
L 1294 2753 
L 1863 2753 
Q 2328 2753 2575 2939 
Q 2822 3125 2822 3475 
Q 2822 3834 2567 4026 
Q 2313 4219 1838 4219 
Q 1578 4219 1281 4162 
Q 984 4106 628 3988 
L 628 4550 
Q 988 4650 1302 4700 
Q 1616 4750 1894 4750 
Q 2613 4750 3031 4423 
Q 3450 4097 3450 3541 
Q 3450 3153 3228 2886 
Q 3006 2619 2597 2516 
z
" transform="scale(0.015625)"/>
       </defs>
       <use xlink:href="#DejaVuSans-31" transform="translate(0 0.765625)"/>
       <use xlink:href="#DejaVuSans-30" transform="translate(63.623047 0.765625)"/>
       <use xlink:href="#DejaVuSans-33" transform="translate(128.203125 39.046875) scale(0.7)"/>
      </g>
     </g>
    </g>
    <g id="xtick_4">
     <g id="line2d_4">
      <defs>
       <path id="m6768568ba6" d="M 0 0 
L 0 2 
" style="stroke: #000000; stroke-width: 0.6"/>
      </defs>
      <g>
       <use xlink:href="#m6768568ba6" x="60.772198" y="339.84" style="stroke: #000000; stroke-width: 0.6"/>
      </g>
     </g>
    </g>
    <g id="xtick_5">
     <g id="line2d_5">
      <g>
       <use xlink:href="#m6768568ba6" x="70.174441" y="339.84" style="stroke: #000000; stroke-width: 0.6"/>
      </g>
     </g>
    </g>
    <g id="xtick_6">
     <g id="line2d_6">
      <g>
       <use xlink:href="#m6768568ba6" x="78.319034" y="339.84" style="stroke: #000000; stroke-width: 0.6"/>
      </g>
     </g>
    </g>
    <g id="xtick_7">
     <g id="line2d_7">
      <g>
       <use xlink:href="#m6768568ba6" x="85.503075" y="339.84" style="stroke: #000000; stroke-width: 0.6"/>
      </g>
     </g>
    </g>
    <g id="xtick_8">
     <g id="line2d_8">
      <g>
       <use xlink:href="#m6768568ba6" x="134.207131" y="339.84" style="stroke: #000000; stroke-width: 0.6"/>
      </g>
     </g>
    </g>
    <g id="xtick_9">
     <g id="line2d_9">
      <g>
       <use xlink:href="#m6768568ba6" x="158.938008" y="339.84" style="stroke: #000000; stroke-width: 0.6"/>
      </g>
     </g>
    </g>
    <g id="xtick_10">
     <g id="line2d_10">
      <g>
       <use xlink:href="#m6768568ba6" x="176.484844" y="339.84" style="stroke: #000000; stroke-width: 0.6"/>
      </g>
     </g>
    </g>
    <g id="xtick_11">
     <g id="line2d_11">
      <g>
       <use xlink:href="#m6768568ba6" x="190.095228" y="339.84" style="stroke: #000000; stroke-width: 0.6"/>
      </g>
     </g>
    </g>
    <g id="xtick_12">
     <g id="line2d_12">
      <g>
       <use xlink:href="#m6768568ba6" x="201.215721" y="339.84" style="stroke: #000000; stroke-width: 0.6"/>
      </g>
     </g>
    </g>
    <g id="xtick_13">
     <g id="line2d_13">
      <g>
       <use xlink:href="#m6768568ba6" x="210.617964" y="339.84" style="stroke: #000000; stroke-width: 0.6"/>
      </g>
     </g>
    </g>
    <g id="xtick_14">
     <g id="line2d_14">
      <g>
       <use xlink:href="#m6768568ba6" x="218.762557" y="339.84" style="stroke: #000000; stroke-width: 0.6"/>
      </g>
     </g>
    </g>
    <g id="xtick_15">
     <g id="line2d_15">
      <g>
       <use xlink:href="#m6768568ba6" x="225.946598" y="339.84" style="stroke: #000000; stroke-width: 0.6"/>
      </g>
     </g>
    </g>
    <g id="xtick_16">
     <g id="line2d_16">
      <g>
       <use xlink:href="#m6768568ba6" x="274.650654" y="339.84" style="stroke: #000000; stroke-width: 0.6"/>
      </g>
     </g>
    </g>
    <g id="xtick_17">
     <g id="line2d_17">
      <g>
       <use xlink:href="#m6768568ba6" x="299.381531" y="339.84" style="stroke: #000000; stroke-width: 0.6"/>
      </g>
     </g>
    </g>
    <g id="xtick_18">
     <g id="line2d_18">
      <g>
       <use xlink:href="#m6768568ba6" x="316.928368" y="339.84" style="stroke: #000000; stroke-width: 0.6"/>
      </g>
     </g>
    </g>
    <g id="xtick_19">
     <g id="line2d_19">
      <g>
       <use xlink:href="#m6768568ba6" x="330.538751" y="339.84" style="stroke: #000000; stroke-width: 0.6"/>
      </g>
     </g>
    </g>
    <g id="xtick_20">
     <g id="line2d_20">
      <g>
       <use xlink:href="#m6768568ba6" x="341.659245" y="339.84" style="stroke: #000000; stroke-width: 0.6"/>
      </g>
     </g>
    </g>
    <g id="xtick_21">
     <g id="line2d_21">
      <g>
       <use xlink:href="#m6768568ba6" x="351.061488" y="339.84" style="stroke: #000000; stroke-width: 0.6"/>
      </g>
     </g>
    </g>
    <g id="xtick_22">
     <g id="line2d_22">
      <g>
       <use xlink:href="#m6768568ba6" x="359.206081" y="339.84" style="stroke: #000000; stroke-width: 0.6"/>
      </g>
     </g>
    </g>
    <g id="xtick_23">
     <g id="line2d_23">
      <g>
       <use xlink:href="#m6768568ba6" x="366.390121" y="339.84" style="stroke: #000000; stroke-width: 0.6"/>
      </g>
     </g>
    </g>
    <g id="xtick_24">
     <g id="line2d_24">
      <g>
       <use xlink:href="#m6768568ba6" x="415.094178" y="339.84" style="stroke: #000000; stroke-width: 0.6"/>
      </g>
     </g>
    </g>
    <g id="xtick_25">
     <g id="line2d_25">
      <g>
       <use xlink:href="#m6768568ba6" x="439.825055" y="339.84" style="stroke: #000000; stroke-width: 0.6"/>
      </g>
     </g>
    </g>
    <g id="xtick_26">
     <g id="line2d_26">
      <g>
       <use xlink:href="#m6768568ba6" x="457.371891" y="339.84" style="stroke: #000000; stroke-width: 0.6"/>
      </g>
     </g>
    </g>
    <g id="xtick_27">
     <g id="line2d_27">
      <g>
       <use xlink:href="#m6768568ba6" x="470.982275" y="339.84" style="stroke: #000000; stroke-width: 0.6"/>
      </g>
     </g>
    </g>
    <g id="xtick_28">
     <g id="line2d_28">
      <g>
       <use xlink:href="#m6768568ba6" x="482.102768" y="339.84" style="stroke: #000000; stroke-width: 0.6"/>
      </g>
     </g>
    </g>
    <g id="xtick_29">
     <g id="line2d_29">
      <g>
       <use xlink:href="#m6768568ba6" x="491.505011" y="339.84" style="stroke: #000000; stroke-width: 0.6"/>
      </g>
     </g>
    </g>
    <g id="xtick_30">
     <g id="line2d_30">
      <g>
       <use xlink:href="#m6768568ba6" x="499.649604" y="339.84" style="stroke: #000000; stroke-width: 0.6"/>
      </g>
     </g>
    </g>
    <g id="text_4">
     <!-- particle radius (um) -->
     <g transform="translate(231.795312 368.116562) scale(0.1 -0.1)">
      <defs>
       <path id="DejaVuSans-70" d="M 1159 525 
L 1159 -1331 
L 581 -1331 
L 581 3500 
L 1159 3500 
L 1159 2969 
Q 1341 3281 1617 3432 
Q 1894 3584 2278 3584 
Q 2916 3584 3314 3078 
Q 3713 2572 3713 1747 
Q 3713 922 3314 415 
Q 2916 -91 2278 -91 
Q 1894 -91 1617 61 
Q 1341 213 1159 525 
z
M 3116 1747 
Q 3116 2381 2855 2742 
Q 2594 3103 2138 3103 
Q 1681 3103 1420 2742 
Q 1159 2381 1159 1747 
Q 1159 1113 1420 752 
Q 1681 391 2138 391 
Q 2594 391 2855 752 
Q 3116 1113 3116 1747 
z
" transform="scale(0.015625)"/>
       <path id="DejaVuSans-61" d="M 2194 1759 
Q 1497 1759 1228 1600 
Q 959 1441 959 1056 
Q 959 750 1161 570 
Q 1363 391 1709 391 
Q 2188 391 2477 730 
Q 2766 1069 2766 1631 
L 2766 1759 
L 2194 1759 
z
M 3341 1997 
L 3341 0 
L 2766 0 
L 2766 531 
Q 2569 213 2275 61 
Q 1981 -91 1556 -91 
Q 1019 -91 701 211 
Q 384 513 384 1019 
Q 384 1609 779 1909 
Q 1175 2209 1959 2209 
L 2766 2209 
L 2766 2266 
Q 2766 2663 2505 2880 
Q 2244 3097 1772 3097 
Q 1472 3097 1187 3025 
Q 903 2953 641 2809 
L 641 3341 
Q 956 3463 1253 3523 
Q 1550 3584 1831 3584 
Q 2591 3584 2966 3190 
Q 3341 2797 3341 1997 
z
" transform="scale(0.015625)"/>
       <path id="DejaVuSans-72" d="M 2631 2963 
Q 2534 3019 2420 3045 
Q 2306 3072 2169 3072 
Q 1681 3072 1420 2755 
Q 1159 2438 1159 1844 
L 1159 0 
L 581 0 
L 581 3500 
L 1159 3500 
L 1159 2956 
Q 1341 3275 1631 3429 
Q 1922 3584 2338 3584 
Q 2397 3584 2469 3576 
Q 2541 3569 2628 3553 
L 2631 2963 
z
" transform="scale(0.015625)"/>
       <path id="DejaVuSans-74" d="M 1172 4494 
L 1172 3500 
L 2356 3500 
L 2356 3053 
L 1172 3053 
L 1172 1153 
Q 1172 725 1289 603 
Q 1406 481 1766 481 
L 2356 481 
L 2356 0 
L 1766 0 
Q 1100 0 847 248 
Q 594 497 594 1153 
L 594 3053 
L 172 3053 
L 172 3500 
L 594 3500 
L 594 4494 
L 1172 4494 
z
" transform="scale(0.015625)"/>
       <path id="DejaVuSans-69" d="M 603 3500 
L 1178 3500 
L 1178 0 
L 603 0 
L 603 3500 
z
M 603 4863 
L 1178 4863 
L 1178 4134 
L 603 4134 
L 603 4863 
z
" transform="scale(0.015625)"/>
       <path id="DejaVuSans-63" d="M 3122 3366 
L 3122 2828 
Q 2878 2963 2633 3030 
Q 2388 3097 2138 3097 
Q 1578 3097 1268 2742 
Q 959 2388 959 1747 
Q 959 1106 1268 751 
Q 1578 397 2138 397 
Q 2388 397 2633 464 
Q 2878 531 3122 666 
L 3122 134 
Q 2881 22 2623 -34 
Q 2366 -91 2075 -91 
Q 1284 -91 818 406 
Q 353 903 353 1747 
Q 353 2603 823 3093 
Q 1294 3584 2113 3584 
Q 2378 3584 2631 3529 
Q 2884 3475 3122 3366 
z
" transform="scale(0.015625)"/>
       <path id="DejaVuSans-6c" d="M 603 4863 
L 1178 4863 
L 1178 0 
L 603 0 
L 603 4863 
z
" transform="scale(0.015625)"/>
       <path id="DejaVuSans-65" d="M 3597 1894 
L 3597 1613 
L 953 1613 
Q 991 1019 1311 708 
Q 1631 397 2203 397 
Q 2534 397 2845 478 
Q 3156 559 3463 722 
L 3463 178 
Q 3153 47 2828 -22 
Q 2503 -91 2169 -91 
Q 1331 -91 842 396 
Q 353 884 353 1716 
Q 353 2575 817 3079 
Q 1281 3584 2069 3584 
Q 2775 3584 3186 3129 
Q 3597 2675 3597 1894 
z
M 3022 2063 
Q 3016 2534 2758 2815 
Q 2500 3097 2075 3097 
Q 1594 3097 1305 2825 
Q 1016 2553 972 2059 
L 3022 2063 
z
" transform="scale(0.015625)"/>
       <path id="DejaVuSans-20" transform="scale(0.015625)"/>
       <path id="DejaVuSans-64" d="M 2906 2969 
L 2906 4863 
L 3481 4863 
L 3481 0 
L 2906 0 
L 2906 525 
Q 2725 213 2448 61 
Q 2172 -91 1784 -91 
Q 1150 -91 751 415 
Q 353 922 353 1747 
Q 353 2572 751 3078 
Q 1150 3584 1784 3584 
Q 2172 3584 2448 3432 
Q 2725 3281 2906 2969 
z
M 947 1747 
Q 947 1113 1208 752 
Q 1469 391 1925 391 
Q 2381 391 2643 752 
Q 2906 1113 2906 1747 
Q 2906 2381 2643 2742 
Q 2381 3103 1925 3103 
Q 1469 3103 1208 2742 
Q 947 2381 947 1747 
z
" transform="scale(0.015625)"/>
       <path id="DejaVuSans-75" d="M 544 1381 
L 544 3500 
L 1119 3500 
L 1119 1403 
Q 1119 906 1312 657 
Q 1506 409 1894 409 
Q 2359 409 2629 706 
Q 2900 1003 2900 1516 
L 2900 3500 
L 3475 3500 
L 3475 0 
L 2900 0 
L 2900 538 
Q 2691 219 2414 64 
Q 2138 -91 1772 -91 
Q 1169 -91 856 284 
Q 544 659 544 1381 
z
M 1991 3584 
L 1991 3584 
z
" transform="scale(0.015625)"/>
       <path id="DejaVuSans-73" d="M 2834 3397 
L 2834 2853 
Q 2591 2978 2328 3040 
Q 2066 3103 1784 3103 
Q 1356 3103 1142 2972 
Q 928 2841 928 2578 
Q 928 2378 1081 2264 
Q 1234 2150 1697 2047 
L 1894 2003 
Q 2506 1872 2764 1633 
Q 3022 1394 3022 966 
Q 3022 478 2636 193 
Q 2250 -91 1575 -91 
Q 1294 -91 989 -36 
Q 684 19 347 128 
L 347 722 
Q 666 556 975 473 
Q 1284 391 1588 391 
Q 1994 391 2212 530 
Q 2431 669 2431 922 
Q 2431 1156 2273 1281 
Q 2116 1406 1581 1522 
L 1381 1569 
Q 847 1681 609 1914 
Q 372 2147 372 2553 
Q 372 3047 722 3315 
Q 1072 3584 1716 3584 
Q 2034 3584 2315 3537 
Q 2597 3491 2834 3397 
z
" transform="scale(0.015625)"/>
       <path id="DejaVuSans-28" d="M 1984 4856 
Q 1566 4138 1362 3434 
Q 1159 2731 1159 2009 
Q 1159 1288 1364 580 
Q 1569 -128 1984 -844 
L 1484 -844 
Q 1016 -109 783 600 
Q 550 1309 550 2009 
Q 550 2706 781 3412 
Q 1013 4119 1484 4856 
L 1984 4856 
z
" transform="scale(0.015625)"/>
       <path id="DejaVuSans-6d" d="M 3328 2828 
Q 3544 3216 3844 3400 
Q 4144 3584 4550 3584 
Q 5097 3584 5394 3201 
Q 5691 2819 5691 2113 
L 5691 0 
L 5113 0 
L 5113 2094 
Q 5113 2597 4934 2840 
Q 4756 3084 4391 3084 
Q 3944 3084 3684 2787 
Q 3425 2491 3425 1978 
L 3425 0 
L 2847 0 
L 2847 2094 
Q 2847 2600 2669 2842 
Q 2491 3084 2119 3084 
Q 1678 3084 1418 2786 
Q 1159 2488 1159 1978 
L 1159 0 
L 581 0 
L 581 3500 
L 1159 3500 
L 1159 2956 
Q 1356 3278 1631 3431 
Q 1906 3584 2284 3584 
Q 2666 3584 2933 3390 
Q 3200 3197 3328 2828 
z
" transform="scale(0.015625)"/>
       <path id="DejaVuSans-29" d="M 513 4856 
L 1013 4856 
Q 1481 4119 1714 3412 
Q 1947 2706 1947 2009 
Q 1947 1309 1714 600 
Q 1481 -109 1013 -844 
L 513 -844 
Q 928 -128 1133 580 
Q 1338 1288 1338 2009 
Q 1338 2731 1133 3434 
Q 928 4138 513 4856 
z
" transform="scale(0.015625)"/>
      </defs>
      <use xlink:href="#DejaVuSans-70"/>
      <use xlink:href="#DejaVuSans-61" transform="translate(63.476562 0)"/>
      <use xlink:href="#DejaVuSans-72" transform="translate(124.755859 0)"/>
      <use xlink:href="#DejaVuSans-74" transform="translate(165.869141 0)"/>
      <use xlink:href="#DejaVuSans-69" transform="translate(205.078125 0)"/>
      <use xlink:href="#DejaVuSans-63" transform="translate(232.861328 0)"/>
      <use xlink:href="#DejaVuSans-6c" transform="translate(287.841797 0)"/>
      <use xlink:href="#DejaVuSans-65" transform="translate(315.625 0)"/>
      <use xlink:href="#DejaVuSans-20" transform="translate(377.148438 0)"/>
      <use xlink:href="#DejaVuSans-72" transform="translate(408.935547 0)"/>
      <use xlink:href="#DejaVuSans-61" transform="translate(450.048828 0)"/>
      <use xlink:href="#DejaVuSans-64" transform="translate(511.328125 0)"/>
      <use xlink:href="#DejaVuSans-69" transform="translate(574.804688 0)"/>
      <use xlink:href="#DejaVuSans-75" transform="translate(602.587891 0)"/>
      <use xlink:href="#DejaVuSans-73" transform="translate(665.966797 0)"/>
      <use xlink:href="#DejaVuSans-20" transform="translate(718.066406 0)"/>
      <use xlink:href="#DejaVuSans-28" transform="translate(749.853516 0)"/>
      <use xlink:href="#DejaVuSans-75" transform="translate(788.867188 0)"/>
      <use xlink:href="#DejaVuSans-6d" transform="translate(852.246094 0)"/>
      <use xlink:href="#DejaVuSans-29" transform="translate(949.658203 0)"/>
     </g>
    </g>
   </g>
   <g id="matplotlib.axis_2">
    <g id="ytick_1">
     <g id="line2d_31">
      <defs>
       <path id="mf112d99ee2" d="M 0 0 
L -3.5 0 
" style="stroke: #000000; stroke-width: 0.8"/>
      </defs>
      <g>
       <use xlink:href="#mf112d99ee2" x="58.028125" y="324.72" style="stroke: #000000; stroke-width: 0.8"/>
      </g>
     </g>
     <g id="text_5">
      <!-- 0.000 -->
      <g transform="translate(22.4 328.519219) scale(0.1 -0.1)">
       <defs>
        <path id="DejaVuSans-2e" d="M 684 794 
L 1344 794 
L 1344 0 
L 684 0 
L 684 794 
z
" transform="scale(0.015625)"/>
       </defs>
       <use xlink:href="#DejaVuSans-30"/>
       <use xlink:href="#DejaVuSans-2e" transform="translate(63.623047 0)"/>
       <use xlink:href="#DejaVuSans-30" transform="translate(95.410156 0)"/>
       <use xlink:href="#DejaVuSans-30" transform="translate(159.033203 0)"/>
       <use xlink:href="#DejaVuSans-30" transform="translate(222.65625 0)"/>
      </g>
     </g>
    </g>
    <g id="ytick_2">
     <g id="line2d_32">
      <g>
       <use xlink:href="#mf112d99ee2" x="58.028125" y="287.466278" style="stroke: #000000; stroke-width: 0.8"/>
      </g>
     </g>
     <g id="text_6">
      <!-- 0.002 -->
      <g transform="translate(22.4 291.265497) scale(0.1 -0.1)">
       <use xlink:href="#DejaVuSans-30"/>
       <use xlink:href="#DejaVuSans-2e" transform="translate(63.623047 0)"/>
       <use xlink:href="#DejaVuSans-30" transform="translate(95.410156 0)"/>
       <use xlink:href="#DejaVuSans-30" transform="translate(159.033203 0)"/>
       <use xlink:href="#DejaVuSans-32" transform="translate(222.65625 0)"/>
      </g>
     </g>
    </g>
    <g id="ytick_3">
     <g id="line2d_33">
      <g>
       <use xlink:href="#mf112d99ee2" x="58.028125" y="250.212557" style="stroke: #000000; stroke-width: 0.8"/>
      </g>
     </g>
     <g id="text_7">
      <!-- 0.004 -->
      <g transform="translate(22.4 254.011776) scale(0.1 -0.1)">
       <defs>
        <path id="DejaVuSans-34" d="M 2419 4116 
L 825 1625 
L 2419 1625 
L 2419 4116 
z
M 2253 4666 
L 3047 4666 
L 3047 1625 
L 3713 1625 
L 3713 1100 
L 3047 1100 
L 3047 0 
L 2419 0 
L 2419 1100 
L 313 1100 
L 313 1709 
L 2253 4666 
z
" transform="scale(0.015625)"/>
       </defs>
       <use xlink:href="#DejaVuSans-30"/>
       <use xlink:href="#DejaVuSans-2e" transform="translate(63.623047 0)"/>
       <use xlink:href="#DejaVuSans-30" transform="translate(95.410156 0)"/>
       <use xlink:href="#DejaVuSans-30" transform="translate(159.033203 0)"/>
       <use xlink:href="#DejaVuSans-34" transform="translate(222.65625 0)"/>
      </g>
     </g>
    </g>
    <g id="ytick_4">
     <g id="line2d_34">
      <g>
       <use xlink:href="#mf112d99ee2" x="58.028125" y="212.958835" style="stroke: #000000; stroke-width: 0.8"/>
      </g>
     </g>
     <g id="text_8">
      <!-- 0.006 -->
      <g transform="translate(22.4 216.758054) scale(0.1 -0.1)">
       <defs>
        <path id="DejaVuSans-36" d="M 2113 2584 
Q 1688 2584 1439 2293 
Q 1191 2003 1191 1497 
Q 1191 994 1439 701 
Q 1688 409 2113 409 
Q 2538 409 2786 701 
Q 3034 994 3034 1497 
Q 3034 2003 2786 2293 
Q 2538 2584 2113 2584 
z
M 3366 4563 
L 3366 3988 
Q 3128 4100 2886 4159 
Q 2644 4219 2406 4219 
Q 1781 4219 1451 3797 
Q 1122 3375 1075 2522 
Q 1259 2794 1537 2939 
Q 1816 3084 2150 3084 
Q 2853 3084 3261 2657 
Q 3669 2231 3669 1497 
Q 3669 778 3244 343 
Q 2819 -91 2113 -91 
Q 1303 -91 875 529 
Q 447 1150 447 2328 
Q 447 3434 972 4092 
Q 1497 4750 2381 4750 
Q 2619 4750 2861 4703 
Q 3103 4656 3366 4563 
z
" transform="scale(0.015625)"/>
       </defs>
       <use xlink:href="#DejaVuSans-30"/>
       <use xlink:href="#DejaVuSans-2e" transform="translate(63.623047 0)"/>
       <use xlink:href="#DejaVuSans-30" transform="translate(95.410156 0)"/>
       <use xlink:href="#DejaVuSans-30" transform="translate(159.033203 0)"/>
       <use xlink:href="#DejaVuSans-36" transform="translate(222.65625 0)"/>
      </g>
     </g>
    </g>
    <g id="ytick_5">
     <g id="line2d_35">
      <g>
       <use xlink:href="#mf112d99ee2" x="58.028125" y="175.705114" style="stroke: #000000; stroke-width: 0.8"/>
      </g>
     </g>
     <g id="text_9">
      <!-- 0.008 -->
      <g transform="translate(22.4 179.504333) scale(0.1 -0.1)">
       <defs>
        <path id="DejaVuSans-38" d="M 2034 2216 
Q 1584 2216 1326 1975 
Q 1069 1734 1069 1313 
Q 1069 891 1326 650 
Q 1584 409 2034 409 
Q 2484 409 2743 651 
Q 3003 894 3003 1313 
Q 3003 1734 2745 1975 
Q 2488 2216 2034 2216 
z
M 1403 2484 
Q 997 2584 770 2862 
Q 544 3141 544 3541 
Q 544 4100 942 4425 
Q 1341 4750 2034 4750 
Q 2731 4750 3128 4425 
Q 3525 4100 3525 3541 
Q 3525 3141 3298 2862 
Q 3072 2584 2669 2484 
Q 3125 2378 3379 2068 
Q 3634 1759 3634 1313 
Q 3634 634 3220 271 
Q 2806 -91 2034 -91 
Q 1263 -91 848 271 
Q 434 634 434 1313 
Q 434 1759 690 2068 
Q 947 2378 1403 2484 
z
M 1172 3481 
Q 1172 3119 1398 2916 
Q 1625 2713 2034 2713 
Q 2441 2713 2670 2916 
Q 2900 3119 2900 3481 
Q 2900 3844 2670 4047 
Q 2441 4250 2034 4250 
Q 1625 4250 1398 4047 
Q 1172 3844 1172 3481 
z
" transform="scale(0.015625)"/>
       </defs>
       <use xlink:href="#DejaVuSans-30"/>
       <use xlink:href="#DejaVuSans-2e" transform="translate(63.623047 0)"/>
       <use xlink:href="#DejaVuSans-30" transform="translate(95.410156 0)"/>
       <use xlink:href="#DejaVuSans-30" transform="translate(159.033203 0)"/>
       <use xlink:href="#DejaVuSans-38" transform="translate(222.65625 0)"/>
      </g>
     </g>
    </g>
    <g id="ytick_6">
     <g id="line2d_36">
      <g>
       <use xlink:href="#mf112d99ee2" x="58.028125" y="138.451392" style="stroke: #000000; stroke-width: 0.8"/>
      </g>
     </g>
     <g id="text_10">
      <!-- 0.010 -->
      <g transform="translate(22.4 142.250611) scale(0.1 -0.1)">
       <use xlink:href="#DejaVuSans-30"/>
       <use xlink:href="#DejaVuSans-2e" transform="translate(63.623047 0)"/>
       <use xlink:href="#DejaVuSans-30" transform="translate(95.410156 0)"/>
       <use xlink:href="#DejaVuSans-31" transform="translate(159.033203 0)"/>
       <use xlink:href="#DejaVuSans-30" transform="translate(222.65625 0)"/>
      </g>
     </g>
    </g>
    <g id="ytick_7">
     <g id="line2d_37">
      <g>
       <use xlink:href="#mf112d99ee2" x="58.028125" y="101.197671" style="stroke: #000000; stroke-width: 0.8"/>
      </g>
     </g>
     <g id="text_11">
      <!-- 0.012 -->
      <g transform="translate(22.4 104.99689) scale(0.1 -0.1)">
       <use xlink:href="#DejaVuSans-30"/>
       <use xlink:href="#DejaVuSans-2e" transform="translate(63.623047 0)"/>
       <use xlink:href="#DejaVuSans-30" transform="translate(95.410156 0)"/>
       <use xlink:href="#DejaVuSans-31" transform="translate(159.033203 0)"/>
       <use xlink:href="#DejaVuSans-32" transform="translate(222.65625 0)"/>
      </g>
     </g>
    </g>
    <g id="ytick_8">
     <g id="line2d_38">
      <g>
       <use xlink:href="#mf112d99ee2" x="58.028125" y="63.943949" style="stroke: #000000; stroke-width: 0.8"/>
      </g>
     </g>
     <g id="text_12">
      <!-- 0.014 -->
      <g transform="translate(22.4 67.743168) scale(0.1 -0.1)">
       <use xlink:href="#DejaVuSans-30"/>
       <use xlink:href="#DejaVuSans-2e" transform="translate(63.623047 0)"/>
       <use xlink:href="#DejaVuSans-30" transform="translate(95.410156 0)"/>
       <use xlink:href="#DejaVuSans-31" transform="translate(159.033203 0)"/>
       <use xlink:href="#DejaVuSans-34" transform="translate(222.65625 0)"/>
      </g>
     </g>
    </g>
    <g id="ytick_9">
     <g id="line2d_39">
      <g>
       <use xlink:href="#mf112d99ee2" x="58.028125" y="26.690228" style="stroke: #000000; stroke-width: 0.8"/>
      </g>
     </g>
     <g id="text_13">
      <!-- 0.016 -->
      <g transform="translate(22.4 30.489446) scale(0.1 -0.1)">
       <use xlink:href="#DejaVuSans-30"/>
       <use xlink:href="#DejaVuSans-2e" transform="translate(63.623047 0)"/>
       <use xlink:href="#DejaVuSans-30" transform="translate(95.410156 0)"/>
       <use xlink:href="#DejaVuSans-31" transform="translate(159.033203 0)"/>
       <use xlink:href="#DejaVuSans-36" transform="translate(222.65625 0)"/>
      </g>
     </g>
    </g>
    <g id="text_14">
     <!-- dm/dln(r) (kg/m$^3$) -->
     <g transform="translate(16.3 217.47) rotate(-90) scale(0.1 -0.1)">
      <defs>
       <path id="DejaVuSans-2f" d="M 1625 4666 
L 2156 4666 
L 531 -594 
L 0 -594 
L 1625 4666 
z
" transform="scale(0.015625)"/>
       <path id="DejaVuSans-6e" d="M 3513 2113 
L 3513 0 
L 2938 0 
L 2938 2094 
Q 2938 2591 2744 2837 
Q 2550 3084 2163 3084 
Q 1697 3084 1428 2787 
Q 1159 2491 1159 1978 
L 1159 0 
L 581 0 
L 581 3500 
L 1159 3500 
L 1159 2956 
Q 1366 3272 1645 3428 
Q 1925 3584 2291 3584 
Q 2894 3584 3203 3211 
Q 3513 2838 3513 2113 
z
" transform="scale(0.015625)"/>
       <path id="DejaVuSans-6b" d="M 581 4863 
L 1159 4863 
L 1159 1991 
L 2875 3500 
L 3609 3500 
L 1753 1863 
L 3688 0 
L 2938 0 
L 1159 1709 
L 1159 0 
L 581 0 
L 581 4863 
z
" transform="scale(0.015625)"/>
       <path id="DejaVuSans-67" d="M 2906 1791 
Q 2906 2416 2648 2759 
Q 2391 3103 1925 3103 
Q 1463 3103 1205 2759 
Q 947 2416 947 1791 
Q 947 1169 1205 825 
Q 1463 481 1925 481 
Q 2391 481 2648 825 
Q 2906 1169 2906 1791 
z
M 3481 434 
Q 3481 -459 3084 -895 
Q 2688 -1331 1869 -1331 
Q 1566 -1331 1297 -1286 
Q 1028 -1241 775 -1147 
L 775 -588 
Q 1028 -725 1275 -790 
Q 1522 -856 1778 -856 
Q 2344 -856 2625 -561 
Q 2906 -266 2906 331 
L 2906 616 
Q 2728 306 2450 153 
Q 2172 0 1784 0 
Q 1141 0 747 490 
Q 353 981 353 1791 
Q 353 2603 747 3093 
Q 1141 3584 1784 3584 
Q 2172 3584 2450 3431 
Q 2728 3278 2906 2969 
L 2906 3500 
L 3481 3500 
L 3481 434 
z
" transform="scale(0.015625)"/>
      </defs>
      <use xlink:href="#DejaVuSans-64" transform="translate(0 0.765625)"/>
      <use xlink:href="#DejaVuSans-6d" transform="translate(63.476562 0.765625)"/>
      <use xlink:href="#DejaVuSans-2f" transform="translate(160.888672 0.765625)"/>
      <use xlink:href="#DejaVuSans-64" transform="translate(194.580078 0.765625)"/>
      <use xlink:href="#DejaVuSans-6c" transform="translate(258.056641 0.765625)"/>
      <use xlink:href="#DejaVuSans-6e" transform="translate(285.839844 0.765625)"/>
      <use xlink:href="#DejaVuSans-28" transform="translate(349.21875 0.765625)"/>
      <use xlink:href="#DejaVuSans-72" transform="translate(388.232422 0.765625)"/>
      <use xlink:href="#DejaVuSans-29" transform="translate(429.345703 0.765625)"/>
      <use xlink:href="#DejaVuSans-20" transform="translate(468.359375 0.765625)"/>
      <use xlink:href="#DejaVuSans-28" transform="translate(500.146484 0.765625)"/>
      <use xlink:href="#DejaVuSans-6b" transform="translate(539.160156 0.765625)"/>
      <use xlink:href="#DejaVuSans-67" transform="translate(597.070312 0.765625)"/>
      <use xlink:href="#DejaVuSans-2f" transform="translate(660.546875 0.765625)"/>
      <use xlink:href="#DejaVuSans-6d" transform="translate(694.238281 0.765625)"/>
      <use xlink:href="#DejaVuSans-33" transform="translate(792.607422 39.046875) scale(0.7)"/>
      <use xlink:href="#DejaVuSans-29" transform="translate(839.87793 0.765625)"/>
     </g>
    </g>
   </g>
   <g id="line2d_40">
    <path d="M 109.621154 319.663716 
L 113.404144 317.532694 
L 117.187135 314.546168 
L 120.970125 310.391022 
L 124.753116 304.660932 
L 128.536106 296.843885 
L 132.319097 286.320052 
L 136.102087 272.381165 
L 139.885078 254.287878 
L 143.668068 231.386732 
L 147.451059 203.309885 
L 151.234049 170.272723 
L 155.01704 133.457259 
L 158.80003 95.412851 
L 162.583021 60.317228 
L 166.366011 33.841546 
L 170.149002 22.32 
L 173.931993 31.055827 
L 177.714983 62.016675 
L 181.497974 111.840367 
L 185.280964 171.585173 
L 189.063955 229.285271 
L 192.846945 274.683208 
L 196.629936 303.415314 
L 200.412926 317.660452 
L 204.195917 322.990472 
L 207.978907 324.425486 
L 211.761898 324.68764 
L 215.544888 324.717902 
L 219.327879 324.719928 
L 223.110869 324.719999 
L 226.89386 324.72 
L 230.67685 324.72 
L 234.459841 324.72 
L 238.242832 324.72 
L 242.025822 324.72 
L 245.808813 324.72 
L 249.591803 324.72 
L 253.374794 324.72 
L 257.157784 324.72 
L 260.940775 324.72 
L 264.723765 324.72 
L 268.506756 324.72 
L 272.289746 324.72 
L 276.072737 324.72 
L 279.855727 324.72 
L 283.638718 324.72 
L 287.421708 324.72 
L 291.204699 324.72 
L 294.987689 324.72 
L 298.77068 324.72 
L 302.553671 324.72 
L 306.336661 324.72 
L 310.119652 324.72 
L 313.902642 324.72 
L 317.685633 324.72 
L 321.468623 324.72 
L 325.251614 324.72 
L 329.034604 324.72 
L 332.817595 324.72 
L 336.600585 324.72 
L 340.383576 324.72 
L 344.166566 324.72 
L 347.949557 324.72 
L 351.732547 324.72 
L 355.515538 324.72 
L 359.298528 324.72 
L 363.081519 324.72 
L 366.86451 324.72 
L 370.6475 324.72 
L 374.430491 324.72 
L 378.213481 324.72 
L 381.996472 324.72 
L 385.779462 324.72 
L 389.562453 324.72 
L 393.345443 324.72 
L 397.128434 324.72 
L 400.911424 324.72 
L 404.694415 324.72 
L 408.477405 324.72 
L 412.260396 324.72 
L 416.043386 324.72 
L 419.826377 324.72 
L 423.609367 324.72 
L 427.392358 324.72 
L 431.175349 324.72 
L 434.958339 324.72 
L 438.74133 324.72 
L 442.52432 324.72 
L 446.307311 324.72 
L 450.090301 324.72 
L 453.873292 324.72 
L 457.656282 324.72 
L 461.439273 324.72 
L 465.222263 324.72 
L 469.005254 324.72 
L 472.788244 324.72 
L 476.571235 324.72 
L 480.354225 324.72 
L 484.137216 324.72 
" clip-path="url(#pf4ff1faaf7)" style="fill: none; stroke: #ff0000; stroke-width: 1.5; stroke-linecap: square"/>
   </g>
   <g id="line2d_41">
    <path d="M 109.621154 319.663716 
L 113.404144 317.532694 
L 117.187135 314.546168 
L 120.970125 310.391022 
L 124.753116 304.660932 
L 128.536106 296.843885 
L 132.319097 286.320052 
L 136.102087 272.381165 
L 139.885078 254.287878 
L 143.668068 231.386732 
L 147.451059 203.309885 
L 151.234049 170.272723 
L 155.01704 133.457259 
L 158.80003 95.412851 
L 162.583021 60.317228 
L 166.366011 33.841546 
L 170.149002 22.32 
L 173.931993 31.055827 
L 177.714983 62.016675 
L 181.497974 111.840367 
L 185.280964 171.585173 
L 189.063955 229.285271 
L 192.846945 274.683208 
L 196.629936 303.415314 
L 200.412926 317.660452 
L 204.195917 322.990472 
L 207.978907 324.425486 
L 211.761898 324.68764 
L 215.544888 324.717902 
L 219.327879 324.719928 
L 223.110869 324.719999 
L 226.89386 324.72 
L 230.67685 324.72 
L 234.459841 324.72 
L 238.242832 324.72 
L 242.025822 324.72 
L 245.808813 324.72 
L 249.591803 324.72 
L 253.374794 324.72 
L 257.157784 324.72 
L 260.940775 324.72 
L 264.723765 324.72 
L 268.506756 324.72 
L 272.289746 324.72 
L 276.072737 324.72 
L 279.855727 324.72 
L 283.638718 324.72 
L 287.421708 324.72 
L 291.204699 324.72 
L 294.987689 324.72 
L 298.77068 324.72 
L 302.553671 324.72 
L 306.336661 324.72 
L 310.119652 324.72 
L 313.902642 324.72 
L 317.685633 324.72 
L 321.468623 324.72 
L 325.251614 324.72 
L 329.034604 324.72 
L 332.817595 324.72 
L 336.600585 324.72 
L 340.383576 324.72 
L 344.166566 324.72 
L 347.949557 324.72 
L 351.732547 324.72 
L 355.515538 324.72 
L 359.298528 324.72 
L 363.081519 324.72 
L 366.86451 324.72 
L 370.6475 324.72 
L 374.430491 324.72 
L 378.213481 324.72 
L 381.996472 324.72 
L 385.779462 324.72 
L 389.562453 324.72 
L 393.345443 324.72 
L 397.128434 324.72 
L 400.911424 324.72 
L 404.694415 324.72 
L 408.477405 324.72 
L 412.260396 324.72 
L 416.043386 324.72 
L 419.826377 324.72 
L 423.609367 324.72 
L 427.392358 324.72 
L 431.175349 324.72 
L 434.958339 324.72 
L 438.74133 324.72 
L 442.52432 324.72 
L 446.307311 324.72 
L 450.090301 324.72 
L 453.873292 324.72 
L 457.656282 324.72 
L 461.439273 324.72 
L 465.222263 324.72 
L 469.005254 324.72 
L 472.788244 324.72 
L 476.571235 324.72 
L 480.354225 324.72 
L 484.137216 324.72 
" clip-path="url(#pf4ff1faaf7)" style="fill: none; stroke: #800080; stroke-width: 1.5; stroke-linecap: square"/>
   </g>
   <g id="line2d_42">
    <path d="M 109.621154 319.663716 
L 113.404144 317.532694 
L 117.187135 314.546168 
L 120.970125 310.391022 
L 124.753116 304.660932 
L 128.536106 296.843885 
L 132.319097 286.320052 
L 136.102087 272.381165 
L 139.885078 254.287878 
L 143.668068 231.386732 
L 147.451059 203.309885 
L 151.234049 170.272723 
L 155.01704 133.457259 
L 158.80003 95.412851 
L 162.583021 60.317228 
L 166.366011 33.841546 
L 170.149002 22.32 
L 173.931993 31.055827 
L 177.714983 62.016675 
L 181.497974 111.840367 
L 185.280964 171.585173 
L 189.063955 229.285271 
L 192.846945 274.683208 
L 196.629936 303.415314 
L 200.412926 317.660452 
L 204.195917 322.990472 
L 207.978907 324.425486 
L 211.761898 324.68764 
L 215.544888 324.717902 
L 219.327879 324.719928 
L 223.110869 324.719999 
L 226.89386 324.72 
L 230.67685 324.72 
L 234.459841 324.72 
L 238.242832 324.72 
L 242.025822 324.72 
L 245.808813 324.72 
L 249.591803 324.72 
L 253.374794 324.72 
L 257.157784 324.72 
L 260.940775 324.72 
L 264.723765 324.72 
L 268.506756 324.72 
L 272.289746 324.72 
L 276.072737 324.72 
L 279.855727 324.72 
L 283.638718 324.72 
L 287.421708 324.72 
L 291.204699 324.72 
L 294.987689 324.72 
L 298.77068 324.72 
L 302.553671 324.72 
L 306.336661 324.72 
L 310.119652 324.72 
L 313.902642 324.72 
L 317.685633 324.72 
L 321.468623 324.72 
L 325.251614 324.72 
L 329.034604 324.72 
L 332.817595 324.72 
L 336.600585 324.72 
L 340.383576 324.72 
L 344.166566 324.72 
L 347.949557 324.72 
L 351.732547 324.72 
L 355.515538 324.72 
L 359.298528 324.72 
L 363.081519 324.72 
L 366.86451 324.72 
L 370.6475 324.72 
L 374.430491 324.72 
L 378.213481 324.72 
L 381.996472 324.72 
L 385.779462 324.72 
L 389.562453 324.72 
L 393.345443 324.72 
L 397.128434 324.72 
L 400.911424 324.72 
L 404.694415 324.72 
L 408.477405 324.72 
L 412.260396 324.72 
L 416.043386 324.72 
L 419.826377 324.72 
L 423.609367 324.72 
L 427.392358 324.72 
L 431.175349 324.72 
L 434.958339 324.72 
L 438.74133 324.72 
L 442.52432 324.72 
L 446.307311 324.72 
L 450.090301 324.72 
L 453.873292 324.72 
L 457.656282 324.72 
L 461.439273 324.72 
L 465.222263 324.72 
L 469.005254 324.72 
L 472.788244 324.72 
L 476.571235 324.72 
L 480.354225 324.72 
L 484.137216 324.72 
" clip-path="url(#pf4ff1faaf7)" style="fill: none; stroke: #0000ff; stroke-width: 1.5; stroke-linecap: square"/>
   </g>
   <g id="line2d_43">
    <path d="M 109.621154 324.657355 
L 113.404144 324.644132 
L 117.187135 324.628118 
L 120.970125 324.608725 
L 124.753116 324.58524 
L 128.536106 324.5568 
L 132.319097 324.52236 
L 136.102087 324.480656 
L 139.885078 324.430157 
L 143.668068 324.369012 
L 147.451059 324.294979 
L 151.234049 324.205346 
L 155.01704 324.096834 
L 158.80003 323.965479 
L 162.583021 323.806487 
L 166.366011 323.614066 
L 170.149002 323.381222 
L 173.931993 323.099514 
L 177.714983 322.758758 
L 181.497974 322.346684 
L 185.280964 321.84852 
L 189.063955 321.246503 
L 192.846945 320.519311 
L 196.629936 319.64139 
L 200.412926 318.582192 
L 204.195917 317.305293 
L 207.978907 315.767412 
L 211.761898 313.917338 
L 215.544888 311.694783 
L 219.327879 309.02924 
L 223.110869 305.83891 
L 226.89386 302.029878 
L 230.67685 297.495741 
L 234.459841 292.118051 
L 238.242832 285.76805 
L 242.025822 278.310367 
L 245.808813 269.609601 
L 249.591803 259.540919 
L 253.374794 248.00609 
L 257.157784 234.956459 
L 260.940775 220.424314 
L 264.723765 204.563421 
L 268.506756 187.698103 
L 272.289746 170.377381 
L 276.072737 153.426125 
L 279.855727 137.978478 
L 283.638718 125.470732 
L 287.421708 117.563469 
L 291.204699 115.961047 
L 294.987689 122.108521 
L 298.77068 136.781223 
L 302.553671 159.645393 
L 306.336661 188.947661 
L 310.119652 221.545016 
L 313.902642 253.444341 
L 317.685633 280.821861 
L 321.468623 301.175359 
L 325.251614 314.029529 
L 329.034604 320.748391 
L 332.817595 323.561272 
L 336.600585 324.467316 
L 340.383576 324.681194 
L 344.166566 324.716093 
L 347.949557 324.719764 
L 351.732547 324.719992 
L 355.515538 324.72 
L 359.298528 324.72 
L 363.081519 324.72 
L 366.86451 324.72 
L 370.6475 324.72 
L 374.430491 324.72 
L 378.213481 324.72 
L 381.996472 324.72 
L 385.779462 324.72 
L 389.562453 324.72 
L 393.345443 324.72 
L 397.128434 324.72 
L 400.911424 324.72 
L 404.694415 324.72 
L 408.477405 324.72 
L 412.260396 324.72 
L 416.043386 324.72 
L 419.826377 324.72 
L 423.609367 324.72 
L 427.392358 324.72 
L 431.175349 324.72 
L 434.958339 324.72 
L 438.74133 324.72 
L 442.52432 324.72 
L 446.307311 324.72 
L 450.090301 324.72 
L 453.873292 324.72 
L 457.656282 324.72 
L 461.439273 324.72 
L 465.222263 324.72 
L 469.005254 324.72 
L 472.788244 324.72 
L 476.571235 324.72 
L 480.354225 324.72 
L 484.137216 324.72 
" clip-path="url(#pf4ff1faaf7)" style="fill: none; stroke-dasharray: 9.6,2.4,1.5,2.4; stroke-dashoffset: 0; stroke: #ff0000; stroke-width: 1.5"/>
   </g>
   <g id="line2d_44">
    <path d="M 109.621154 324.587573 
L 113.404144 324.533505 
L 117.187135 324.457371 
L 120.970125 324.350416 
L 124.753116 324.200652 
L 128.536106 323.991848 
L 132.319097 323.702347 
L 136.102087 323.303787 
L 139.885078 322.759929 
L 143.668068 322.025958 
L 147.451059 321.048949 
L 151.234049 319.770504 
L 155.01704 318.133041 
L 158.80003 316.091475 
L 162.583021 313.631939 
L 166.366011 310.797947 
L 170.149002 307.721483 
L 173.931993 304.65096 
L 177.714983 301.960531 
L 181.497974 300.11856 
L 185.280964 299.594277 
L 189.063955 300.70052 
L 192.846945 303.412681 
L 196.629936 307.256094 
L 200.412926 311.372307 
L 204.195917 314.803343 
L 207.978907 316.873307 
L 211.761898 317.420565 
L 215.544888 316.711083 
L 219.327879 315.130118 
L 223.110869 312.92491 
L 226.89386 310.150122 
L 230.67685 306.739208 
L 234.459841 302.572872 
L 238.242832 297.506777 
L 242.025822 291.378797 
L 245.808813 284.013538 
L 249.591803 275.230218 
L 253.374794 264.856292 
L 257.157784 252.74912 
L 260.940775 238.828099 
L 264.723765 223.119497 
L 268.506756 205.81502 
L 272.289746 187.342382 
L 276.072737 168.440913 
L 279.855727 150.226939 
L 283.638718 134.222254 
L 287.421708 122.306811 
L 291.204699 116.549332 
L 294.987689 118.877723 
L 298.77068 130.589428 
L 302.553671 151.780619 
L 306.336661 180.882843 
L 310.119652 214.584674 
L 313.902642 248.386628 
L 317.685633 277.796963 
L 321.468623 299.757753 
L 325.251614 313.562429 
L 329.034604 320.676279 
L 332.817595 323.581604 
L 336.600585 324.483587 
L 340.383576 324.685967 
L 344.166566 324.716849 
L 347.949557 324.719829 
L 351.732547 324.719995 
L 355.515538 324.72 
L 359.298528 324.72 
L 363.081519 324.72 
L 366.86451 324.72 
L 370.6475 324.72 
L 374.430491 324.72 
L 378.213481 324.72 
L 381.996472 324.72 
L 385.779462 324.72 
L 389.562453 324.72 
L 393.345443 324.72 
L 397.128434 324.72 
L 400.911424 324.72 
L 404.694415 324.72 
L 408.477405 324.72 
L 412.260396 324.72 
L 416.043386 324.72 
L 419.826377 324.72 
L 423.609367 324.72 
L 427.392358 324.72 
L 431.175349 324.72 
L 434.958339 324.72 
L 438.74133 324.72 
L 442.52432 324.72 
L 446.307311 324.72 
L 450.090301 324.72 
L 453.873292 324.72 
L 457.656282 324.72 
L 461.439273 324.72 
L 465.222263 324.72 
L 469.005254 324.72 
L 472.788244 324.72 
L 476.571235 324.72 
L 480.354225 324.72 
L 484.137216 324.72 
" clip-path="url(#pf4ff1faaf7)" style="fill: none; stroke-dasharray: 9.6,2.4,1.5,2.4; stroke-dashoffset: 0; stroke: #800080; stroke-width: 1.5"/>
   </g>
   <g id="line2d_45">
    <path d="M 109.621154 324.603726 
L 113.404144 324.553536 
L 117.187135 324.482185 
L 120.970125 324.381119 
L 124.753116 324.238587 
L 128.536106 324.038637 
L 132.319097 323.759936 
L 136.102087 323.37449 
L 139.885078 322.846462 
L 143.668068 322.131464 
L 147.451059 321.176985 
L 151.234049 319.924977 
L 155.01704 318.318046 
L 158.80003 316.310991 
L 162.583021 313.889279 
L 166.366011 311.094857 
L 170.149002 308.056697 
L 173.931993 305.017958 
L 177.714983 302.344145 
L 181.497974 300.489948 
L 185.280964 299.903617 
L 189.063955 300.866641 
L 192.846945 303.308682 
L 196.629936 306.689976 
L 200.412926 310.061824 
L 204.195917 312.34492 
L 207.978907 312.70634 
L 211.761898 310.791152 
L 215.544888 306.643883 
L 219.327879 300.423942 
L 223.110869 292.196745 
L 226.89386 281.96176 
L 230.67685 269.845893 
L 234.459841 256.325372 
L 238.242832 242.403725 
L 242.025822 229.691873 
L 245.808813 220.293976 
L 249.591803 216.385923 
L 253.374794 219.453762 
L 257.157784 229.370453 
L 260.940775 243.769186 
L 264.723765 258.293734 
L 268.506756 267.96792 
L 272.289746 269.115157 
L 276.072737 260.611493 
L 279.855727 243.659654 
L 283.638718 220.616603 
L 287.421708 194.201946 
L 291.204699 167.664088 
L 294.987689 145.253848 
L 298.77068 132.082543 
L 302.553671 132.957611 
L 306.336661 150.395973 
L 310.119652 182.661658 
L 313.902642 223.230372 
L 317.685633 262.812663 
L 321.468623 293.425385 
L 325.251614 311.94238 
L 329.034604 320.431138 
L 332.817595 323.309846 
L 336.600585 324.141191 
L 340.383576 324.485598 
L 344.166566 324.65764 
L 347.949557 324.711345 
L 351.732547 324.719468 
L 355.515538 324.719988 
L 359.298528 324.72 
L 363.081519 324.72 
L 366.86451 324.72 
L 370.6475 324.72 
L 374.430491 324.72 
L 378.213481 324.72 
L 381.996472 324.72 
L 385.779462 324.72 
L 389.562453 324.72 
L 393.345443 324.72 
L 397.128434 324.72 
L 400.911424 324.72 
L 404.694415 324.72 
L 408.477405 324.72 
L 412.260396 324.72 
L 416.043386 324.72 
L 419.826377 324.72 
L 423.609367 324.72 
L 427.392358 324.72 
L 431.175349 324.72 
L 434.958339 324.72 
L 438.74133 324.72 
L 442.52432 324.72 
L 446.307311 324.72 
L 450.090301 324.72 
L 453.873292 324.72 
L 457.656282 324.72 
L 461.439273 324.72 
L 465.222263 324.72 
L 469.005254 324.72 
L 472.788244 324.72 
L 476.571235 324.72 
L 480.354225 324.72 
L 484.137216 324.72 
" clip-path="url(#pf4ff1faaf7)" style="fill: none; stroke-dasharray: 9.6,2.4,1.5,2.4; stroke-dashoffset: 0; stroke: #0000ff; stroke-width: 1.5"/>
   </g>
   <g id="line2d_46">
    <path d="M 109.621154 324.719789 
L 113.404144 324.719745 
L 117.187135 324.719693 
L 120.970125 324.71963 
L 124.753116 324.719554 
L 128.536106 324.719463 
L 132.319097 324.719353 
L 136.102087 324.719221 
L 139.885078 324.719061 
L 143.668068 324.718868 
L 147.451059 324.718637 
L 151.234049 324.718357 
L 155.01704 324.718021 
L 158.80003 324.717615 
L 162.583021 324.717127 
L 166.366011 324.716538 
L 170.149002 324.715829 
L 173.931993 324.714974 
L 177.714983 324.713945 
L 181.497974 324.712704 
L 185.280964 324.711209 
L 189.063955 324.709408 
L 192.846945 324.707238 
L 196.629936 324.704624 
L 200.412926 324.701474 
L 204.195917 324.697679 
L 207.978907 324.693106 
L 211.761898 324.687596 
L 215.544888 324.680958 
L 219.327879 324.672961 
L 223.110869 324.663325 
L 226.89386 324.651715 
L 230.67685 324.637727 
L 234.459841 324.620875 
L 238.242832 324.600572 
L 242.025822 324.576111 
L 245.808813 324.546642 
L 249.591803 324.511139 
L 253.374794 324.468369 
L 257.157784 324.416845 
L 260.940775 324.354779 
L 264.723765 324.280015 
L 268.506756 324.189962 
L 272.289746 324.081498 
L 276.072737 323.95087 
L 279.855727 323.793561 
L 283.638718 323.604144 
L 287.421708 323.376093 
L 291.204699 323.101571 
L 294.987689 322.77117 
L 298.77068 322.373606 
L 302.553671 321.895356 
L 306.336661 321.320231 
L 310.119652 320.628881 
L 313.902642 319.798213 
L 317.685633 318.800725 
L 321.468623 317.603741 
L 325.251614 316.16856 
L 329.034604 314.449514 
L 332.817595 312.392962 
L 336.600585 309.936257 
L 340.383576 307.006759 
L 344.166566 303.520998 
L 347.949557 299.384178 
L 351.732547 294.490248 
L 355.515538 288.722951 
L 359.298528 281.958336 
L 363.081519 274.069464 
L 366.86451 264.934216 
L 370.6475 254.447355 
L 374.430491 242.538163 
L 378.213481 229.195034 
L 381.996472 214.498119 
L 385.779462 198.660311 
L 389.562453 182.075076 
L 393.345443 165.36651 
L 397.128434 149.4321 
L 400.911424 135.462033 
L 404.694415 124.911377 
L 408.477405 119.395959 
L 412.260396 120.484539 
L 416.043386 129.377037 
L 419.826377 146.499339 
L 423.609367 171.110398 
L 427.392358 201.08897 
L 431.175349 233.0977 
L 434.958339 263.243234 
L 438.74133 288.124324 
L 442.52432 305.860719 
L 446.307311 316.550596 
L 450.090301 321.849221 
L 453.873292 323.935897 
L 457.656282 324.561901 
L 461.439273 324.697884 
L 465.222263 324.718008 
L 469.005254 324.719894 
L 472.788244 324.719997 
L 476.571235 324.72 
L 480.354225 324.72 
L 484.137216 324.72 
" clip-path="url(#pf4ff1faaf7)" style="fill: none; stroke-dasharray: 5.55,2.4; stroke-dashoffset: 0; stroke: #ff0000; stroke-width: 1.5"/>
   </g>
   <g id="line2d_47">
    <path d="M 109.621154 324.714555 
L 113.404144 324.712217 
L 117.187135 324.70889 
L 120.970125 324.704169 
L 124.753116 324.697498 
L 128.536106 324.688119 
L 132.319097 324.675015 
L 136.102087 324.656845 
L 139.885078 324.63189 
L 143.668068 324.598011 
L 147.451059 324.55267 
L 151.234049 324.493054 
L 155.01704 324.416375 
L 158.80003 324.320442 
L 162.583021 324.204577 
L 166.366011 324.070908 
L 170.149002 323.925922 
L 173.931993 323.781883 
L 177.714983 323.657345 
L 181.497974 323.575654 
L 185.280964 323.560402 
L 189.063955 323.627672 
L 192.846945 323.777101 
L 196.629936 323.986317 
L 200.412926 324.214266 
L 204.195917 324.415343 
L 207.978907 324.558271 
L 211.761898 324.637454 
L 215.544888 324.668555 
L 219.327879 324.673315 
L 223.110869 324.66715 
L 226.89386 324.656755 
L 230.67685 324.643739 
L 234.459841 324.627991 
L 238.242832 324.608988 
L 242.025822 324.586061 
L 245.808813 324.558401 
L 249.591803 324.52503 
L 253.374794 324.484772 
L 257.157784 324.436206 
L 260.940775 324.377618 
L 264.723765 324.306945 
L 268.506756 324.221698 
L 272.289746 324.118877 
L 276.072737 323.994868 
L 279.855727 323.845319 
L 283.638718 323.664988 
L 287.421708 323.447567 
L 291.204699 323.185468 
L 294.987689 322.869567 
L 298.77068 322.488905 
L 302.553671 322.030328 
L 306.336661 321.478068 
L 310.119652 320.813243 
L 313.902642 320.013284 
L 317.685633 319.051268 
L 321.468623 317.895155 
L 325.251614 316.506926 
L 329.034604 314.841634 
L 332.817595 312.846381 
L 336.600585 310.459255 
L 340.383576 307.608302 
L 344.166566 304.21063 
L 347.949557 300.171821 
L 351.732547 295.385891 
L 355.515538 289.736176 
L 359.298528 283.097639 
L 363.081519 275.341314 
L 366.86451 266.341786 
L 370.6475 255.988871 
L 374.430491 244.204839 
L 378.213481 230.968577 
L 381.996472 216.347904 
L 385.779462 200.540438 
L 389.562453 183.92174 
L 393.345443 167.096411 
L 397.128434 150.942966 
L 400.911424 136.636683 
L 404.694415 125.626924 
L 408.477405 119.539467 
L 412.260396 119.975271 
L 416.043386 128.19304 
L 419.826377 144.702394 
L 423.609367 168.859361 
L 427.392358 198.629588 
L 431.175349 230.720854 
L 434.958339 261.215964 
L 438.74133 286.616151 
L 442.52432 304.900508 
L 446.307311 316.040711 
L 450.090301 321.630695 
L 453.873292 323.863329 
L 457.656282 324.544138 
L 461.439273 324.694868 
L 465.222263 324.717678 
L 469.005254 324.719873 
L 472.788244 324.719996 
L 476.571235 324.72 
L 480.354225 324.72 
L 484.137216 324.72 
" clip-path="url(#pf4ff1faaf7)" style="fill: none; stroke-dasharray: 5.55,2.4; stroke-dashoffset: 0; stroke: #800080; stroke-width: 1.5"/>
   </g>
   <g id="line2d_48">
    <path d="M 109.621154 324.714721 
L 113.404144 324.712414 
L 117.187135 324.709122 
L 120.970125 324.704441 
L 124.753116 324.697813 
L 128.536106 324.68848 
L 132.319097 324.675422 
L 136.102087 324.657294 
L 139.885078 324.632367 
L 143.668068 324.598489 
L 147.451059 324.553101 
L 151.234049 324.493354 
L 155.01704 324.416409 
L 158.80003 324.31999 
L 162.583021 324.20329 
L 166.366011 324.068247 
L 170.149002 323.921055 
L 173.931993 323.773542 
L 177.714983 323.64361 
L 181.497974 323.553648 
L 185.280964 323.525842 
L 189.063955 323.574241 
L 192.846945 323.695564 
L 196.629936 323.863325 
L 200.412926 324.030759 
L 204.195917 324.144523 
L 207.978907 324.163148 
L 211.761898 324.068143 
L 215.544888 323.859724 
L 219.327879 323.542622 
L 223.110869 323.116036 
L 226.89386 322.575638 
L 230.67685 321.924097 
L 234.459841 321.183588 
L 238.242832 320.406681 
L 242.025822 319.682346 
L 245.808813 319.13089 
L 249.591803 318.880441 
L 253.374794 319.022172 
L 257.157784 319.554486 
L 260.940775 320.343984 
L 264.723765 321.138721 
L 268.506756 321.647615 
L 272.289746 321.648916 
L 276.072737 321.052539 
L 279.855727 319.870915 
L 283.638718 318.137855 
L 287.421708 315.859407 
L 291.204699 313.03338 
L 294.987689 309.70908 
L 298.77068 306.050147 
L 302.553671 302.382087 
L 306.336661 299.205279 
L 310.119652 297.14135 
L 313.902642 296.783275 
L 317.685633 298.456976 
L 321.468623 301.976928 
L 325.251614 306.552962 
L 329.034604 310.993506 
L 332.817595 314.180567 
L 336.600585 315.540659 
L 340.383576 315.163451 
L 344.166566 313.499399 
L 347.949557 310.94641 
L 351.732547 307.659261 
L 355.515538 303.598002 
L 359.298528 298.632153 
L 363.081519 292.596495 
L 366.86451 285.309169 
L 370.6475 276.581721 
L 374.430491 266.233499 
L 378.213481 254.114512 
L 381.996472 240.139541 
L 385.779462 224.335875 
L 389.562453 206.905714 
L 393.345443 188.301118 
L 397.128434 169.303555 
L 400.911424 151.09077 
L 404.694415 135.261324 
L 408.477405 123.774162 
L 412.260396 118.75404 
L 416.043386 122.125656 
L 419.826377 135.085586 
L 423.609367 157.511041 
L 427.392358 187.521886 
L 431.175349 221.493445 
L 434.958339 254.753392 
L 438.74133 282.901031 
L 442.52432 303.238254 
L 446.307311 315.525543 
L 450.090301 321.561084 
L 453.873292 323.887112 
L 457.656282 324.560353 
L 461.439273 324.699158 
L 465.222263 324.718287 
L 469.005254 324.719919 
L 472.788244 324.719998 
L 476.571235 324.72 
L 480.354225 324.72 
L 484.137216 324.72 
" clip-path="url(#pf4ff1faaf7)" style="fill: none; stroke-dasharray: 5.55,2.4; stroke-dashoffset: 0; stroke: #0000ff; stroke-width: 1.5"/>
   </g>
   <g id="patch_3">
    <path d="M 58.028125 339.84 
L 58.028125 7.2 
" style="fill: none; stroke: #000000; stroke-width: 0.8; stroke-linejoin: miter; stroke-linecap: square"/>
   </g>
   <g id="patch_4">
    <path d="M 504.428125 339.84 
L 504.428125 7.2 
" style="fill: none; stroke: #000000; stroke-width: 0.8; stroke-linejoin: miter; stroke-linecap: square"/>
   </g>
   <g id="patch_5">
    <path d="M 58.028125 339.84 
L 504.428125 339.84 
" style="fill: none; stroke: #000000; stroke-width: 0.8; stroke-linejoin: miter; stroke-linecap: square"/>
   </g>
   <g id="patch_6">
    <path d="M 58.028125 7.2 
L 504.428125 7.2 
" style="fill: none; stroke: #000000; stroke-width: 0.8; stroke-linejoin: miter; stroke-linecap: square"/>
   </g>
   <g id="legend_1">
    <g id="patch_7">
     <path d="M 305.860937 59.234375 
L 497.428125 59.234375 
Q 499.428125 59.234375 499.428125 57.234375 
L 499.428125 14.2 
Q 499.428125 12.2 497.428125 12.2 
L 305.860937 12.2 
Q 303.860937 12.2 303.860937 14.2 
L 303.860937 57.234375 
Q 303.860937 59.234375 305.860937 59.234375 
z
" style="fill: #ffffff; opacity: 0.8; stroke: #cccccc; stroke-linejoin: miter"/>
    </g>
    <g id="line2d_49">
     <path d="M 307.860937 20.298437 
L 307.860937 20.298437 
L 317.860937 20.298437 
L 317.860937 20.298437 
L 327.860937 20.298437 
" style="fill: none; stroke: #000000; stroke-width: 1.5; stroke-linecap: square"/>
    </g>
    <g id="text_15">
     <!-- PySDM, 0 s -->
     <g transform="translate(335.860937 23.798437) scale(0.1 -0.1)">
      <defs>
       <path id="DejaVuSans-50" d="M 1259 4147 
L 1259 2394 
L 2053 2394 
Q 2494 2394 2734 2622 
Q 2975 2850 2975 3272 
Q 2975 3691 2734 3919 
Q 2494 4147 2053 4147 
L 1259 4147 
z
M 628 4666 
L 2053 4666 
Q 2838 4666 3239 4311 
Q 3641 3956 3641 3272 
Q 3641 2581 3239 2228 
Q 2838 1875 2053 1875 
L 1259 1875 
L 1259 0 
L 628 0 
L 628 4666 
z
" transform="scale(0.015625)"/>
       <path id="DejaVuSans-79" d="M 2059 -325 
Q 1816 -950 1584 -1140 
Q 1353 -1331 966 -1331 
L 506 -1331 
L 506 -850 
L 844 -850 
Q 1081 -850 1212 -737 
Q 1344 -625 1503 -206 
L 1606 56 
L 191 3500 
L 800 3500 
L 1894 763 
L 2988 3500 
L 3597 3500 
L 2059 -325 
z
" transform="scale(0.015625)"/>
       <path id="DejaVuSans-53" d="M 3425 4513 
L 3425 3897 
Q 3066 4069 2747 4153 
Q 2428 4238 2131 4238 
Q 1616 4238 1336 4038 
Q 1056 3838 1056 3469 
Q 1056 3159 1242 3001 
Q 1428 2844 1947 2747 
L 2328 2669 
Q 3034 2534 3370 2195 
Q 3706 1856 3706 1288 
Q 3706 609 3251 259 
Q 2797 -91 1919 -91 
Q 1588 -91 1214 -16 
Q 841 59 441 206 
L 441 856 
Q 825 641 1194 531 
Q 1563 422 1919 422 
Q 2459 422 2753 634 
Q 3047 847 3047 1241 
Q 3047 1584 2836 1778 
Q 2625 1972 2144 2069 
L 1759 2144 
Q 1053 2284 737 2584 
Q 422 2884 422 3419 
Q 422 4038 858 4394 
Q 1294 4750 2059 4750 
Q 2388 4750 2728 4690 
Q 3069 4631 3425 4513 
z
" transform="scale(0.015625)"/>
       <path id="DejaVuSans-44" d="M 1259 4147 
L 1259 519 
L 2022 519 
Q 2988 519 3436 956 
Q 3884 1394 3884 2338 
Q 3884 3275 3436 3711 
Q 2988 4147 2022 4147 
L 1259 4147 
z
M 628 4666 
L 1925 4666 
Q 3281 4666 3915 4102 
Q 4550 3538 4550 2338 
Q 4550 1131 3912 565 
Q 3275 0 1925 0 
L 628 0 
L 628 4666 
z
" transform="scale(0.015625)"/>
       <path id="DejaVuSans-4d" d="M 628 4666 
L 1569 4666 
L 2759 1491 
L 3956 4666 
L 4897 4666 
L 4897 0 
L 4281 0 
L 4281 4097 
L 3078 897 
L 2444 897 
L 1241 4097 
L 1241 0 
L 628 0 
L 628 4666 
z
" transform="scale(0.015625)"/>
       <path id="DejaVuSans-2c" d="M 750 794 
L 1409 794 
L 1409 256 
L 897 -744 
L 494 -744 
L 750 256 
L 750 794 
z
" transform="scale(0.015625)"/>
      </defs>
      <use xlink:href="#DejaVuSans-50"/>
      <use xlink:href="#DejaVuSans-79" transform="translate(60.302734 0)"/>
      <use xlink:href="#DejaVuSans-53" transform="translate(119.482422 0)"/>
      <use xlink:href="#DejaVuSans-44" transform="translate(182.958984 0)"/>
      <use xlink:href="#DejaVuSans-4d" transform="translate(259.960938 0)"/>
      <use xlink:href="#DejaVuSans-2c" transform="translate(346.240234 0)"/>
      <use xlink:href="#DejaVuSans-20" transform="translate(378.027344 0)"/>
      <use xlink:href="#DejaVuSans-30" transform="translate(409.814453 0)"/>
      <use xlink:href="#DejaVuSans-20" transform="translate(473.4375 0)"/>
      <use xlink:href="#DejaVuSans-73" transform="translate(505.224609 0)"/>
     </g>
    </g>
    <g id="line2d_50">
     <path d="M 307.860937 34.976562 
L 307.860937 34.976562 
L 317.860937 34.976562 
L 317.860937 34.976562 
L 327.860937 34.976562 
" style="fill: none; stroke-dasharray: 9.6,2.4,1.5,2.4; stroke-dashoffset: 0; stroke: #000000; stroke-width: 1.5"/>
    </g>
    <g id="text_16">
     <!-- PySDM, 60 s -->
     <g transform="translate(335.860937 38.476562) scale(0.1 -0.1)">
      <use xlink:href="#DejaVuSans-50"/>
      <use xlink:href="#DejaVuSans-79" transform="translate(60.302734 0)"/>
      <use xlink:href="#DejaVuSans-53" transform="translate(119.482422 0)"/>
      <use xlink:href="#DejaVuSans-44" transform="translate(182.958984 0)"/>
      <use xlink:href="#DejaVuSans-4d" transform="translate(259.960938 0)"/>
      <use xlink:href="#DejaVuSans-2c" transform="translate(346.240234 0)"/>
      <use xlink:href="#DejaVuSans-20" transform="translate(378.027344 0)"/>
      <use xlink:href="#DejaVuSans-36" transform="translate(409.814453 0)"/>
      <use xlink:href="#DejaVuSans-30" transform="translate(473.4375 0)"/>
      <use xlink:href="#DejaVuSans-20" transform="translate(537.060547 0)"/>
      <use xlink:href="#DejaVuSans-73" transform="translate(568.847656 0)"/>
     </g>
    </g>
    <g id="line2d_51">
     <path d="M 307.860937 49.654687 
L 307.860937 49.654687 
L 317.860937 49.654687 
L 317.860937 49.654687 
L 327.860937 49.654687 
" style="fill: none; stroke-dasharray: 5.55,2.4; stroke-dashoffset: 0; stroke: #000000; stroke-width: 1.5"/>
    </g>
    <g id="text_17">
     <!-- PySDM, 120 s -->
     <g transform="translate(335.860937 53.154687) scale(0.1 -0.1)">
      <use xlink:href="#DejaVuSans-50"/>
      <use xlink:href="#DejaVuSans-79" transform="translate(60.302734 0)"/>
      <use xlink:href="#DejaVuSans-53" transform="translate(119.482422 0)"/>
      <use xlink:href="#DejaVuSans-44" transform="translate(182.958984 0)"/>
      <use xlink:href="#DejaVuSans-4d" transform="translate(259.960938 0)"/>
      <use xlink:href="#DejaVuSans-2c" transform="translate(346.240234 0)"/>
      <use xlink:href="#DejaVuSans-20" transform="translate(378.027344 0)"/>
      <use xlink:href="#DejaVuSans-31" transform="translate(409.814453 0)"/>
      <use xlink:href="#DejaVuSans-32" transform="translate(473.4375 0)"/>
      <use xlink:href="#DejaVuSans-30" transform="translate(537.060547 0)"/>
      <use xlink:href="#DejaVuSans-20" transform="translate(600.683594 0)"/>
      <use xlink:href="#DejaVuSans-73" transform="translate(632.470703 0)"/>
     </g>
    </g>
    <g id="line2d_52">
     <path d="M 424.317187 20.298437 
L 434.317187 20.298437 
L 444.317187 20.298437 
" style="fill: none; stroke: #ff0000; stroke-width: 1.5; stroke-linecap: square"/>
    </g>
    <g id="text_18">
     <!-- 1 modes -->
     <g transform="translate(452.317187 23.798437) scale(0.1 -0.1)">
      <defs>
       <path id="DejaVuSans-6f" d="M 1959 3097 
Q 1497 3097 1228 2736 
Q 959 2375 959 1747 
Q 959 1119 1226 758 
Q 1494 397 1959 397 
Q 2419 397 2687 759 
Q 2956 1122 2956 1747 
Q 2956 2369 2687 2733 
Q 2419 3097 1959 3097 
z
M 1959 3584 
Q 2709 3584 3137 3096 
Q 3566 2609 3566 1747 
Q 3566 888 3137 398 
Q 2709 -91 1959 -91 
Q 1206 -91 779 398 
Q 353 888 353 1747 
Q 353 2609 779 3096 
Q 1206 3584 1959 3584 
z
" transform="scale(0.015625)"/>
      </defs>
      <use xlink:href="#DejaVuSans-31"/>
      <use xlink:href="#DejaVuSans-20" transform="translate(63.623047 0)"/>
      <use xlink:href="#DejaVuSans-6d" transform="translate(95.410156 0)"/>
      <use xlink:href="#DejaVuSans-6f" transform="translate(192.822266 0)"/>
      <use xlink:href="#DejaVuSans-64" transform="translate(254.003906 0)"/>
      <use xlink:href="#DejaVuSans-65" transform="translate(317.480469 0)"/>
      <use xlink:href="#DejaVuSans-73" transform="translate(379.003906 0)"/>
     </g>
    </g>
    <g id="line2d_53">
     <path d="M 424.317187 34.976562 
L 434.317187 34.976562 
L 444.317187 34.976562 
" style="fill: none; stroke: #800080; stroke-width: 1.5; stroke-linecap: square"/>
    </g>
    <g id="text_19">
     <!-- 2 modes -->
     <g transform="translate(452.317187 38.476562) scale(0.1 -0.1)">
      <use xlink:href="#DejaVuSans-32"/>
      <use xlink:href="#DejaVuSans-20" transform="translate(63.623047 0)"/>
      <use xlink:href="#DejaVuSans-6d" transform="translate(95.410156 0)"/>
      <use xlink:href="#DejaVuSans-6f" transform="translate(192.822266 0)"/>
      <use xlink:href="#DejaVuSans-64" transform="translate(254.003906 0)"/>
      <use xlink:href="#DejaVuSans-65" transform="translate(317.480469 0)"/>
      <use xlink:href="#DejaVuSans-73" transform="translate(379.003906 0)"/>
     </g>
    </g>
    <g id="line2d_54">
     <path d="M 424.317187 49.654687 
L 434.317187 49.654687 
L 444.317187 49.654687 
" style="fill: none; stroke: #0000ff; stroke-width: 1.5; stroke-linecap: square"/>
    </g>
    <g id="text_20">
     <!-- 4 modes -->
     <g transform="translate(452.317187 53.154687) scale(0.1 -0.1)">
      <use xlink:href="#DejaVuSans-34"/>
      <use xlink:href="#DejaVuSans-20" transform="translate(63.623047 0)"/>
      <use xlink:href="#DejaVuSans-6d" transform="translate(95.410156 0)"/>
      <use xlink:href="#DejaVuSans-6f" transform="translate(192.822266 0)"/>
      <use xlink:href="#DejaVuSans-64" transform="translate(254.003906 0)"/>
      <use xlink:href="#DejaVuSans-65" transform="translate(317.480469 0)"/>
      <use xlink:href="#DejaVuSans-73" transform="translate(379.003906 0)"/>
     </g>
    </g>
   </g>
   <g id="line2d_55">
    <path d="M 78.319034 324.370206 
L 78.319034 324.092108 
L 84.551784 324.092108 
L 84.551784 323.57893 
L 90.784534 323.57893 
L 90.784534 322.604153 
L 97.017284 322.604153 
L 97.017284 320.962285 
L 103.250033 320.962285 
L 103.250033 317.9517 
L 109.482783 317.9517 
L 109.482783 312.76726 
L 115.715533 312.76726 
L 115.715533 303.877988 
L 121.948283 303.877988 
L 121.948283 289.11318 
L 128.181033 289.11318 
L 128.181033 265.570971 
L 134.413783 265.570971 
L 134.413783 229.988242 
L 140.646533 229.988242 
L 140.646533 181.181766 
L 146.879282 181.181766 
L 146.879282 121.27523 
L 153.112032 121.27523 
L 153.112032 62.245942 
L 159.344782 62.245942 
L 159.344782 27.065613 
L 165.577532 27.065613 
L 165.577532 39.738073 
L 171.810282 39.738073 
L 171.810282 107.204868 
L 178.043032 107.204868 
L 178.043032 205.292334 
L 184.275782 205.292334 
L 184.275782 279.46333 
L 190.508531 279.46333 
L 190.508531 313.949128 
L 196.741281 313.949128 
L 196.741281 324.72 
L 202.974031 324.72 
L 202.974031 324.72 
L 209.206781 324.72 
L 209.206781 324.72 
L 215.439531 324.72 
L 215.439531 324.72 
L 221.672281 324.72 
L 221.672281 324.72 
L 227.905031 324.72 
L 227.905031 324.72 
L 234.13778 324.72 
L 234.13778 324.72 
L 240.37053 324.72 
L 240.37053 324.72 
L 246.60328 324.72 
L 246.60328 324.72 
L 252.83603 324.72 
L 252.83603 324.72 
L 259.06878 324.72 
L 259.06878 324.72 
L 265.30153 324.72 
L 265.30153 324.72 
L 271.534279 324.72 
L 271.534279 324.72 
L 277.767029 324.72 
L 277.767029 324.72 
L 283.999779 324.72 
L 283.999779 324.72 
L 290.232529 324.72 
L 290.232529 324.72 
L 296.465279 324.72 
L 296.465279 324.72 
L 302.698029 324.72 
L 302.698029 324.72 
L 308.930779 324.72 
L 308.930779 324.72 
L 315.163528 324.72 
L 315.163528 324.72 
L 321.396278 324.72 
L 321.396278 324.72 
L 327.629028 324.72 
L 327.629028 324.72 
L 333.861778 324.72 
L 333.861778 324.72 
L 340.094528 324.72 
L 340.094528 324.72 
L 346.327278 324.72 
L 346.327278 324.72 
L 352.560028 324.72 
L 352.560028 324.72 
L 358.792777 324.72 
L 358.792777 324.72 
L 365.025527 324.72 
L 365.025527 324.72 
L 371.258277 324.72 
L 371.258277 324.72 
L 377.491027 324.72 
L 377.491027 324.72 
L 383.723777 324.72 
L 383.723777 324.72 
L 389.956527 324.72 
L 389.956527 324.72 
L 396.189277 324.72 
L 396.189277 324.72 
L 402.422026 324.72 
L 402.422026 324.72 
L 408.654776 324.72 
L 408.654776 324.72 
L 414.887526 324.72 
L 414.887526 324.72 
L 421.120276 324.72 
L 421.120276 324.72 
L 427.353026 324.72 
L 427.353026 324.72 
L 433.585776 324.72 
L 433.585776 324.72 
L 439.818525 324.72 
L 439.818525 324.72 
L 446.051275 324.72 
L 446.051275 324.72 
L 452.284025 324.72 
L 452.284025 324.72 
L 458.516775 324.72 
L 458.516775 324.72 
L 464.749525 324.72 
" clip-path="url(#pf4ff1faaf7)" style="fill: none; stroke: #000000; stroke-width: 1.5; stroke-linecap: square"/>
   </g>
   <g id="line2d_56">
    <path d="M 78.319034 324.707235 
L 78.319034 324.699798 
L 84.551784 324.699798 
L 84.551784 324.664243 
L 90.784534 324.664243 
L 90.784534 324.619408 
L 97.017284 324.619408 
L 97.017284 324.558558 
L 103.250033 324.558558 
L 103.250033 324.387045 
L 109.482783 324.387045 
L 109.482783 324.252899 
L 115.715533 324.252899 
L 115.715533 323.730525 
L 121.948283 323.730525 
L 121.948283 323.553763 
L 128.181033 323.553763 
L 128.181033 322.513905 
L 134.413783 322.513905 
L 134.413783 321.667047 
L 140.646533 321.667047 
L 140.646533 320.576387 
L 146.879282 320.576387 
L 146.879282 319.780162 
L 153.112032 319.780162 
L 153.112032 317.939595 
L 159.344782 317.939595 
L 159.344782 315.100492 
L 165.577532 315.100492 
L 165.577532 314.283904 
L 171.810282 314.283904 
L 171.810282 310.511836 
L 178.043032 310.511836 
L 178.043032 308.327659 
L 184.275782 308.327659 
L 184.275782 308.165317 
L 190.508531 308.165317 
L 190.508531 304.39027 
L 196.741281 304.39027 
L 196.741281 298.142087 
L 202.974031 298.142087 
L 202.974031 293.252027 
L 209.206781 293.252027 
L 209.206781 290.244484 
L 215.439531 290.244484 
L 215.439531 275.597946 
L 221.672281 275.597946 
L 221.672281 271.539776 
L 227.905031 271.539776 
L 227.905031 272.770132 
L 234.13778 272.770132 
L 234.13778 237.068495 
L 240.37053 237.068495 
L 240.37053 227.150413 
L 246.60328 227.150413 
L 246.60328 218.158891 
L 252.83603 218.158891 
L 252.83603 245.363369 
L 259.06878 245.363369 
L 259.06878 189.746679 
L 265.30153 189.746679 
L 265.30153 174.696278 
L 271.534279 174.696278 
L 271.534279 171.065274 
L 277.767029 171.065274 
L 277.767029 205.397604 
L 283.999779 205.397604 
L 283.999779 161.888441 
L 290.232529 161.888441 
L 290.232529 224.093228 
L 296.465279 224.093228 
L 296.465279 215.745547 
L 302.698029 215.745547 
L 302.698029 287.613801 
L 308.930779 287.613801 
L 308.930779 225.902834 
L 315.163528 225.902834 
L 315.163528 299.486528 
L 321.396278 299.486528 
L 321.396278 324.253783 
L 327.629028 324.253783 
L 327.629028 324.358504 
L 333.861778 324.358504 
L 333.861778 324.72 
L 340.094528 324.72 
L 340.094528 324.490531 
L 346.327278 324.490531 
L 346.327278 324.72 
L 352.560028 324.72 
L 352.560028 324.72 
L 358.792777 324.72 
L 358.792777 324.72 
L 365.025527 324.72 
L 365.025527 324.72 
L 371.258277 324.72 
L 371.258277 324.72 
L 377.491027 324.72 
L 377.491027 324.72 
L 383.723777 324.72 
L 383.723777 324.72 
L 389.956527 324.72 
L 389.956527 324.72 
L 396.189277 324.72 
L 396.189277 324.72 
L 402.422026 324.72 
L 402.422026 324.72 
L 408.654776 324.72 
L 408.654776 324.72 
L 414.887526 324.72 
L 414.887526 324.72 
L 421.120276 324.72 
L 421.120276 324.72 
L 427.353026 324.72 
L 427.353026 324.72 
L 433.585776 324.72 
L 433.585776 324.72 
L 439.818525 324.72 
L 439.818525 324.72 
L 446.051275 324.72 
L 446.051275 324.72 
L 452.284025 324.72 
L 452.284025 324.72 
L 458.516775 324.72 
L 458.516775 324.72 
L 464.749525 324.72 
" clip-path="url(#pf4ff1faaf7)" style="fill: none; stroke-dasharray: 9.6,2.4,1.5,2.4; stroke-dashoffset: 0; stroke: #000000; stroke-width: 1.5"/>
   </g>
   <g id="line2d_57">
    <path d="M 78.319034 324.719311 
L 78.319034 324.71928 
L 84.551784 324.71928 
L 84.551784 324.717289 
L 90.784534 324.717289 
L 90.784534 324.715386 
L 97.017284 324.715386 
L 97.017284 324.714667 
L 103.250033 324.714667 
L 103.250033 324.701473 
L 109.482783 324.701473 
L 109.482783 324.700847 
L 115.715533 324.700847 
L 115.715533 324.67517 
L 121.948283 324.67517 
L 121.948283 324.665614 
L 128.181033 324.665614 
L 128.181033 324.624221 
L 134.413783 324.624221 
L 134.413783 324.573188 
L 140.646533 324.573188 
L 140.646533 324.506552 
L 146.879282 324.506552 
L 146.879282 324.472664 
L 153.112032 324.472664 
L 153.112032 324.383657 
L 159.344782 324.383657 
L 159.344782 324.339764 
L 165.577532 324.339764 
L 165.577532 324.207011 
L 171.810282 324.207011 
L 171.810282 324.070446 
L 178.043032 324.070446 
L 178.043032 323.89937 
L 184.275782 323.89937 
L 184.275782 323.917555 
L 190.508531 323.917555 
L 190.508531 323.850762 
L 196.741281 323.850762 
L 196.741281 323.65106 
L 202.974031 323.65106 
L 202.974031 323.250283 
L 209.206781 323.250283 
L 209.206781 323.637419 
L 215.439531 323.637419 
L 215.439531 322.878046 
L 221.672281 322.878046 
L 221.672281 321.967683 
L 227.905031 321.967683 
L 227.905031 323.255676 
L 234.13778 323.255676 
L 234.13778 321.709429 
L 240.37053 321.709429 
L 240.37053 320.511381 
L 246.60328 320.511381 
L 246.60328 321.174944 
L 252.83603 321.174944 
L 252.83603 319.248398 
L 259.06878 319.248398 
L 259.06878 317.14706 
L 265.30153 317.14706 
L 265.30153 316.954916 
L 271.534279 316.954916 
L 271.534279 317.127979 
L 277.767029 317.127979 
L 277.767029 315.090199 
L 283.999779 315.090199 
L 283.999779 312.905046 
L 290.232529 312.905046 
L 290.232529 301.881995 
L 296.465279 301.881995 
L 296.465279 302.127776 
L 302.698029 302.127776 
L 302.698029 306.488679 
L 308.930779 306.488679 
L 308.930779 297.41274 
L 315.163528 297.41274 
L 315.163528 293.75672 
L 321.396278 293.75672 
L 321.396278 293.078754 
L 327.629028 293.078754 
L 327.629028 295.975471 
L 333.861778 295.975471 
L 333.861778 287.518102 
L 340.094528 287.518102 
L 340.094528 288.182223 
L 346.327278 288.182223 
L 346.327278 280.26062 
L 352.560028 280.26062 
L 352.560028 265.250873 
L 358.792777 265.250873 
L 358.792777 248.803656 
L 365.025527 248.803656 
L 365.025527 253.177542 
L 371.258277 253.177542 
L 371.258277 247.063176 
L 377.491027 247.063176 
L 377.491027 208.896889 
L 383.723777 208.896889 
L 383.723777 221.817738 
L 389.956527 221.817738 
L 389.956527 237.51639 
L 396.189277 237.51639 
L 396.189277 231.232744 
L 402.422026 231.232744 
L 402.422026 190.158902 
L 408.654776 190.158902 
L 408.654776 198.738309 
L 414.887526 198.738309 
L 414.887526 231.31959 
L 421.120276 231.31959 
L 421.120276 223.704251 
L 427.353026 223.704251 
L 427.353026 231.400199 
L 433.585776 231.400199 
L 433.585776 178.621593 
L 439.818525 178.621593 
L 439.818525 256.611029 
L 446.051275 256.611029 
L 446.051275 324.72 
L 452.284025 324.72 
L 452.284025 324.72 
L 458.516775 324.72 
L 458.516775 324.72 
L 464.749525 324.72 
" clip-path="url(#pf4ff1faaf7)" style="fill: none; stroke-dasharray: 5.55,2.4; stroke-dashoffset: 0; stroke: #000000; stroke-width: 1.5"/>
   </g>
  </g>
 </g>
 <defs>
  <clipPath id="pf4ff1faaf7">
   <rect x="58.028125" y="7.2" width="446.4" height="332.64"/>
  </clipPath>
 </defs>
</svg>
