<?xml version="1.0" encoding="utf-8" standalone="no"?>
<!DOCTYPE svg PUBLIC "-//W3C//DTD SVG 1.1//EN"
  "http://www.w3.org/Graphics/SVG/1.1/DTD/svg11.dtd">
<svg xmlns:xlink="http://www.w3.org/1999/xlink" width="279.340944pt" height="423.99625pt" viewBox="0 0 279.340944 423.99625" xmlns="http://www.w3.org/2000/svg" version="1.1">
 <metadata>
  <rdf:RDF xmlns:dc="http://purl.org/dc/elements/1.1/" xmlns:cc="http://creativecommons.org/ns#" xmlns:rdf="http://www.w3.org/1999/02/22-rdf-syntax-ns#">
   <cc:Work>
    <dc:type rdf:resource="http://purl.org/dc/dcmitype/StillImage"/>
    <dc:date>2026-03-24T17:46:15.553220</dc:date>
    <dc:format>image/svg+xml</dc:format>
    <dc:creator>
     <cc:Agent>
      <dc:title>Matplotlib v3.10.6, https://matplotlib.org/</dc:title>
     </cc:Agent>
    </dc:creator>
   </cc:Work>
  </rdf:RDF>
 </metadata>
 <defs>
  <style type="text/css">*{stroke-linejoin: round; stroke-linecap: butt}</style>
 </defs>
 <g id="figure_1">
  <g id="patch_1">
   <path d="M 0 423.99625 
L 279.340944 423.99625 
L 279.340944 0 
L 0 0 
z
" style="fill: #ffffff"/>
  </g>
  <g id="axes_1">
   <g id="patch_2">
    <path d="M 48.1875 119.465333 
L 264.233909 119.465333 
L 264.233909 7.2 
L 48.1875 7.2 
z
" style="fill: #ffffff"/>
   </g>
   <g id="PathCollection_1">
    <defs>
     <path id="mb6705e52fc" d="M 0 1.414214 
C 0.375054 1.414214 0.734797 1.265203 1 1 
C 1.265203 0.734797 1.414214 0.375054 1.414214 0 
C 1.414214 -0.375054 1.265203 -0.734797 1 -1 
C 0.734797 -1.265203 0.375054 -1.414214 0 -1.414214 
C -0.375054 -1.414214 -0.734797 -1.265203 -1 -1 
C -1.265203 -0.734797 -1.414214 -0.375054 -1.414214 0 
C -1.414214 0.375054 -1.265203 0.734797 -1 1 
C -0.734797 1.265203 -0.375054 1.414214 0 1.414214 
z
" style="stroke: #000000"/>
    </defs>
    <g clip-path="url(#p774c54474c)">
     <use xlink:href="#mb6705e52fc" x="58.007791" y="12.30297" style="stroke: #000000"/>
     <use xlink:href="#mb6705e52fc" x="61.281222" y="13.755542" style="stroke: #000000"/>
     <use xlink:href="#mb6705e52fc" x="64.554652" y="15.159057" style="stroke: #000000"/>
     <use xlink:href="#mb6705e52fc" x="67.828083" y="16.546804" style="stroke: #000000"/>
     <use xlink:href="#mb6705e52fc" x="71.101513" y="17.954592" style="stroke: #000000"/>
     <use xlink:href="#mb6705e52fc" x="74.374944" y="19.349887" style="stroke: #000000"/>
     <use xlink:href="#mb6705e52fc" x="77.648374" y="20.736239" style="stroke: #000000"/>
     <use xlink:href="#mb6705e52fc" x="80.921804" y="22.12941" style="stroke: #000000"/>
     <use xlink:href="#mb6705e52fc" x="84.195235" y="23.553707" style="stroke: #000000"/>
     <use xlink:href="#mb6705e52fc" x="87.468665" y="24.964328" style="stroke: #000000"/>
     <use xlink:href="#mb6705e52fc" x="90.742096" y="26.343881" style="stroke: #000000"/>
     <use xlink:href="#mb6705e52fc" x="94.015526" y="27.733353" style="stroke: #000000"/>
     <use xlink:href="#mb6705e52fc" x="97.288957" y="29.134638" style="stroke: #000000"/>
     <use xlink:href="#mb6705e52fc" x="100.562387" y="30.544304" style="stroke: #000000"/>
     <use xlink:href="#mb6705e52fc" x="103.835817" y="31.983584" style="stroke: #000000"/>
     <use xlink:href="#mb6705e52fc" x="107.109248" y="33.387959" style="stroke: #000000"/>
     <use xlink:href="#mb6705e52fc" x="110.382678" y="34.779867" style="stroke: #000000"/>
     <use xlink:href="#mb6705e52fc" x="113.656109" y="36.155547" style="stroke: #000000"/>
     <use xlink:href="#mb6705e52fc" x="116.929539" y="37.486858" style="stroke: #000000"/>
     <use xlink:href="#mb6705e52fc" x="120.20297" y="38.924007" style="stroke: #000000"/>
     <use xlink:href="#mb6705e52fc" x="123.4764" y="40.280316" style="stroke: #000000"/>
     <use xlink:href="#mb6705e52fc" x="126.749831" y="41.7042" style="stroke: #000000"/>
     <use xlink:href="#mb6705e52fc" x="130.023261" y="43.164823" style="stroke: #000000"/>
     <use xlink:href="#mb6705e52fc" x="133.296691" y="44.567353" style="stroke: #000000"/>
     <use xlink:href="#mb6705e52fc" x="136.570122" y="45.92706" style="stroke: #000000"/>
     <use xlink:href="#mb6705e52fc" x="139.843552" y="47.333798" style="stroke: #000000"/>
     <use xlink:href="#mb6705e52fc" x="143.116983" y="48.721546" style="stroke: #000000"/>
     <use xlink:href="#mb6705e52fc" x="146.390413" y="50.094225" style="stroke: #000000"/>
     <use xlink:href="#mb6705e52fc" x="149.663844" y="51.450018" style="stroke: #000000"/>
     <use xlink:href="#mb6705e52fc" x="152.937274" y="52.812943" style="stroke: #000000"/>
     <use xlink:href="#mb6705e52fc" x="156.210705" y="54.192092" style="stroke: #000000"/>
     <use xlink:href="#mb6705e52fc" x="159.484135" y="55.559433" style="stroke: #000000"/>
     <use xlink:href="#mb6705e52fc" x="162.757565" y="56.934494" style="stroke: #000000"/>
     <use xlink:href="#mb6705e52fc" x="166.030996" y="58.319043" style="stroke: #000000"/>
     <use xlink:href="#mb6705e52fc" x="169.304426" y="59.705767" style="stroke: #000000"/>
     <use xlink:href="#mb6705e52fc" x="172.577857" y="61.064866" style="stroke: #000000"/>
     <use xlink:href="#mb6705e52fc" x="175.851287" y="62.402434" style="stroke: #000000"/>
     <use xlink:href="#mb6705e52fc" x="179.124718" y="63.781064" style="stroke: #000000"/>
     <use xlink:href="#mb6705e52fc" x="182.398148" y="65.14244" style="stroke: #000000"/>
     <use xlink:href="#mb6705e52fc" x="185.671579" y="66.506665" style="stroke: #000000"/>
     <use xlink:href="#mb6705e52fc" x="188.945009" y="67.880935" style="stroke: #000000"/>
     <use xlink:href="#mb6705e52fc" x="192.218439" y="69.274992" style="stroke: #000000"/>
     <use xlink:href="#mb6705e52fc" x="195.49187" y="70.677334" style="stroke: #000000"/>
     <use xlink:href="#mb6705e52fc" x="198.7653" y="72.041706" style="stroke: #000000"/>
     <use xlink:href="#mb6705e52fc" x="202.038731" y="73.421549" style="stroke: #000000"/>
     <use xlink:href="#mb6705e52fc" x="205.312161" y="74.826668" style="stroke: #000000"/>
     <use xlink:href="#mb6705e52fc" x="208.585592" y="76.239448" style="stroke: #000000"/>
     <use xlink:href="#mb6705e52fc" x="211.859022" y="77.637265" style="stroke: #000000"/>
     <use xlink:href="#mb6705e52fc" x="215.132452" y="79.054806" style="stroke: #000000"/>
     <use xlink:href="#mb6705e52fc" x="218.405883" y="80.463611" style="stroke: #000000"/>
     <use xlink:href="#mb6705e52fc" x="221.679313" y="81.888433" style="stroke: #000000"/>
     <use xlink:href="#mb6705e52fc" x="224.952744" y="83.336563" style="stroke: #000000"/>
     <use xlink:href="#mb6705e52fc" x="228.226174" y="84.77269" style="stroke: #000000"/>
     <use xlink:href="#mb6705e52fc" x="231.499605" y="86.231165" style="stroke: #000000"/>
     <use xlink:href="#mb6705e52fc" x="234.773035" y="87.738544" style="stroke: #000000"/>
     <use xlink:href="#mb6705e52fc" x="238.046466" y="89.281557" style="stroke: #000000"/>
     <use xlink:href="#mb6705e52fc" x="241.319896" y="90.849573" style="stroke: #000000"/>
     <use xlink:href="#mb6705e52fc" x="244.593326" y="92.467316" style="stroke: #000000"/>
     <use xlink:href="#mb6705e52fc" x="247.866757" y="94.13102" style="stroke: #000000"/>
     <use xlink:href="#mb6705e52fc" x="251.140187" y="95.856857" style="stroke: #000000"/>
     <use xlink:href="#mb6705e52fc" x="254.413618" y="97.664815" style="stroke: #000000"/>
    </g>
   </g>
   <g id="matplotlib.axis_1">
    <g id="xtick_1">
     <g id="line2d_1">
      <defs>
       <path id="m87fe0c58ee" d="M 0 0 
L 0 3.5 
" style="stroke: #000000; stroke-width: 0.8"/>
      </defs>
      <g>
       <use xlink:href="#m87fe0c58ee" x="58.007791" y="119.465333" style="stroke: #000000; stroke-width: 0.8"/>
      </g>
     </g>
    </g>
    <g id="xtick_2">
     <g id="line2d_2">
      <g>
       <use xlink:href="#m87fe0c58ee" x="98.925672" y="119.465333" style="stroke: #000000; stroke-width: 0.8"/>
      </g>
     </g>
    </g>
    <g id="xtick_3">
     <g id="line2d_3">
      <g>
       <use xlink:href="#m87fe0c58ee" x="139.843552" y="119.465333" style="stroke: #000000; stroke-width: 0.8"/>
      </g>
     </g>
    </g>
    <g id="xtick_4">
     <g id="line2d_4">
      <g>
       <use xlink:href="#m87fe0c58ee" x="180.761433" y="119.465333" style="stroke: #000000; stroke-width: 0.8"/>
      </g>
     </g>
    </g>
    <g id="xtick_5">
     <g id="line2d_5">
      <g>
       <use xlink:href="#m87fe0c58ee" x="221.679313" y="119.465333" style="stroke: #000000; stroke-width: 0.8"/>
      </g>
     </g>
    </g>
    <g id="xtick_6">
     <g id="line2d_6">
      <g>
       <use xlink:href="#m87fe0c58ee" x="262.597194" y="119.465333" style="stroke: #000000; stroke-width: 0.8"/>
      </g>
     </g>
    </g>
   </g>
   <g id="matplotlib.axis_2">
    <g id="ytick_1">
     <g id="line2d_7">
      <defs>
       <path id="m2724ce20b0" d="M 0 0 
L -3.5 0 
" style="stroke: #000000; stroke-width: 0.8"/>
      </defs>
      <g>
       <use xlink:href="#m2724ce20b0" x="48.1875" y="114.362364" style="stroke: #000000; stroke-width: 0.8"/>
      </g>
     </g>
     <g id="text_1">
      <!-- 0 -->
      <g transform="translate(34.825 118.161582) scale(0.1 -0.1)">
       <defs>
        <path id="DejaVuSans-30" d="M 2034 4250 
Q 1547 4250 1301 3770 
Q 1056 3291 1056 2328 
Q 1056 1369 1301 889 
Q 1547 409 2034 409 
Q 2525 409 2770 889 
Q 3016 1369 3016 2328 
Q 3016 3291 2770 3770 
Q 2525 4250 2034 4250 
z
M 2034 4750 
Q 2819 4750 3233 4129 
Q 3647 3509 3647 2328 
Q 3647 1150 3233 529 
Q 2819 -91 2034 -91 
Q 1250 -91 836 529 
Q 422 1150 422 2328 
Q 422 3509 836 4129 
Q 1250 4750 2034 4750 
z
" transform="scale(0.015625)"/>
       </defs>
       <use xlink:href="#DejaVuSans-30"/>
      </g>
     </g>
    </g>
    <g id="ytick_2">
     <g id="line2d_8">
      <g>
       <use xlink:href="#m2724ce20b0" x="48.1875" y="88.84954" style="stroke: #000000; stroke-width: 0.8"/>
      </g>
     </g>
     <g id="text_2">
      <!-- 25 -->
      <g transform="translate(28.4625 92.648759) scale(0.1 -0.1)">
       <defs>
        <path id="DejaVuSans-32" d="M 1228 531 
L 3431 531 
L 3431 0 
L 469 0 
L 469 531 
Q 828 903 1448 1529 
Q 2069 2156 2228 2338 
Q 2531 2678 2651 2914 
Q 2772 3150 2772 3378 
Q 2772 3750 2511 3984 
Q 2250 4219 1831 4219 
Q 1534 4219 1204 4116 
Q 875 4013 500 3803 
L 500 4441 
Q 881 4594 1212 4672 
Q 1544 4750 1819 4750 
Q 2544 4750 2975 4387 
Q 3406 4025 3406 3419 
Q 3406 3131 3298 2873 
Q 3191 2616 2906 2266 
Q 2828 2175 2409 1742 
Q 1991 1309 1228 531 
z
" transform="scale(0.015625)"/>
        <path id="DejaVuSans-35" d="M 691 4666 
L 3169 4666 
L 3169 4134 
L 1269 4134 
L 1269 2991 
Q 1406 3038 1543 3061 
Q 1681 3084 1819 3084 
Q 2600 3084 3056 2656 
Q 3513 2228 3513 1497 
Q 3513 744 3044 326 
Q 2575 -91 1722 -91 
Q 1428 -91 1123 -41 
Q 819 9 494 109 
L 494 744 
Q 775 591 1075 516 
Q 1375 441 1709 441 
Q 2250 441 2565 725 
Q 2881 1009 2881 1497 
Q 2881 1984 2565 2268 
Q 2250 2553 1709 2553 
Q 1456 2553 1204 2497 
Q 953 2441 691 2322 
L 691 4666 
z
" transform="scale(0.015625)"/>
       </defs>
       <use xlink:href="#DejaVuSans-32"/>
       <use xlink:href="#DejaVuSans-35" transform="translate(63.623047 0)"/>
      </g>
     </g>
    </g>
    <g id="ytick_3">
     <g id="line2d_9">
      <g>
       <use xlink:href="#m2724ce20b0" x="48.1875" y="63.336716" style="stroke: #000000; stroke-width: 0.8"/>
      </g>
     </g>
     <g id="text_3">
      <!-- 50 -->
      <g transform="translate(28.4625 67.135935) scale(0.1 -0.1)">
       <use xlink:href="#DejaVuSans-35"/>
       <use xlink:href="#DejaVuSans-30" transform="translate(63.623047 0)"/>
      </g>
     </g>
    </g>
    <g id="ytick_4">
     <g id="line2d_10">
      <g>
       <use xlink:href="#m2724ce20b0" x="48.1875" y="37.823892" style="stroke: #000000; stroke-width: 0.8"/>
      </g>
     </g>
     <g id="text_4">
      <!-- 75 -->
      <g transform="translate(28.4625 41.623111) scale(0.1 -0.1)">
       <defs>
        <path id="DejaVuSans-37" d="M 525 4666 
L 3525 4666 
L 3525 4397 
L 1831 0 
L 1172 0 
L 2766 4134 
L 525 4134 
L 525 4666 
z
" transform="scale(0.015625)"/>
       </defs>
       <use xlink:href="#DejaVuSans-37"/>
       <use xlink:href="#DejaVuSans-35" transform="translate(63.623047 0)"/>
      </g>
     </g>
    </g>
    <g id="ytick_5">
     <g id="line2d_11">
      <g>
       <use xlink:href="#m2724ce20b0" x="48.1875" y="12.311068" style="stroke: #000000; stroke-width: 0.8"/>
      </g>
     </g>
     <g id="text_5">
      <!-- 100 -->
      <g transform="translate(22.1 16.110287) scale(0.1 -0.1)">
       <defs>
        <path id="DejaVuSans-31" d="M 794 531 
L 1825 531 
L 1825 4091 
L 703 3866 
L 703 4441 
L 1819 4666 
L 2450 4666 
L 2450 531 
L 3481 531 
L 3481 0 
L 794 0 
L 794 531 
z
" transform="scale(0.015625)"/>
       </defs>
       <use xlink:href="#DejaVuSans-31"/>
       <use xlink:href="#DejaVuSans-30" transform="translate(63.623047 0)"/>
       <use xlink:href="#DejaVuSans-30" transform="translate(127.246094 0)"/>
      </g>
     </g>
    </g>
    <g id="text_6">
     <!-- $M_0$ (# cm$^{-3}$) -->
     <g transform="translate(16.020313 94.282667) rotate(-90) scale(0.1 -0.1)">
      <defs>
       <path id="DejaVuSans-Oblique-4d" d="M 1081 4666 
L 2028 4666 
L 2572 1522 
L 4378 4666 
L 5350 4666 
L 4441 0 
L 3828 0 
L 4622 4091 
L 2791 897 
L 2175 897 
L 1581 4103 
L 788 0 
L 172 0 
L 1081 4666 
z
" transform="scale(0.015625)"/>
       <path id="DejaVuSans-20" transform="scale(0.015625)"/>
       <path id="DejaVuSans-28" d="M 1984 4856 
Q 1566 4138 1362 3434 
Q 1159 2731 1159 2009 
Q 1159 1288 1364 580 
Q 1569 -128 1984 -844 
L 1484 -844 
Q 1016 -109 783 600 
Q 550 1309 550 2009 
Q 550 2706 781 3412 
Q 1013 4119 1484 4856 
L 1984 4856 
z
" transform="scale(0.015625)"/>
       <path id="DejaVuSans-23" d="M 3272 2816 
L 2363 2816 
L 2100 1772 
L 3016 1772 
L 3272 2816 
z
M 2803 4594 
L 2478 3297 
L 3391 3297 
L 3719 4594 
L 4219 4594 
L 3897 3297 
L 4872 3297 
L 4872 2816 
L 3775 2816 
L 3519 1772 
L 4513 1772 
L 4513 1294 
L 3397 1294 
L 3072 0 
L 2572 0 
L 2894 1294 
L 1978 1294 
L 1656 0 
L 1153 0 
L 1478 1294 
L 494 1294 
L 494 1772 
L 1594 1772 
L 1856 2816 
L 850 2816 
L 850 3297 
L 1978 3297 
L 2297 4594 
L 2803 4594 
z
" transform="scale(0.015625)"/>
       <path id="DejaVuSans-63" d="M 3122 3366 
L 3122 2828 
Q 2878 2963 2633 3030 
Q 2388 3097 2138 3097 
Q 1578 3097 1268 2742 
Q 959 2388 959 1747 
Q 959 1106 1268 751 
Q 1578 397 2138 397 
Q 2388 397 2633 464 
Q 2878 531 3122 666 
L 3122 134 
Q 2881 22 2623 -34 
Q 2366 -91 2075 -91 
Q 1284 -91 818 406 
Q 353 903 353 1747 
Q 353 2603 823 3093 
Q 1294 3584 2113 3584 
Q 2378 3584 2631 3529 
Q 2884 3475 3122 3366 
z
" transform="scale(0.015625)"/>
       <path id="DejaVuSans-6d" d="M 3328 2828 
Q 3544 3216 3844 3400 
Q 4144 3584 4550 3584 
Q 5097 3584 5394 3201 
Q 5691 2819 5691 2113 
L 5691 0 
L 5113 0 
L 5113 2094 
Q 5113 2597 4934 2840 
Q 4756 3084 4391 3084 
Q 3944 3084 3684 2787 
Q 3425 2491 3425 1978 
L 3425 0 
L 2847 0 
L 2847 2094 
Q 2847 2600 2669 2842 
Q 2491 3084 2119 3084 
Q 1678 3084 1418 2786 
Q 1159 2488 1159 1978 
L 1159 0 
L 581 0 
L 581 3500 
L 1159 3500 
L 1159 2956 
Q 1356 3278 1631 3431 
Q 1906 3584 2284 3584 
Q 2666 3584 2933 3390 
Q 3200 3197 3328 2828 
z
" transform="scale(0.015625)"/>
       <path id="DejaVuSans-2212" d="M 678 2272 
L 4684 2272 
L 4684 1741 
L 678 1741 
L 678 2272 
z
" transform="scale(0.015625)"/>
       <path id="DejaVuSans-33" d="M 2597 2516 
Q 3050 2419 3304 2112 
Q 3559 1806 3559 1356 
Q 3559 666 3084 287 
Q 2609 -91 1734 -91 
Q 1441 -91 1130 -33 
Q 819 25 488 141 
L 488 750 
Q 750 597 1062 519 
Q 1375 441 1716 441 
Q 2309 441 2620 675 
Q 2931 909 2931 1356 
Q 2931 1769 2642 2001 
Q 2353 2234 1838 2234 
L 1294 2234 
L 1294 2753 
L 1863 2753 
Q 2328 2753 2575 2939 
Q 2822 3125 2822 3475 
Q 2822 3834 2567 4026 
Q 2313 4219 1838 4219 
Q 1578 4219 1281 4162 
Q 984 4106 628 3988 
L 628 4550 
Q 988 4650 1302 4700 
Q 1616 4750 1894 4750 
Q 2613 4750 3031 4423 
Q 3450 4097 3450 3541 
Q 3450 3153 3228 2886 
Q 3006 2619 2597 2516 
z
" transform="scale(0.015625)"/>
       <path id="DejaVuSans-29" d="M 513 4856 
L 1013 4856 
Q 1481 4119 1714 3412 
Q 1947 2706 1947 2009 
Q 1947 1309 1714 600 
Q 1481 -109 1013 -844 
L 513 -844 
Q 928 -128 1133 580 
Q 1338 1288 1338 2009 
Q 1338 2731 1133 3434 
Q 928 4138 513 4856 
z
" transform="scale(0.015625)"/>
      </defs>
      <use xlink:href="#DejaVuSans-Oblique-4d" transform="translate(0 0.765625)"/>
      <use xlink:href="#DejaVuSans-30" transform="translate(86.279297 -15.640625) scale(0.7)"/>
      <use xlink:href="#DejaVuSans-20" transform="translate(133.549805 0.765625)"/>
      <use xlink:href="#DejaVuSans-28" transform="translate(165.336914 0.765625)"/>
      <use xlink:href="#DejaVuSans-23" transform="translate(204.350586 0.765625)"/>
      <use xlink:href="#DejaVuSans-20" transform="translate(288.139648 0.765625)"/>
      <use xlink:href="#DejaVuSans-63" transform="translate(319.926758 0.765625)"/>
      <use xlink:href="#DejaVuSans-6d" transform="translate(374.907227 0.765625)"/>
      <use xlink:href="#DejaVuSans-2212" transform="translate(473.276367 39.046875) scale(0.7)"/>
      <use xlink:href="#DejaVuSans-33" transform="translate(531.928711 39.046875) scale(0.7)"/>
      <use xlink:href="#DejaVuSans-29" transform="translate(579.199219 0.765625)"/>
     </g>
    </g>
   </g>
   <g id="line2d_12">
    <path d="M 58.007791 12.311068 
L 66.191367 23.540424 
L 74.374944 33.529956 
L 82.55852 42.416516 
L 90.742096 50.321847 
L 98.925672 57.354251 
L 107.109248 63.610075 
L 115.292824 69.175031 
L 123.4764 74.125368 
L 131.659976 78.528923 
L 139.843552 82.446045 
L 148.027128 85.930428 
L 156.210705 89.029846 
L 164.394281 91.786811 
L 172.577857 94.239152 
L 180.761433 96.420538 
L 188.945009 98.360939 
L 197.128585 100.087034 
L 205.312161 101.622572 
L 213.495737 102.988699 
L 221.679313 104.204237 
L 229.862889 105.285936 
L 238.046466 106.248701 
L 246.230042 107.105786 
L 254.413618 107.868974 
" clip-path="url(#p774c54474c)" style="fill: none; stroke: #ff0000; stroke-opacity: 0.8; stroke-linecap: square"/>
   </g>
   <g id="line2d_13">
    <path d="M 58.007791 12.311068 
L 66.191367 23.540422 
L 74.374944 33.529948 
L 82.55852 42.416499 
L 90.742096 50.321828 
L 98.925672 57.354232 
L 107.109248 63.610057 
L 115.292824 69.175013 
L 123.4764 74.125352 
L 131.659976 78.528908 
L 139.843552 82.446033 
L 148.027128 85.930419 
L 156.210705 89.029842 
L 164.394281 91.786811 
L 172.577857 94.239156 
L 180.761433 96.420547 
L 188.945009 98.360951 
L 197.128585 100.087046 
L 205.312161 101.622584 
L 213.495737 102.988706 
L 221.679313 104.204235 
L 229.862889 105.285922 
L 238.046466 106.24867 
L 246.230042 107.105734 
L 254.413618 107.868898 
" clip-path="url(#p774c54474c)" style="fill: none; stroke-dasharray: 9.6,2.4,1.5,2.4; stroke-dashoffset: 0; stroke: #800080; stroke-opacity: 0.8; stroke-width: 1.5"/>
   </g>
   <g id="line2d_14">
    <path d="M 58.007791 12.311068 
L 66.191367 23.617941 
L 74.374944 33.807615 
L 82.55852 43.00346 
L 90.742096 51.265529 
L 98.925672 58.645211 
L 107.109248 65.204005 
L 115.292824 71.011605 
L 123.4764 76.140373 
L 131.659976 80.661221 
L 139.843552 84.641203 
L 148.027128 88.142288 
L 156.210705 91.220845 
L 164.394281 93.927568 
L 172.577857 96.30766 
L 180.761433 98.401169 
L 188.945009 100.24341 
L 197.128585 101.865408 
L 205.312161 103.294359 
L 213.495737 104.554062 
L 221.679313 105.66532 
L 229.862889 106.64631 
L 238.046466 107.512912 
L 246.230042 108.279002 
L 254.413618 108.956706 
" clip-path="url(#p774c54474c)" style="fill: none; stroke-dasharray: 3.7,1.6; stroke-dashoffset: 0; stroke: #800080"/>
   </g>
   <g id="line2d_15">
    <path d="M 58.007791 114.362364 
L 66.191367 114.284845 
L 74.374944 114.084696 
L 82.55852 113.775403 
L 90.742096 113.418663 
L 98.925672 113.071385 
L 107.109248 112.768415 
L 115.292824 112.525772 
L 123.4764 112.347342 
L 131.659976 112.230051 
L 139.843552 112.167193 
L 148.027128 112.150495 
L 156.210705 112.171361 
L 164.394281 112.221607 
L 172.577857 112.29386 
L 180.761433 112.381741 
L 188.945009 112.479905 
L 197.128585 112.584002 
L 205.312161 112.690588 
L 213.495737 112.797008 
L 221.679313 112.901279 
L 229.862889 113.001976 
L 238.046466 113.098122 
L 246.230042 113.189096 
L 254.413618 113.274556 
" clip-path="url(#p774c54474c)" style="fill: none; stroke-dasharray: 3.7,1.6; stroke-dashoffset: 0; stroke: #800080"/>
   </g>
   <g id="line2d_16">
    <path d="M 58.007791 12.311068 
L 66.191367 23.540422 
L 74.374944 33.529948 
L 82.55852 42.416499 
L 90.742096 50.321828 
L 98.925672 57.354232 
L 107.109248 63.610057 
L 115.292824 69.175013 
L 123.4764 74.125352 
L 131.659976 78.528908 
L 139.843552 82.446033 
L 148.027128 85.930419 
L 156.210705 89.029842 
L 164.394281 91.786811 
L 172.577857 94.239156 
L 180.761433 96.420547 
L 188.945009 98.360951 
L 197.128585 100.087046 
L 205.312161 101.622584 
L 213.495737 102.988707 
L 221.679313 104.204239 
L 229.862889 105.285937 
L 238.046466 106.248712 
L 246.230042 107.105829 
L 254.413618 107.869077 
" clip-path="url(#p774c54474c)" style="fill: none; stroke-dasharray: 7.4,3.2; stroke-dashoffset: 0; stroke: #0000ff; stroke-opacity: 0.8; stroke-width: 2"/>
   </g>
   <g id="line2d_17">
    <path d="M 58.007791 12.311068 
L 66.191367 23.540422 
L 74.374944 33.529948 
L 82.55852 42.416499 
L 90.742096 50.321827 
L 98.925672 57.354229 
L 107.109248 63.610048 
L 115.292824 69.174993 
L 123.4764 74.125318 
L 131.659976 78.528866 
L 139.843552 82.445989 
L 148.027128 85.930375 
L 156.210705 89.029795 
L 164.394281 91.786762 
L 172.577857 94.239107 
L 180.761433 96.420504 
L 188.945009 98.360928 
L 197.128585 100.087049 
L 205.312161 101.622614 
L 213.495737 102.988764 
L 221.679313 104.204319 
L 229.862889 105.286028 
L 238.046466 106.248794 
L 246.230042 107.105871 
L 254.413618 107.869045 
" clip-path="url(#p774c54474c)" style="fill: none; stroke-dasharray: 2.5,4.125; stroke-dashoffset: 0; stroke: #008000; stroke-opacity: 0.8; stroke-width: 2.5"/>
   </g>
   <g id="patch_3">
    <path d="M 48.1875 119.465333 
L 48.1875 7.2 
" style="fill: none; stroke: #000000; stroke-width: 0.8; stroke-linejoin: miter; stroke-linecap: square"/>
   </g>
   <g id="patch_4">
    <path d="M 264.233909 119.465333 
L 264.233909 7.2 
" style="fill: none; stroke: #000000; stroke-width: 0.8; stroke-linejoin: miter; stroke-linecap: square"/>
   </g>
   <g id="patch_5">
    <path d="M 48.1875 119.465333 
L 264.233909 119.465333 
" style="fill: none; stroke: #000000; stroke-width: 0.8; stroke-linejoin: miter; stroke-linecap: square"/>
   </g>
   <g id="patch_6">
    <path d="M 48.1875 7.2 
L 264.233909 7.2 
" style="fill: none; stroke: #000000; stroke-width: 0.8; stroke-linejoin: miter; stroke-linecap: square"/>
   </g>
  </g>
  <g id="axes_2">
   <g id="patch_7">
    <path d="M 48.1875 252.952667 
L 264.233909 252.952667 
L 264.233909 140.687333 
L 48.1875 140.687333 
z
" style="fill: #ffffff"/>
   </g>
   <g id="PathCollection_2">
    <g clip-path="url(#p9b01f8ecbd)">
     <use xlink:href="#mb6705e52fc" x="58.007791" y="178.111058" style="stroke: #000000"/>
     <use xlink:href="#mb6705e52fc" x="61.281222" y="178.111058" style="stroke: #000000"/>
     <use xlink:href="#mb6705e52fc" x="64.554652" y="178.111058" style="stroke: #000000"/>
     <use xlink:href="#mb6705e52fc" x="67.828083" y="178.111058" style="stroke: #000000"/>
     <use xlink:href="#mb6705e52fc" x="71.101513" y="178.111058" style="stroke: #000000"/>
     <use xlink:href="#mb6705e52fc" x="74.374944" y="178.111058" style="stroke: #000000"/>
     <use xlink:href="#mb6705e52fc" x="77.648374" y="178.111058" style="stroke: #000000"/>
     <use xlink:href="#mb6705e52fc" x="80.921804" y="178.111058" style="stroke: #000000"/>
     <use xlink:href="#mb6705e52fc" x="84.195235" y="178.111058" style="stroke: #000000"/>
     <use xlink:href="#mb6705e52fc" x="87.468665" y="178.111058" style="stroke: #000000"/>
     <use xlink:href="#mb6705e52fc" x="90.742096" y="178.111058" style="stroke: #000000"/>
     <use xlink:href="#mb6705e52fc" x="94.015526" y="178.111058" style="stroke: #000000"/>
     <use xlink:href="#mb6705e52fc" x="97.288957" y="178.111058" style="stroke: #000000"/>
     <use xlink:href="#mb6705e52fc" x="100.562387" y="178.111058" style="stroke: #000000"/>
     <use xlink:href="#mb6705e52fc" x="103.835817" y="178.111058" style="stroke: #000000"/>
     <use xlink:href="#mb6705e52fc" x="107.109248" y="178.111058" style="stroke: #000000"/>
     <use xlink:href="#mb6705e52fc" x="110.382678" y="178.111058" style="stroke: #000000"/>
     <use xlink:href="#mb6705e52fc" x="113.656109" y="178.111058" style="stroke: #000000"/>
     <use xlink:href="#mb6705e52fc" x="116.929539" y="178.111058" style="stroke: #000000"/>
     <use xlink:href="#mb6705e52fc" x="120.20297" y="178.111058" style="stroke: #000000"/>
     <use xlink:href="#mb6705e52fc" x="123.4764" y="178.111058" style="stroke: #000000"/>
     <use xlink:href="#mb6705e52fc" x="126.749831" y="178.111058" style="stroke: #000000"/>
     <use xlink:href="#mb6705e52fc" x="130.023261" y="178.111058" style="stroke: #000000"/>
     <use xlink:href="#mb6705e52fc" x="133.296691" y="178.111058" style="stroke: #000000"/>
     <use xlink:href="#mb6705e52fc" x="136.570122" y="178.111058" style="stroke: #000000"/>
     <use xlink:href="#mb6705e52fc" x="139.843552" y="178.111058" style="stroke: #000000"/>
     <use xlink:href="#mb6705e52fc" x="143.116983" y="178.111058" style="stroke: #000000"/>
     <use xlink:href="#mb6705e52fc" x="146.390413" y="178.111058" style="stroke: #000000"/>
     <use xlink:href="#mb6705e52fc" x="149.663844" y="178.111058" style="stroke: #000000"/>
     <use xlink:href="#mb6705e52fc" x="152.937274" y="178.111058" style="stroke: #000000"/>
     <use xlink:href="#mb6705e52fc" x="156.210705" y="178.111058" style="stroke: #000000"/>
     <use xlink:href="#mb6705e52fc" x="159.484135" y="178.111058" style="stroke: #000000"/>
     <use xlink:href="#mb6705e52fc" x="162.757565" y="178.111058" style="stroke: #000000"/>
     <use xlink:href="#mb6705e52fc" x="166.030996" y="178.111058" style="stroke: #000000"/>
     <use xlink:href="#mb6705e52fc" x="169.304426" y="178.111058" style="stroke: #000000"/>
     <use xlink:href="#mb6705e52fc" x="172.577857" y="178.111058" style="stroke: #000000"/>
     <use xlink:href="#mb6705e52fc" x="175.851287" y="178.111058" style="stroke: #000000"/>
     <use xlink:href="#mb6705e52fc" x="179.124718" y="178.111058" style="stroke: #000000"/>
     <use xlink:href="#mb6705e52fc" x="182.398148" y="178.111058" style="stroke: #000000"/>
     <use xlink:href="#mb6705e52fc" x="185.671579" y="178.111058" style="stroke: #000000"/>
     <use xlink:href="#mb6705e52fc" x="188.945009" y="178.111058" style="stroke: #000000"/>
     <use xlink:href="#mb6705e52fc" x="192.218439" y="178.111058" style="stroke: #000000"/>
     <use xlink:href="#mb6705e52fc" x="195.49187" y="178.111058" style="stroke: #000000"/>
     <use xlink:href="#mb6705e52fc" x="198.7653" y="178.111058" style="stroke: #000000"/>
     <use xlink:href="#mb6705e52fc" x="202.038731" y="178.111058" style="stroke: #000000"/>
     <use xlink:href="#mb6705e52fc" x="205.312161" y="178.111058" style="stroke: #000000"/>
     <use xlink:href="#mb6705e52fc" x="208.585592" y="178.111058" style="stroke: #000000"/>
     <use xlink:href="#mb6705e52fc" x="211.859022" y="178.111058" style="stroke: #000000"/>
     <use xlink:href="#mb6705e52fc" x="215.132452" y="178.111058" style="stroke: #000000"/>
     <use xlink:href="#mb6705e52fc" x="218.405883" y="178.111058" style="stroke: #000000"/>
     <use xlink:href="#mb6705e52fc" x="221.679313" y="178.111058" style="stroke: #000000"/>
     <use xlink:href="#mb6705e52fc" x="224.952744" y="178.111058" style="stroke: #000000"/>
     <use xlink:href="#mb6705e52fc" x="228.226174" y="178.111058" style="stroke: #000000"/>
     <use xlink:href="#mb6705e52fc" x="231.499605" y="178.111058" style="stroke: #000000"/>
     <use xlink:href="#mb6705e52fc" x="234.773035" y="178.111058" style="stroke: #000000"/>
     <use xlink:href="#mb6705e52fc" x="238.046466" y="178.111058" style="stroke: #000000"/>
     <use xlink:href="#mb6705e52fc" x="241.319896" y="178.111058" style="stroke: #000000"/>
     <use xlink:href="#mb6705e52fc" x="244.593326" y="178.111058" style="stroke: #000000"/>
     <use xlink:href="#mb6705e52fc" x="247.866757" y="178.111058" style="stroke: #000000"/>
     <use xlink:href="#mb6705e52fc" x="251.140187" y="178.111058" style="stroke: #000000"/>
     <use xlink:href="#mb6705e52fc" x="254.413618" y="178.111058" style="stroke: #000000"/>
    </g>
   </g>
   <g id="matplotlib.axis_3">
    <g id="xtick_7">
     <g id="line2d_18">
      <g>
       <use xlink:href="#m87fe0c58ee" x="58.007791" y="252.952667" style="stroke: #000000; stroke-width: 0.8"/>
      </g>
     </g>
    </g>
    <g id="xtick_8">
     <g id="line2d_19">
      <g>
       <use xlink:href="#m87fe0c58ee" x="98.925672" y="252.952667" style="stroke: #000000; stroke-width: 0.8"/>
      </g>
     </g>
    </g>
    <g id="xtick_9">
     <g id="line2d_20">
      <g>
       <use xlink:href="#m87fe0c58ee" x="139.843552" y="252.952667" style="stroke: #000000; stroke-width: 0.8"/>
      </g>
     </g>
    </g>
    <g id="xtick_10">
     <g id="line2d_21">
      <g>
       <use xlink:href="#m87fe0c58ee" x="180.761433" y="252.952667" style="stroke: #000000; stroke-width: 0.8"/>
      </g>
     </g>
    </g>
    <g id="xtick_11">
     <g id="line2d_22">
      <g>
       <use xlink:href="#m87fe0c58ee" x="221.679313" y="252.952667" style="stroke: #000000; stroke-width: 0.8"/>
      </g>
     </g>
    </g>
    <g id="xtick_12">
     <g id="line2d_23">
      <g>
       <use xlink:href="#m87fe0c58ee" x="262.597194" y="252.952667" style="stroke: #000000; stroke-width: 0.8"/>
      </g>
     </g>
    </g>
   </g>
   <g id="matplotlib.axis_4">
    <g id="ytick_6">
     <g id="line2d_24">
      <g>
       <use xlink:href="#m2724ce20b0" x="48.1875" y="252.952667" style="stroke: #000000; stroke-width: 0.8"/>
      </g>
     </g>
     <g id="text_7">
      <!-- 0 -->
      <g transform="translate(34.825 256.751885) scale(0.1 -0.1)">
       <use xlink:href="#DejaVuSans-30"/>
      </g>
     </g>
    </g>
    <g id="ytick_7">
     <g id="line2d_25">
      <g>
       <use xlink:href="#m2724ce20b0" x="48.1875" y="215.530889" style="stroke: #000000; stroke-width: 0.8"/>
      </g>
     </g>
     <g id="text_8">
      <!-- 5 -->
      <g transform="translate(34.825 219.330108) scale(0.1 -0.1)">
       <use xlink:href="#DejaVuSans-35"/>
      </g>
     </g>
    </g>
    <g id="ytick_8">
     <g id="line2d_26">
      <g>
       <use xlink:href="#m2724ce20b0" x="48.1875" y="178.109111" style="stroke: #000000; stroke-width: 0.8"/>
      </g>
     </g>
     <g id="text_9">
      <!-- 10 -->
      <g transform="translate(28.4625 181.90833) scale(0.1 -0.1)">
       <use xlink:href="#DejaVuSans-31"/>
       <use xlink:href="#DejaVuSans-30" transform="translate(63.623047 0)"/>
      </g>
     </g>
    </g>
    <g id="ytick_9">
     <g id="line2d_27">
      <g>
       <use xlink:href="#m2724ce20b0" x="48.1875" y="140.687333" style="stroke: #000000; stroke-width: 0.8"/>
      </g>
     </g>
     <g id="text_10">
      <!-- 15 -->
      <g transform="translate(28.4625 144.486552) scale(0.1 -0.1)">
       <use xlink:href="#DejaVuSans-31"/>
       <use xlink:href="#DejaVuSans-35" transform="translate(63.623047 0)"/>
      </g>
     </g>
    </g>
    <g id="text_11">
     <!-- $M_1$ (# µg cm$^{-3}$) -->
     <g transform="translate(22.3625 235.72) rotate(-90) scale(0.1 -0.1)">
      <defs>
       <path id="DejaVuSans-b5" d="M 544 -1331 
L 544 3500 
L 1119 3500 
L 1119 1325 
Q 1119 872 1334 640 
Q 1550 409 1972 409 
Q 2434 409 2667 671 
Q 2900 934 2900 1459 
L 2900 3500 
L 3475 3500 
L 3475 806 
Q 3475 619 3529 530 
Q 3584 441 3700 441 
Q 3728 441 3778 458 
Q 3828 475 3916 513 
L 3916 50 
Q 3788 -22 3673 -56 
Q 3559 -91 3450 -91 
Q 3234 -91 3106 31 
Q 2978 153 2931 403 
Q 2775 156 2548 32 
Q 2322 -91 2016 -91 
Q 1697 -91 1473 31 
Q 1250 153 1119 397 
L 1119 -1331 
L 544 -1331 
z
" transform="scale(0.015625)"/>
       <path id="DejaVuSans-67" d="M 2906 1791 
Q 2906 2416 2648 2759 
Q 2391 3103 1925 3103 
Q 1463 3103 1205 2759 
Q 947 2416 947 1791 
Q 947 1169 1205 825 
Q 1463 481 1925 481 
Q 2391 481 2648 825 
Q 2906 1169 2906 1791 
z
M 3481 434 
Q 3481 -459 3084 -895 
Q 2688 -1331 1869 -1331 
Q 1566 -1331 1297 -1286 
Q 1028 -1241 775 -1147 
L 775 -588 
Q 1028 -725 1275 -790 
Q 1522 -856 1778 -856 
Q 2344 -856 2625 -561 
Q 2906 -266 2906 331 
L 2906 616 
Q 2728 306 2450 153 
Q 2172 0 1784 0 
Q 1141 0 747 490 
Q 353 981 353 1791 
Q 353 2603 747 3093 
Q 1141 3584 1784 3584 
Q 2172 3584 2450 3431 
Q 2728 3278 2906 2969 
L 2906 3500 
L 3481 3500 
L 3481 434 
z
" transform="scale(0.015625)"/>
      </defs>
      <use xlink:href="#DejaVuSans-Oblique-4d" transform="translate(0 0.765625)"/>
      <use xlink:href="#DejaVuSans-31" transform="translate(86.279297 -15.640625) scale(0.7)"/>
      <use xlink:href="#DejaVuSans-20" transform="translate(133.549805 0.765625)"/>
      <use xlink:href="#DejaVuSans-28" transform="translate(165.336914 0.765625)"/>
      <use xlink:href="#DejaVuSans-23" transform="translate(204.350586 0.765625)"/>
      <use xlink:href="#DejaVuSans-20" transform="translate(288.139648 0.765625)"/>
      <use xlink:href="#DejaVuSans-b5" transform="translate(319.926758 0.765625)"/>
      <use xlink:href="#DejaVuSans-67" transform="translate(383.549805 0.765625)"/>
      <use xlink:href="#DejaVuSans-20" transform="translate(447.026367 0.765625)"/>
      <use xlink:href="#DejaVuSans-63" transform="translate(478.813477 0.765625)"/>
      <use xlink:href="#DejaVuSans-6d" transform="translate(533.793945 0.765625)"/>
      <use xlink:href="#DejaVuSans-2212" transform="translate(632.163086 39.046875) scale(0.7)"/>
      <use xlink:href="#DejaVuSans-33" transform="translate(690.81543 39.046875) scale(0.7)"/>
      <use xlink:href="#DejaVuSans-29" transform="translate(738.085938 0.765625)"/>
     </g>
    </g>
   </g>
   <g id="line2d_28">
    <path d="M 58.007791 178.109111 
L 66.191367 178.109111 
L 74.374944 178.109111 
L 82.55852 178.109111 
L 90.742096 178.109111 
L 98.925672 178.109111 
L 107.109248 178.109111 
L 115.292824 178.109111 
L 123.4764 178.109111 
L 131.659976 178.109111 
L 139.843552 178.109111 
L 148.027128 178.109111 
L 156.210705 178.109111 
L 164.394281 178.109111 
L 172.577857 178.109111 
L 180.761433 178.109111 
L 188.945009 178.109111 
L 197.128585 178.109111 
L 205.312161 178.109111 
L 213.495737 178.109111 
L 221.679313 178.109111 
L 229.862889 178.109111 
L 238.046466 178.109111 
L 246.230042 178.109111 
L 254.413618 178.109111 
" clip-path="url(#p9b01f8ecbd)" style="fill: none; stroke: #ff0000; stroke-opacity: 0.8; stroke-linecap: square"/>
   </g>
   <g id="line2d_29">
    <path d="M 58.007791 178.109111 
L 66.191367 178.109111 
L 74.374944 178.109111 
L 82.55852 178.109111 
L 90.742096 178.109111 
L 98.925672 178.109111 
L 107.109248 178.109111 
L 115.292824 178.109111 
L 123.4764 178.109111 
L 131.659976 178.109111 
L 139.843552 178.109111 
L 148.027128 178.109111 
L 156.210705 178.109111 
L 164.394281 178.109111 
L 172.577857 178.109111 
L 180.761433 178.109111 
L 188.945009 178.109111 
L 197.128585 178.109111 
L 205.312161 178.109111 
L 213.495737 178.109111 
L 221.679313 178.109111 
L 229.862889 178.109111 
L 238.046466 178.109111 
L 246.230042 178.109111 
L 254.413618 178.109111 
" clip-path="url(#p9b01f8ecbd)" style="fill: none; stroke-dasharray: 9.6,2.4,1.5,2.4; stroke-dashoffset: 0; stroke: #800080; stroke-opacity: 0.8; stroke-width: 1.5"/>
   </g>
   <g id="line2d_30">
    <path d="M 58.007791 178.109111 
L 66.191367 178.782589 
L 74.374944 180.696744 
L 82.55852 183.973697 
L 90.742096 188.233567 
L 98.925672 193.01557 
L 107.109248 197.969163 
L 115.292824 202.866528 
L 123.4764 207.569315 
L 131.659976 211.998104 
L 139.843552 216.111701 
L 148.027128 219.893843 
L 156.210705 223.344528 
L 164.394281 226.474179 
L 172.577857 229.299627 
L 180.761433 231.841325 
L 188.945009 234.12142 
L 197.128585 236.162444 
L 205.312161 237.986457 
L 213.495737 239.614502 
L 221.679313 241.066289 
L 229.862889 242.360037 
L 238.046466 243.512419 
L 246.230042 244.53858 
L 254.413618 245.452196 
" clip-path="url(#p9b01f8ecbd)" style="fill: none; stroke-dasharray: 3.7,1.6; stroke-dashoffset: 0; stroke: #800080"/>
   </g>
   <g id="line2d_31">
    <path d="M 58.007791 252.952667 
L 66.191367 252.279189 
L 74.374944 250.365034 
L 82.55852 247.088081 
L 90.742096 242.828211 
L 98.925672 238.046208 
L 107.109248 233.092615 
L 115.292824 228.19525 
L 123.4764 223.492463 
L 131.659976 219.063674 
L 139.843552 214.950077 
L 148.027128 211.167935 
L 156.210705 207.71725 
L 164.394281 204.587599 
L 172.577857 201.762151 
L 180.761433 199.220453 
L 188.945009 196.940358 
L 197.128585 194.899334 
L 205.312161 193.075321 
L 213.495737 191.447276 
L 221.679313 189.995489 
L 229.862889 188.701741 
L 238.046466 187.549359 
L 246.230042 186.523198 
L 254.413618 185.609582 
" clip-path="url(#p9b01f8ecbd)" style="fill: none; stroke-dasharray: 3.7,1.6; stroke-dashoffset: 0; stroke: #800080"/>
   </g>
   <g id="line2d_32">
    <path d="M 58.007791 178.109111 
L 66.191367 178.109111 
L 74.374944 178.109111 
L 82.55852 178.109111 
L 90.742096 178.109111 
L 98.925672 178.109111 
L 107.109248 178.109111 
L 115.292824 178.109111 
L 123.4764 178.109111 
L 131.659976 178.109111 
L 139.843552 178.109111 
L 148.027128 178.109111 
L 156.210705 178.109111 
L 164.394281 178.109111 
L 172.577857 178.109111 
L 180.761433 178.109111 
L 188.945009 178.109111 
L 197.128585 178.109111 
L 205.312161 178.109111 
L 213.495737 178.109111 
L 221.679313 178.109111 
L 229.862889 178.109111 
L 238.046466 178.109111 
L 246.230042 178.109111 
L 254.413618 178.109111 
" clip-path="url(#p9b01f8ecbd)" style="fill: none; stroke-dasharray: 7.4,3.2; stroke-dashoffset: 0; stroke: #0000ff; stroke-opacity: 0.8; stroke-width: 2"/>
   </g>
   <g id="line2d_33">
    <path d="M 58.007791 178.109111 
L 66.191367 178.109111 
L 74.374944 178.109111 
L 82.55852 178.109111 
L 90.742096 178.109111 
L 98.925672 178.109111 
L 107.109248 178.109111 
L 115.292824 178.109111 
L 123.4764 178.109111 
L 131.659976 178.109111 
L 139.843552 178.109111 
L 148.027128 178.109111 
L 156.210705 178.109111 
L 164.394281 178.109111 
L 172.577857 178.109111 
L 180.761433 178.109111 
L 188.945009 178.109111 
L 197.128585 178.109111 
L 205.312161 178.109111 
L 213.495737 178.109111 
L 221.679313 178.109111 
L 229.862889 178.109111 
L 238.046466 178.109111 
L 246.230042 178.109111 
L 254.413618 178.109111 
" clip-path="url(#p9b01f8ecbd)" style="fill: none; stroke-dasharray: 2.5,4.125; stroke-dashoffset: 0; stroke: #008000; stroke-opacity: 0.8; stroke-width: 2.5"/>
   </g>
   <g id="patch_8">
    <path d="M 48.1875 252.952667 
L 48.1875 140.687333 
" style="fill: none; stroke: #000000; stroke-width: 0.8; stroke-linejoin: miter; stroke-linecap: square"/>
   </g>
   <g id="patch_9">
    <path d="M 264.233909 252.952667 
L 264.233909 140.687333 
" style="fill: none; stroke: #000000; stroke-width: 0.8; stroke-linejoin: miter; stroke-linecap: square"/>
   </g>
   <g id="patch_10">
    <path d="M 48.1875 252.952667 
L 264.233909 252.952667 
" style="fill: none; stroke: #000000; stroke-width: 0.8; stroke-linejoin: miter; stroke-linecap: square"/>
   </g>
   <g id="patch_11">
    <path d="M 48.1875 140.687333 
L 264.233909 140.687333 
" style="fill: none; stroke: #000000; stroke-width: 0.8; stroke-linejoin: miter; stroke-linecap: square"/>
   </g>
   <g id="legend_1">
    <g id="patch_12">
     <path d="M 55.1875 247.952667 
L 221.409375 247.952667 
Q 223.409375 247.952667 223.409375 245.952667 
L 223.409375 202.918292 
Q 223.409375 200.918292 221.409375 200.918292 
L 55.1875 200.918292 
Q 53.1875 200.918292 53.1875 202.918292 
L 53.1875 245.952667 
Q 53.1875 247.952667 55.1875 247.952667 
z
" style="fill: #ffffff; opacity: 0.8; stroke: #cccccc; stroke-linejoin: miter"/>
    </g>
    <g id="line2d_34">
     <path d="M 57.1875 209.016729 
L 67.1875 209.016729 
L 77.1875 209.016729 
" style="fill: none; stroke: #ff0000; stroke-opacity: 0.8; stroke-linecap: square"/>
    </g>
    <g id="text_12">
     <!-- 1 modes -->
     <g transform="translate(85.1875 212.516729) scale(0.1 -0.1)">
      <defs>
       <path id="DejaVuSans-6f" d="M 1959 3097 
Q 1497 3097 1228 2736 
Q 959 2375 959 1747 
Q 959 1119 1226 758 
Q 1494 397 1959 397 
Q 2419 397 2687 759 
Q 2956 1122 2956 1747 
Q 2956 2369 2687 2733 
Q 2419 3097 1959 3097 
z
M 1959 3584 
Q 2709 3584 3137 3096 
Q 3566 2609 3566 1747 
Q 3566 888 3137 398 
Q 2709 -91 1959 -91 
Q 1206 -91 779 398 
Q 353 888 353 1747 
Q 353 2609 779 3096 
Q 1206 3584 1959 3584 
z
" transform="scale(0.015625)"/>
       <path id="DejaVuSans-64" d="M 2906 2969 
L 2906 4863 
L 3481 4863 
L 3481 0 
L 2906 0 
L 2906 525 
Q 2725 213 2448 61 
Q 2172 -91 1784 -91 
Q 1150 -91 751 415 
Q 353 922 353 1747 
Q 353 2572 751 3078 
Q 1150 3584 1784 3584 
Q 2172 3584 2448 3432 
Q 2725 3281 2906 2969 
z
M 947 1747 
Q 947 1113 1208 752 
Q 1469 391 1925 391 
Q 2381 391 2643 752 
Q 2906 1113 2906 1747 
Q 2906 2381 2643 2742 
Q 2381 3103 1925 3103 
Q 1469 3103 1208 2742 
Q 947 2381 947 1747 
z
" transform="scale(0.015625)"/>
       <path id="DejaVuSans-65" d="M 3597 1894 
L 3597 1613 
L 953 1613 
Q 991 1019 1311 708 
Q 1631 397 2203 397 
Q 2534 397 2845 478 
Q 3156 559 3463 722 
L 3463 178 
Q 3153 47 2828 -22 
Q 2503 -91 2169 -91 
Q 1331 -91 842 396 
Q 353 884 353 1716 
Q 353 2575 817 3079 
Q 1281 3584 2069 3584 
Q 2775 3584 3186 3129 
Q 3597 2675 3597 1894 
z
M 3022 2063 
Q 3016 2534 2758 2815 
Q 2500 3097 2075 3097 
Q 1594 3097 1305 2825 
Q 1016 2553 972 2059 
L 3022 2063 
z
" transform="scale(0.015625)"/>
       <path id="DejaVuSans-73" d="M 2834 3397 
L 2834 2853 
Q 2591 2978 2328 3040 
Q 2066 3103 1784 3103 
Q 1356 3103 1142 2972 
Q 928 2841 928 2578 
Q 928 2378 1081 2264 
Q 1234 2150 1697 2047 
L 1894 2003 
Q 2506 1872 2764 1633 
Q 3022 1394 3022 966 
Q 3022 478 2636 193 
Q 2250 -91 1575 -91 
Q 1294 -91 989 -36 
Q 684 19 347 128 
L 347 722 
Q 666 556 975 473 
Q 1284 391 1588 391 
Q 1994 391 2212 530 
Q 2431 669 2431 922 
Q 2431 1156 2273 1281 
Q 2116 1406 1581 1522 
L 1381 1569 
Q 847 1681 609 1914 
Q 372 2147 372 2553 
Q 372 3047 722 3315 
Q 1072 3584 1716 3584 
Q 2034 3584 2315 3537 
Q 2597 3491 2834 3397 
z
" transform="scale(0.015625)"/>
      </defs>
      <use xlink:href="#DejaVuSans-31"/>
      <use xlink:href="#DejaVuSans-20" transform="translate(63.623047 0)"/>
      <use xlink:href="#DejaVuSans-6d" transform="translate(95.410156 0)"/>
      <use xlink:href="#DejaVuSans-6f" transform="translate(192.822266 0)"/>
      <use xlink:href="#DejaVuSans-64" transform="translate(254.003906 0)"/>
      <use xlink:href="#DejaVuSans-65" transform="translate(317.480469 0)"/>
      <use xlink:href="#DejaVuSans-73" transform="translate(379.003906 0)"/>
     </g>
    </g>
    <g id="line2d_35">
     <path d="M 57.1875 223.694854 
L 67.1875 223.694854 
L 77.1875 223.694854 
" style="fill: none; stroke-dasharray: 9.6,2.4,1.5,2.4; stroke-dashoffset: 0; stroke: #800080; stroke-opacity: 0.8; stroke-width: 1.5"/>
    </g>
    <g id="text_13">
     <!-- 2 modes -->
     <g transform="translate(85.1875 227.194854) scale(0.1 -0.1)">
      <use xlink:href="#DejaVuSans-32"/>
      <use xlink:href="#DejaVuSans-20" transform="translate(63.623047 0)"/>
      <use xlink:href="#DejaVuSans-6d" transform="translate(95.410156 0)"/>
      <use xlink:href="#DejaVuSans-6f" transform="translate(192.822266 0)"/>
      <use xlink:href="#DejaVuSans-64" transform="translate(254.003906 0)"/>
      <use xlink:href="#DejaVuSans-65" transform="translate(317.480469 0)"/>
      <use xlink:href="#DejaVuSans-73" transform="translate(379.003906 0)"/>
     </g>
    </g>
    <g id="line2d_36">
     <path d="M 57.1875 238.372979 
L 67.1875 238.372979 
L 77.1875 238.372979 
" style="fill: none; stroke-dasharray: 3.7,1.6; stroke-dashoffset: 0; stroke: #800080"/>
    </g>
    <g id="text_14">
     <!--   mode i -->
     <g transform="translate(85.1875 241.872979) scale(0.1 -0.1)">
      <defs>
       <path id="DejaVuSans-69" d="M 603 3500 
L 1178 3500 
L 1178 0 
L 603 0 
L 603 3500 
z
M 603 4863 
L 1178 4863 
L 1178 4134 
L 603 4134 
L 603 4863 
z
" transform="scale(0.015625)"/>
      </defs>
      <use xlink:href="#DejaVuSans-20"/>
      <use xlink:href="#DejaVuSans-20" transform="translate(31.787109 0)"/>
      <use xlink:href="#DejaVuSans-6d" transform="translate(63.574219 0)"/>
      <use xlink:href="#DejaVuSans-6f" transform="translate(160.986328 0)"/>
      <use xlink:href="#DejaVuSans-64" transform="translate(222.167969 0)"/>
      <use xlink:href="#DejaVuSans-65" transform="translate(285.644531 0)"/>
      <use xlink:href="#DejaVuSans-20" transform="translate(347.167969 0)"/>
      <use xlink:href="#DejaVuSans-69" transform="translate(378.955078 0)"/>
     </g>
    </g>
    <g id="line2d_37">
     <path d="M 148.298438 209.016729 
L 158.298438 209.016729 
L 168.298438 209.016729 
" style="fill: none; stroke-dasharray: 7.4,3.2; stroke-dashoffset: 0; stroke: #0000ff; stroke-opacity: 0.8; stroke-width: 2"/>
    </g>
    <g id="text_15">
     <!-- 3 modes -->
     <g transform="translate(176.298438 212.516729) scale(0.1 -0.1)">
      <use xlink:href="#DejaVuSans-33"/>
      <use xlink:href="#DejaVuSans-20" transform="translate(63.623047 0)"/>
      <use xlink:href="#DejaVuSans-6d" transform="translate(95.410156 0)"/>
      <use xlink:href="#DejaVuSans-6f" transform="translate(192.822266 0)"/>
      <use xlink:href="#DejaVuSans-64" transform="translate(254.003906 0)"/>
      <use xlink:href="#DejaVuSans-65" transform="translate(317.480469 0)"/>
      <use xlink:href="#DejaVuSans-73" transform="translate(379.003906 0)"/>
     </g>
    </g>
    <g id="line2d_38">
     <path d="M 148.298438 223.694854 
L 158.298438 223.694854 
L 168.298438 223.694854 
" style="fill: none; stroke-dasharray: 2.5,4.125; stroke-dashoffset: 0; stroke: #008000; stroke-opacity: 0.8; stroke-width: 2.5"/>
    </g>
    <g id="text_16">
     <!-- 8 modes -->
     <g transform="translate(176.298438 227.194854) scale(0.1 -0.1)">
      <defs>
       <path id="DejaVuSans-38" d="M 2034 2216 
Q 1584 2216 1326 1975 
Q 1069 1734 1069 1313 
Q 1069 891 1326 650 
Q 1584 409 2034 409 
Q 2484 409 2743 651 
Q 3003 894 3003 1313 
Q 3003 1734 2745 1975 
Q 2488 2216 2034 2216 
z
M 1403 2484 
Q 997 2584 770 2862 
Q 544 3141 544 3541 
Q 544 4100 942 4425 
Q 1341 4750 2034 4750 
Q 2731 4750 3128 4425 
Q 3525 4100 3525 3541 
Q 3525 3141 3298 2862 
Q 3072 2584 2669 2484 
Q 3125 2378 3379 2068 
Q 3634 1759 3634 1313 
Q 3634 634 3220 271 
Q 2806 -91 2034 -91 
Q 1263 -91 848 271 
Q 434 634 434 1313 
Q 434 1759 690 2068 
Q 947 2378 1403 2484 
z
M 1172 3481 
Q 1172 3119 1398 2916 
Q 1625 2713 2034 2713 
Q 2441 2713 2670 2916 
Q 2900 3119 2900 3481 
Q 2900 3844 2670 4047 
Q 2441 4250 2034 4250 
Q 1625 4250 1398 4047 
Q 1172 3844 1172 3481 
z
" transform="scale(0.015625)"/>
      </defs>
      <use xlink:href="#DejaVuSans-38"/>
      <use xlink:href="#DejaVuSans-20" transform="translate(63.623047 0)"/>
      <use xlink:href="#DejaVuSans-6d" transform="translate(95.410156 0)"/>
      <use xlink:href="#DejaVuSans-6f" transform="translate(192.822266 0)"/>
      <use xlink:href="#DejaVuSans-64" transform="translate(254.003906 0)"/>
      <use xlink:href="#DejaVuSans-65" transform="translate(317.480469 0)"/>
      <use xlink:href="#DejaVuSans-73" transform="translate(379.003906 0)"/>
     </g>
    </g>
    <g id="PathCollection_3">
     <g>
      <use xlink:href="#mb6705e52fc" x="158.298438" y="239.247979" style="stroke: #000000"/>
     </g>
    </g>
    <g id="text_17">
     <!-- PySDM -->
     <g transform="translate(176.298438 241.872979) scale(0.1 -0.1)">
      <defs>
       <path id="DejaVuSans-50" d="M 1259 4147 
L 1259 2394 
L 2053 2394 
Q 2494 2394 2734 2622 
Q 2975 2850 2975 3272 
Q 2975 3691 2734 3919 
Q 2494 4147 2053 4147 
L 1259 4147 
z
M 628 4666 
L 2053 4666 
Q 2838 4666 3239 4311 
Q 3641 3956 3641 3272 
Q 3641 2581 3239 2228 
Q 2838 1875 2053 1875 
L 1259 1875 
L 1259 0 
L 628 0 
L 628 4666 
z
" transform="scale(0.015625)"/>
       <path id="DejaVuSans-79" d="M 2059 -325 
Q 1816 -950 1584 -1140 
Q 1353 -1331 966 -1331 
L 506 -1331 
L 506 -850 
L 844 -850 
Q 1081 -850 1212 -737 
Q 1344 -625 1503 -206 
L 1606 56 
L 191 3500 
L 800 3500 
L 1894 763 
L 2988 3500 
L 3597 3500 
L 2059 -325 
z
" transform="scale(0.015625)"/>
       <path id="DejaVuSans-53" d="M 3425 4513 
L 3425 3897 
Q 3066 4069 2747 4153 
Q 2428 4238 2131 4238 
Q 1616 4238 1336 4038 
Q 1056 3838 1056 3469 
Q 1056 3159 1242 3001 
Q 1428 2844 1947 2747 
L 2328 2669 
Q 3034 2534 3370 2195 
Q 3706 1856 3706 1288 
Q 3706 609 3251 259 
Q 2797 -91 1919 -91 
Q 1588 -91 1214 -16 
Q 841 59 441 206 
L 441 856 
Q 825 641 1194 531 
Q 1563 422 1919 422 
Q 2459 422 2753 634 
Q 3047 847 3047 1241 
Q 3047 1584 2836 1778 
Q 2625 1972 2144 2069 
L 1759 2144 
Q 1053 2284 737 2584 
Q 422 2884 422 3419 
Q 422 4038 858 4394 
Q 1294 4750 2059 4750 
Q 2388 4750 2728 4690 
Q 3069 4631 3425 4513 
z
" transform="scale(0.015625)"/>
       <path id="DejaVuSans-44" d="M 1259 4147 
L 1259 519 
L 2022 519 
Q 2988 519 3436 956 
Q 3884 1394 3884 2338 
Q 3884 3275 3436 3711 
Q 2988 4147 2022 4147 
L 1259 4147 
z
M 628 4666 
L 1925 4666 
Q 3281 4666 3915 4102 
Q 4550 3538 4550 2338 
Q 4550 1131 3912 565 
Q 3275 0 1925 0 
L 628 0 
L 628 4666 
z
" transform="scale(0.015625)"/>
       <path id="DejaVuSans-4d" d="M 628 4666 
L 1569 4666 
L 2759 1491 
L 3956 4666 
L 4897 4666 
L 4897 0 
L 4281 0 
L 4281 4097 
L 3078 897 
L 2444 897 
L 1241 4097 
L 1241 0 
L 628 0 
L 628 4666 
z
" transform="scale(0.015625)"/>
      </defs>
      <use xlink:href="#DejaVuSans-50"/>
      <use xlink:href="#DejaVuSans-79" transform="translate(60.302734 0)"/>
      <use xlink:href="#DejaVuSans-53" transform="translate(119.482422 0)"/>
      <use xlink:href="#DejaVuSans-44" transform="translate(182.958984 0)"/>
      <use xlink:href="#DejaVuSans-4d" transform="translate(259.960938 0)"/>
     </g>
    </g>
   </g>
  </g>
  <g id="axes_3">
   <g id="patch_13">
    <path d="M 48.1875 386.44 
L 264.233909 386.44 
L 264.233909 274.174667 
L 48.1875 274.174667 
z
" style="fill: #ffffff"/>
   </g>
   <g id="PathCollection_4">
    <g clip-path="url(#pa4259b4a4e)">
     <use xlink:href="#mb6705e52fc" x="58.007791" y="375.186161" style="stroke: #000000"/>
     <use xlink:href="#mb6705e52fc" x="61.281222" y="374.740658" style="stroke: #000000"/>
     <use xlink:href="#mb6705e52fc" x="64.554652" y="374.308802" style="stroke: #000000"/>
     <use xlink:href="#mb6705e52fc" x="67.828083" y="373.860224" style="stroke: #000000"/>
     <use xlink:href="#mb6705e52fc" x="71.101513" y="373.37921" style="stroke: #000000"/>
     <use xlink:href="#mb6705e52fc" x="74.374944" y="372.913243" style="stroke: #000000"/>
     <use xlink:href="#mb6705e52fc" x="77.648374" y="372.428195" style="stroke: #000000"/>
     <use xlink:href="#mb6705e52fc" x="80.921804" y="371.921108" style="stroke: #000000"/>
     <use xlink:href="#mb6705e52fc" x="84.195235" y="371.39522" style="stroke: #000000"/>
     <use xlink:href="#mb6705e52fc" x="87.468665" y="370.838924" style="stroke: #000000"/>
     <use xlink:href="#mb6705e52fc" x="90.742096" y="370.299778" style="stroke: #000000"/>
     <use xlink:href="#mb6705e52fc" x="94.015526" y="369.719674" style="stroke: #000000"/>
     <use xlink:href="#mb6705e52fc" x="97.288957" y="369.139264" style="stroke: #000000"/>
     <use xlink:href="#mb6705e52fc" x="100.562387" y="368.475819" style="stroke: #000000"/>
     <use xlink:href="#mb6705e52fc" x="103.835817" y="367.815012" style="stroke: #000000"/>
     <use xlink:href="#mb6705e52fc" x="107.109248" y="367.16014" style="stroke: #000000"/>
     <use xlink:href="#mb6705e52fc" x="110.382678" y="366.476816" style="stroke: #000000"/>
     <use xlink:href="#mb6705e52fc" x="113.656109" y="365.774348" style="stroke: #000000"/>
     <use xlink:href="#mb6705e52fc" x="116.929539" y="365.012869" style="stroke: #000000"/>
     <use xlink:href="#mb6705e52fc" x="120.20297" y="364.224237" style="stroke: #000000"/>
     <use xlink:href="#mb6705e52fc" x="123.4764" y="363.465864" style="stroke: #000000"/>
     <use xlink:href="#mb6705e52fc" x="126.749831" y="362.670259" style="stroke: #000000"/>
     <use xlink:href="#mb6705e52fc" x="130.023261" y="361.809061" style="stroke: #000000"/>
     <use xlink:href="#mb6705e52fc" x="133.296691" y="360.928372" style="stroke: #000000"/>
     <use xlink:href="#mb6705e52fc" x="136.570122" y="360.06667" style="stroke: #000000"/>
     <use xlink:href="#mb6705e52fc" x="139.843552" y="359.121612" style="stroke: #000000"/>
     <use xlink:href="#mb6705e52fc" x="143.116983" y="358.141826" style="stroke: #000000"/>
     <use xlink:href="#mb6705e52fc" x="146.390413" y="357.147079" style="stroke: #000000"/>
     <use xlink:href="#mb6705e52fc" x="149.663844" y="356.022794" style="stroke: #000000"/>
     <use xlink:href="#mb6705e52fc" x="152.937274" y="354.948137" style="stroke: #000000"/>
     <use xlink:href="#mb6705e52fc" x="156.210705" y="353.779607" style="stroke: #000000"/>
     <use xlink:href="#mb6705e52fc" x="159.484135" y="352.527119" style="stroke: #000000"/>
     <use xlink:href="#mb6705e52fc" x="162.757565" y="351.202731" style="stroke: #000000"/>
     <use xlink:href="#mb6705e52fc" x="166.030996" y="349.95871" style="stroke: #000000"/>
     <use xlink:href="#mb6705e52fc" x="169.304426" y="348.666105" style="stroke: #000000"/>
     <use xlink:href="#mb6705e52fc" x="172.577857" y="347.278081" style="stroke: #000000"/>
     <use xlink:href="#mb6705e52fc" x="175.851287" y="345.710197" style="stroke: #000000"/>
     <use xlink:href="#mb6705e52fc" x="179.124718" y="344.214515" style="stroke: #000000"/>
     <use xlink:href="#mb6705e52fc" x="182.398148" y="342.577937" style="stroke: #000000"/>
     <use xlink:href="#mb6705e52fc" x="185.671579" y="340.869472" style="stroke: #000000"/>
     <use xlink:href="#mb6705e52fc" x="188.945009" y="338.93612" style="stroke: #000000"/>
     <use xlink:href="#mb6705e52fc" x="192.218439" y="337.047248" style="stroke: #000000"/>
     <use xlink:href="#mb6705e52fc" x="195.49187" y="334.950102" style="stroke: #000000"/>
     <use xlink:href="#mb6705e52fc" x="198.7653" y="332.747561" style="stroke: #000000"/>
     <use xlink:href="#mb6705e52fc" x="202.038731" y="330.392852" style="stroke: #000000"/>
     <use xlink:href="#mb6705e52fc" x="205.312161" y="328.07344" style="stroke: #000000"/>
     <use xlink:href="#mb6705e52fc" x="208.585592" y="325.542834" style="stroke: #000000"/>
     <use xlink:href="#mb6705e52fc" x="211.859022" y="322.679446" style="stroke: #000000"/>
     <use xlink:href="#mb6705e52fc" x="215.132452" y="319.87581" style="stroke: #000000"/>
     <use xlink:href="#mb6705e52fc" x="218.405883" y="316.971336" style="stroke: #000000"/>
     <use xlink:href="#mb6705e52fc" x="221.679313" y="313.220584" style="stroke: #000000"/>
     <use xlink:href="#mb6705e52fc" x="224.952744" y="309.20335" style="stroke: #000000"/>
     <use xlink:href="#mb6705e52fc" x="228.226174" y="304.552861" style="stroke: #000000"/>
     <use xlink:href="#mb6705e52fc" x="231.499605" y="298.758025" style="stroke: #000000"/>
     <use xlink:href="#mb6705e52fc" x="234.773035" y="291.409816" style="stroke: #000000"/>
     <use xlink:href="#mb6705e52fc" x="238.046466" y="278.779716" style="stroke: #000000"/>
     <use xlink:href="#mb6705e52fc" x="241.319896" y="268.366131" style="stroke: #000000"/>
     <use xlink:href="#mb6705e52fc" x="244.593326" y="259.468594" style="stroke: #000000"/>
     <use xlink:href="#mb6705e52fc" x="247.866757" y="250.37306" style="stroke: #000000"/>
     <use xlink:href="#mb6705e52fc" x="251.140187" y="243.60674" style="stroke: #000000"/>
     <use xlink:href="#mb6705e52fc" x="254.413618" y="236.380781" style="stroke: #000000"/>
    </g>
   </g>
   <g id="matplotlib.axis_5">
    <g id="xtick_13">
     <g id="line2d_39">
      <g>
       <use xlink:href="#m87fe0c58ee" x="58.007791" y="386.44" style="stroke: #000000; stroke-width: 0.8"/>
      </g>
     </g>
     <g id="text_18">
      <!-- 0 -->
      <g transform="translate(54.826541 401.038437) scale(0.1 -0.1)">
       <use xlink:href="#DejaVuSans-30"/>
      </g>
     </g>
    </g>
    <g id="xtick_14">
     <g id="line2d_40">
      <g>
       <use xlink:href="#m87fe0c58ee" x="98.925672" y="386.44" style="stroke: #000000; stroke-width: 0.8"/>
      </g>
     </g>
     <g id="text_19">
      <!-- 50 -->
      <g transform="translate(92.563172 401.038437) scale(0.1 -0.1)">
       <use xlink:href="#DejaVuSans-35"/>
       <use xlink:href="#DejaVuSans-30" transform="translate(63.623047 0)"/>
      </g>
     </g>
    </g>
    <g id="xtick_15">
     <g id="line2d_41">
      <g>
       <use xlink:href="#m87fe0c58ee" x="139.843552" y="386.44" style="stroke: #000000; stroke-width: 0.8"/>
      </g>
     </g>
     <g id="text_20">
      <!-- 100 -->
      <g transform="translate(130.299802 401.038437) scale(0.1 -0.1)">
       <use xlink:href="#DejaVuSans-31"/>
       <use xlink:href="#DejaVuSans-30" transform="translate(63.623047 0)"/>
       <use xlink:href="#DejaVuSans-30" transform="translate(127.246094 0)"/>
      </g>
     </g>
    </g>
    <g id="xtick_16">
     <g id="line2d_42">
      <g>
       <use xlink:href="#m87fe0c58ee" x="180.761433" y="386.44" style="stroke: #000000; stroke-width: 0.8"/>
      </g>
     </g>
     <g id="text_21">
      <!-- 150 -->
      <g transform="translate(171.217683 401.038437) scale(0.1 -0.1)">
       <use xlink:href="#DejaVuSans-31"/>
       <use xlink:href="#DejaVuSans-35" transform="translate(63.623047 0)"/>
       <use xlink:href="#DejaVuSans-30" transform="translate(127.246094 0)"/>
      </g>
     </g>
    </g>
    <g id="xtick_17">
     <g id="line2d_43">
      <g>
       <use xlink:href="#m87fe0c58ee" x="221.679313" y="386.44" style="stroke: #000000; stroke-width: 0.8"/>
      </g>
     </g>
     <g id="text_22">
      <!-- 200 -->
      <g transform="translate(212.135563 401.038437) scale(0.1 -0.1)">
       <use xlink:href="#DejaVuSans-32"/>
       <use xlink:href="#DejaVuSans-30" transform="translate(63.623047 0)"/>
       <use xlink:href="#DejaVuSans-30" transform="translate(127.246094 0)"/>
      </g>
     </g>
    </g>
    <g id="xtick_18">
     <g id="line2d_44">
      <g>
       <use xlink:href="#m87fe0c58ee" x="262.597194" y="386.44" style="stroke: #000000; stroke-width: 0.8"/>
      </g>
     </g>
     <g id="text_23">
      <!-- 250 -->
      <g transform="translate(253.053444 401.038437) scale(0.1 -0.1)">
       <use xlink:href="#DejaVuSans-32"/>
       <use xlink:href="#DejaVuSans-35" transform="translate(63.623047 0)"/>
       <use xlink:href="#DejaVuSans-30" transform="translate(127.246094 0)"/>
      </g>
     </g>
    </g>
    <g id="text_24">
     <!-- time (s) -->
     <g transform="translate(136.819298 414.716562) scale(0.1 -0.1)">
      <defs>
       <path id="DejaVuSans-74" d="M 1172 4494 
L 1172 3500 
L 2356 3500 
L 2356 3053 
L 1172 3053 
L 1172 1153 
Q 1172 725 1289 603 
Q 1406 481 1766 481 
L 2356 481 
L 2356 0 
L 1766 0 
Q 1100 0 847 248 
Q 594 497 594 1153 
L 594 3053 
L 172 3053 
L 172 3500 
L 594 3500 
L 594 4494 
L 1172 4494 
z
" transform="scale(0.015625)"/>
      </defs>
      <use xlink:href="#DejaVuSans-74"/>
      <use xlink:href="#DejaVuSans-69" transform="translate(39.208984 0)"/>
      <use xlink:href="#DejaVuSans-6d" transform="translate(66.992188 0)"/>
      <use xlink:href="#DejaVuSans-65" transform="translate(164.404297 0)"/>
      <use xlink:href="#DejaVuSans-20" transform="translate(225.927734 0)"/>
      <use xlink:href="#DejaVuSans-28" transform="translate(257.714844 0)"/>
      <use xlink:href="#DejaVuSans-73" transform="translate(296.728516 0)"/>
      <use xlink:href="#DejaVuSans-29" transform="translate(348.828125 0)"/>
     </g>
    </g>
   </g>
   <g id="matplotlib.axis_6">
    <g id="ytick_10">
     <g id="line2d_45">
      <g>
       <use xlink:href="#m2724ce20b0" x="48.1875" y="386.44" style="stroke: #000000; stroke-width: 0.8"/>
      </g>
     </g>
     <g id="text_25">
      <!-- $\mathdefault{10^{0}}$ -->
      <g transform="translate(23.5875 390.239219) scale(0.1 -0.1)">
       <use xlink:href="#DejaVuSans-31" transform="translate(0 0.765625)"/>
       <use xlink:href="#DejaVuSans-30" transform="translate(63.623047 0.765625)"/>
       <use xlink:href="#DejaVuSans-30" transform="translate(128.203125 39.046875) scale(0.7)"/>
      </g>
     </g>
    </g>
    <g id="ytick_11">
     <g id="line2d_46">
      <g>
       <use xlink:href="#m2724ce20b0" x="48.1875" y="349.018222" style="stroke: #000000; stroke-width: 0.8"/>
      </g>
     </g>
     <g id="text_26">
      <!-- $\mathdefault{10^{1}}$ -->
      <g transform="translate(23.5875 352.817441) scale(0.1 -0.1)">
       <use xlink:href="#DejaVuSans-31" transform="translate(0 0.684375)"/>
       <use xlink:href="#DejaVuSans-30" transform="translate(63.623047 0.684375)"/>
       <use xlink:href="#DejaVuSans-31" transform="translate(128.203125 38.965625) scale(0.7)"/>
      </g>
     </g>
    </g>
    <g id="ytick_12">
     <g id="line2d_47">
      <g>
       <use xlink:href="#m2724ce20b0" x="48.1875" y="311.596444" style="stroke: #000000; stroke-width: 0.8"/>
      </g>
     </g>
     <g id="text_27">
      <!-- $\mathdefault{10^{2}}$ -->
      <g transform="translate(23.5875 315.395663) scale(0.1 -0.1)">
       <use xlink:href="#DejaVuSans-31" transform="translate(0 0.765625)"/>
       <use xlink:href="#DejaVuSans-30" transform="translate(63.623047 0.765625)"/>
       <use xlink:href="#DejaVuSans-32" transform="translate(128.203125 39.046875) scale(0.7)"/>
      </g>
     </g>
    </g>
    <g id="ytick_13">
     <g id="line2d_48">
      <g>
       <use xlink:href="#m2724ce20b0" x="48.1875" y="274.174667" style="stroke: #000000; stroke-width: 0.8"/>
      </g>
     </g>
     <g id="text_28">
      <!-- $\mathdefault{10^{3}}$ -->
      <g transform="translate(23.5875 277.973885) scale(0.1 -0.1)">
       <use xlink:href="#DejaVuSans-31" transform="translate(0 0.765625)"/>
       <use xlink:href="#DejaVuSans-30" transform="translate(63.623047 0.765625)"/>
       <use xlink:href="#DejaVuSans-33" transform="translate(128.203125 39.046875) scale(0.7)"/>
      </g>
     </g>
    </g>
    <g id="ytick_14">
     <g id="line2d_49">
      <defs>
       <path id="mdc212daff7" d="M 0 0 
L -2 0 
" style="stroke: #000000; stroke-width: 0.6"/>
      </defs>
      <g>
       <use xlink:href="#mdc212daff7" x="48.1875" y="375.174922" style="stroke: #000000; stroke-width: 0.6"/>
      </g>
     </g>
    </g>
    <g id="ytick_15">
     <g id="line2d_50">
      <g>
       <use xlink:href="#mdc212daff7" x="48.1875" y="368.585274" style="stroke: #000000; stroke-width: 0.6"/>
      </g>
     </g>
    </g>
    <g id="ytick_16">
     <g id="line2d_51">
      <g>
       <use xlink:href="#mdc212daff7" x="48.1875" y="363.909845" style="stroke: #000000; stroke-width: 0.6"/>
      </g>
     </g>
    </g>
    <g id="ytick_17">
     <g id="line2d_52">
      <g>
       <use xlink:href="#mdc212daff7" x="48.1875" y="360.2833" style="stroke: #000000; stroke-width: 0.6"/>
      </g>
     </g>
    </g>
    <g id="ytick_18">
     <g id="line2d_53">
      <g>
       <use xlink:href="#mdc212daff7" x="48.1875" y="357.320197" style="stroke: #000000; stroke-width: 0.6"/>
      </g>
     </g>
    </g>
    <g id="ytick_19">
     <g id="line2d_54">
      <g>
       <use xlink:href="#mdc212daff7" x="48.1875" y="354.814929" style="stroke: #000000; stroke-width: 0.6"/>
      </g>
     </g>
    </g>
    <g id="ytick_20">
     <g id="line2d_55">
      <g>
       <use xlink:href="#mdc212daff7" x="48.1875" y="352.644767" style="stroke: #000000; stroke-width: 0.6"/>
      </g>
     </g>
    </g>
    <g id="ytick_21">
     <g id="line2d_56">
      <g>
       <use xlink:href="#mdc212daff7" x="48.1875" y="350.730549" style="stroke: #000000; stroke-width: 0.6"/>
      </g>
     </g>
    </g>
    <g id="ytick_22">
     <g id="line2d_57">
      <g>
       <use xlink:href="#mdc212daff7" x="48.1875" y="337.753145" style="stroke: #000000; stroke-width: 0.6"/>
      </g>
     </g>
    </g>
    <g id="ytick_23">
     <g id="line2d_58">
      <g>
       <use xlink:href="#mdc212daff7" x="48.1875" y="331.163497" style="stroke: #000000; stroke-width: 0.6"/>
      </g>
     </g>
    </g>
    <g id="ytick_24">
     <g id="line2d_59">
      <g>
       <use xlink:href="#mdc212daff7" x="48.1875" y="326.488067" style="stroke: #000000; stroke-width: 0.6"/>
      </g>
     </g>
    </g>
    <g id="ytick_25">
     <g id="line2d_60">
      <g>
       <use xlink:href="#mdc212daff7" x="48.1875" y="322.861522" style="stroke: #000000; stroke-width: 0.6"/>
      </g>
     </g>
    </g>
    <g id="ytick_26">
     <g id="line2d_61">
      <g>
       <use xlink:href="#mdc212daff7" x="48.1875" y="319.898419" style="stroke: #000000; stroke-width: 0.6"/>
      </g>
     </g>
    </g>
    <g id="ytick_27">
     <g id="line2d_62">
      <g>
       <use xlink:href="#mdc212daff7" x="48.1875" y="317.393151" style="stroke: #000000; stroke-width: 0.6"/>
      </g>
     </g>
    </g>
    <g id="ytick_28">
     <g id="line2d_63">
      <g>
       <use xlink:href="#mdc212daff7" x="48.1875" y="315.222989" style="stroke: #000000; stroke-width: 0.6"/>
      </g>
     </g>
    </g>
    <g id="ytick_29">
     <g id="line2d_64">
      <g>
       <use xlink:href="#mdc212daff7" x="48.1875" y="313.308771" style="stroke: #000000; stroke-width: 0.6"/>
      </g>
     </g>
    </g>
    <g id="ytick_30">
     <g id="line2d_65">
      <g>
       <use xlink:href="#mdc212daff7" x="48.1875" y="300.331367" style="stroke: #000000; stroke-width: 0.6"/>
      </g>
     </g>
    </g>
    <g id="ytick_31">
     <g id="line2d_66">
      <g>
       <use xlink:href="#mdc212daff7" x="48.1875" y="293.741719" style="stroke: #000000; stroke-width: 0.6"/>
      </g>
     </g>
    </g>
    <g id="ytick_32">
     <g id="line2d_67">
      <g>
       <use xlink:href="#mdc212daff7" x="48.1875" y="289.066289" style="stroke: #000000; stroke-width: 0.6"/>
      </g>
     </g>
    </g>
    <g id="ytick_33">
     <g id="line2d_68">
      <g>
       <use xlink:href="#mdc212daff7" x="48.1875" y="285.439744" style="stroke: #000000; stroke-width: 0.6"/>
      </g>
     </g>
    </g>
    <g id="ytick_34">
     <g id="line2d_69">
      <g>
       <use xlink:href="#mdc212daff7" x="48.1875" y="282.476641" style="stroke: #000000; stroke-width: 0.6"/>
      </g>
     </g>
    </g>
    <g id="ytick_35">
     <g id="line2d_70">
      <g>
       <use xlink:href="#mdc212daff7" x="48.1875" y="279.971373" style="stroke: #000000; stroke-width: 0.6"/>
      </g>
     </g>
    </g>
    <g id="ytick_36">
     <g id="line2d_71">
      <g>
       <use xlink:href="#mdc212daff7" x="48.1875" y="277.801212" style="stroke: #000000; stroke-width: 0.6"/>
      </g>
     </g>
    </g>
    <g id="ytick_37">
     <g id="line2d_72">
      <g>
       <use xlink:href="#mdc212daff7" x="48.1875" y="275.886993" style="stroke: #000000; stroke-width: 0.6"/>
      </g>
     </g>
    </g>
    <g id="text_29">
     <!-- $M_2$ (# µg$^2$ cm$^{-3}$) -->
     <g transform="translate(17.4875 371.607333) rotate(-90) scale(0.1 -0.1)">
      <use xlink:href="#DejaVuSans-Oblique-4d" transform="translate(0 0.765625)"/>
      <use xlink:href="#DejaVuSans-32" transform="translate(86.279297 -15.640625) scale(0.7)"/>
      <use xlink:href="#DejaVuSans-20" transform="translate(133.549805 0.765625)"/>
      <use xlink:href="#DejaVuSans-28" transform="translate(165.336914 0.765625)"/>
      <use xlink:href="#DejaVuSans-23" transform="translate(204.350586 0.765625)"/>
      <use xlink:href="#DejaVuSans-20" transform="translate(288.139648 0.765625)"/>
      <use xlink:href="#DejaVuSans-b5" transform="translate(319.926758 0.765625)"/>
      <use xlink:href="#DejaVuSans-67" transform="translate(383.549805 0.765625)"/>
      <use xlink:href="#DejaVuSans-32" transform="translate(447.983398 39.046875) scale(0.7)"/>
      <use xlink:href="#DejaVuSans-20" transform="translate(495.253906 0.765625)"/>
      <use xlink:href="#DejaVuSans-63" transform="translate(527.041016 0.765625)"/>
      <use xlink:href="#DejaVuSans-6d" transform="translate(582.021484 0.765625)"/>
      <use xlink:href="#DejaVuSans-2212" transform="translate(680.390625 39.046875) scale(0.7)"/>
      <use xlink:href="#DejaVuSans-33" transform="translate(739.042969 39.046875) scale(0.7)"/>
      <use xlink:href="#DejaVuSans-29" transform="translate(786.313477 0.765625)"/>
     </g>
    </g>
   </g>
   <g id="line2d_73">
    <path d="M 58.007791 375.174922 
L 66.191367 371.401925 
L 74.374944 367.636044 
L 82.55852 363.879099 
L 90.742096 360.133354 
L 98.925672 356.401615 
L 107.109248 352.687345 
L 115.292824 348.994782 
L 123.4764 345.329085 
L 131.659976 341.696459 
L 139.843552 338.104283 
L 148.027128 334.561197 
L 156.210705 331.07713 
L 164.394281 327.663223 
L 172.577857 324.331631 
L 180.761433 321.095143 
L 188.945009 317.96664 
L 197.128585 314.95838 
L 205.312161 312.081197 
L 213.495737 309.34369 
L 221.679313 306.751539 
L 229.862889 304.307053 
L 238.046466 302.009022 
L 246.230042 299.852876 
L 254.413618 297.831106 
" clip-path="url(#pa4259b4a4e)" style="fill: none; stroke: #ff0000; stroke-opacity: 0.8; stroke-linecap: square"/>
   </g>
   <g id="line2d_74">
    <path d="M 58.007791 375.174922 
L 66.191367 371.39795 
L 74.374944 367.619464 
L 82.55852 363.848668 
L 90.742096 360.101894 
L 98.925672 356.370783 
L 107.109248 352.657253 
L 115.292824 348.965503 
L 123.4764 345.300632 
L 131.659976 341.668774 
L 139.843552 338.077224 
L 148.027128 334.534526 
L 156.210705 331.050502 
L 164.394281 327.636195 
L 172.577857 324.303684 
L 180.761433 321.065739 
L 188.945009 317.935316 
L 197.128585 314.924894 
L 205.312161 312.045723 
L 213.495737 309.307052 
L 221.679313 306.715474 
L 229.862889 304.274472 
L 238.046466 301.98424 
L 246.230042 299.841799 
L 254.413618 297.841366 
" clip-path="url(#pa4259b4a4e)" style="fill: none; stroke-dasharray: 9.6,2.4,1.5,2.4; stroke-dashoffset: 0; stroke: #800080; stroke-opacity: 0.8; stroke-width: 1.5"/>
   </g>
   <g id="line2d_75">
    <path d="M 58.007791 375.174922 
L 66.191367 372.137258 
L 74.374944 370.217483 
L 82.55852 369.424461 
L 90.742096 369.468725 
L 98.925672 370.067129 
L 107.109248 371.025761 
L 115.292824 372.224778 
L 123.4764 373.590727 
L 131.659976 375.077062 
L 139.843552 376.652811 
L 148.027128 378.296315 
L 156.210705 379.991779 
L 164.394281 381.727308 
L 172.577857 383.493737 
L 180.761433 385.283897 
L 188.945009 387.09213 
L 197.128585 388.913939 
L 205.312161 390.745745 
L 213.495737 392.584695 
L 221.679313 394.428519 
L 229.862889 396.275415 
L 238.046466 398.123965 
L 246.230042 399.973059 
L 254.413618 401.821835 
" clip-path="url(#pa4259b4a4e)" style="fill: none; stroke-dasharray: 3.7,1.6; stroke-dashoffset: 0; stroke: #800080"/>
   </g>
   <g id="line2d_76">
    <path d="M 66.190709 424.99625 
L 66.191367 421.989346 
L 74.374944 398.698876 
L 82.55852 383.943172 
L 90.742096 373.516622 
L 98.925672 365.52142 
L 107.109248 358.995976 
L 115.292824 353.404985 
L 123.4764 348.434883 
L 131.659976 343.894973 
L 139.843552 339.666263 
L 148.027128 335.673782 
L 156.210705 331.870843 
L 164.394281 328.229624 
L 172.577857 324.735164 
L 180.761433 321.381279 
L 188.945009 318.167574 
L 197.128585 315.097098 
L 205.312161 312.174421 
L 213.495737 309.404064 
L 221.679313 306.789263 
L 229.862889 304.331119 
L 238.046466 302.028134 
L 246.230042 299.876125 
L 254.413618 297.868446 
" clip-path="url(#pa4259b4a4e)" style="fill: none; stroke-dasharray: 3.7,1.6; stroke-dashoffset: 0; stroke: #800080"/>
   </g>
   <g id="line2d_77">
    <path d="M 58.007791 375.174922 
L 66.191367 371.39795 
L 74.374944 367.619464 
L 82.55852 363.848668 
L 90.742096 360.101894 
L 98.925672 356.370783 
L 107.109248 352.657253 
L 115.292824 348.965503 
L 123.4764 345.300632 
L 131.659976 341.668774 
L 139.843552 338.077224 
L 148.027128 334.534526 
L 156.210705 331.050502 
L 164.394281 327.636195 
L 172.577857 324.303684 
L 180.761433 321.065739 
L 188.945009 317.935316 
L 197.128585 314.924894 
L 205.312161 312.045708 
L 213.495737 309.306849 
L 221.679313 306.713981 
L 229.862889 304.26762 
L 238.046466 301.961817 
L 246.230042 299.784318 
L 254.413618 297.718313 
" clip-path="url(#pa4259b4a4e)" style="fill: none; stroke-dasharray: 7.4,3.2; stroke-dashoffset: 0; stroke: #0000ff; stroke-opacity: 0.8; stroke-width: 2"/>
   </g>
   <g id="line2d_78">
    <path d="M 58.007791 375.174922 
L 66.191367 371.39795 
L 74.374944 367.61943 
L 82.55852 363.848047 
L 90.742096 360.100333 
L 98.925672 356.366337 
L 107.109248 352.645334 
L 115.292824 348.941108 
L 123.4764 345.262722 
L 131.659976 341.624367 
L 139.843552 338.032326 
L 148.027128 334.487206 
L 156.210705 330.997789 
L 164.394281 327.57496 
L 172.577857 324.23198 
L 180.761433 320.983921 
L 188.945009 317.845903 
L 197.128585 314.824268 
L 205.312161 311.928476 
L 213.495737 309.167067 
L 221.679313 306.546539 
L 229.862889 304.071089 
L 238.046466 301.742526 
L 246.230042 299.560328 
L 254.413618 297.521847 
" clip-path="url(#pa4259b4a4e)" style="fill: none; stroke-dasharray: 2.5,4.125; stroke-dashoffset: 0; stroke: #008000; stroke-opacity: 0.8; stroke-width: 2.5"/>
   </g>
   <g id="patch_14">
    <path d="M 48.1875 386.44 
L 48.1875 274.174667 
" style="fill: none; stroke: #000000; stroke-width: 0.8; stroke-linejoin: miter; stroke-linecap: square"/>
   </g>
   <g id="patch_15">
    <path d="M 264.233909 386.44 
L 264.233909 274.174667 
" style="fill: none; stroke: #000000; stroke-width: 0.8; stroke-linejoin: miter; stroke-linecap: square"/>
   </g>
   <g id="patch_16">
    <path d="M 48.1875 386.44 
L 264.233909 386.44 
" style="fill: none; stroke: #000000; stroke-width: 0.8; stroke-linejoin: miter; stroke-linecap: square"/>
   </g>
   <g id="patch_17">
    <path d="M 48.1875 274.174667 
L 264.233909 274.174667 
" style="fill: none; stroke: #000000; stroke-width: 0.8; stroke-linejoin: miter; stroke-linecap: square"/>
   </g>
  </g>
 </g>
 <defs>
  <clipPath id="p774c54474c">
   <rect x="48.1875" y="7.2" width="216.046409" height="112.265333"/>
  </clipPath>
  <clipPath id="p9b01f8ecbd">
   <rect x="48.1875" y="140.687333" width="216.046409" height="112.265333"/>
  </clipPath>
  <clipPath id="pa4259b4a4e">
   <rect x="48.1875" y="274.174667" width="216.046409" height="112.265333"/>
  </clipPath>
 </defs>
</svg>
